M48
;Layer_Color=9474304
;FILE_FORMAT=2:4
INCH,TZ
;TYPE=PLATED
T1F00S00C0.0080
T2F00S00C0.0080
T3F00S00C0.0080
T4F00S00C0.0090
T5F00S00C0.0190
T6F00S00C0.0280
T7F00S00C0.0500
T8F00S00C0.0630
;TYPE=NON_PLATED
T9F00S00C0.1285
%
T01
X80060Y44950
Y45350
X80460
Y44950
X80860
X81260
Y45350
Y45750
X81660Y45350
X82060
X82460
Y45750
Y44950
X82860
X83260
X83660
Y45350
X83260
X82860
X82060Y44950
X81660
X80860Y45350
Y46550
X80460
X80060
Y46950
X80460
X80860
X82860
X83260
X83660
Y46550
X83260
X82860
Y50350
Y50750
X83260
Y50350
X83660
Y50750
Y51950
X83260
X82860
Y52350
X82460
X82060
X81660
X81260
Y51950
X80860
X80460
Y52350
X80860
X80060
Y51950
Y50750
X80460
X80860
Y50350
X80460
X80060
X81260Y51550
X81660Y51950
X82060
X82460
Y51550
X83260Y52350
X83660
X83135Y54610
Y55010
Y55410
X82735
Y55810
X83135
Y56210
Y56610
Y57010
X82735
Y57410
Y57810
X83135
Y57410
Y58210
X82735
X81535
Y57810
Y57410
X81135
Y57810
Y58210
X82335Y57010
X82735Y56610
Y56210
X82335Y55810
X81535Y55410
X81135
Y55010
X81535
Y54610
X81135
X82735
Y55010
X50070
Y54610
X49670
Y55010
Y55410
X50070
X48870Y55810
X48470
Y56210
Y56610
Y57010
X48870
X48070
Y56610
Y56210
Y55810
Y55410
Y55010
Y54610
X48470
Y55010
Y55410
Y57410
Y57810
Y58210
X48070
Y57810
Y57410
X49670
Y57810
Y58210
X50070
Y57810
Y57410
X49900Y52350
Y51950
X49500
Y52350
X49100
X48700
X48300
Y51950
X47900
X47500
Y52350
X47900
X47100
Y51950
Y50750
X47500
X47900
Y50350
X47500
X47100
X48300Y51550
X48700Y51950
X49100
X49500Y51550
X49900Y50750
Y50350
X50300
Y50750
X50700
Y50350
Y51950
X50300
Y52350
X50700
X50710Y46950
Y46550
X50310
Y46950
X49910
Y46550
X49510Y45750
Y45350
X49110
X48710
X48310
Y45750
Y44950
X48710
X49110
X49510
X49910
X50310
X50710
Y45350
X50310
X49910
X47910
X47510
X47110
Y44950
X47510
X47910
Y46550
X47510
X47110
Y46950
X47510
X47910
X42860
X42460
X42060
Y46550
X42460
X42860
Y45350
X42460
X42060
X41660
Y44950
X41260
X40860
X40460
X40060
Y45350
X40460
X40860
X41260
X41660Y45750
X40460
X40060Y46550
Y46950
X39660
Y46550
X39260
Y46950
Y45350
X39660
Y44950
X39260
X42060
X42460
X42860
Y50350
Y50750
X42460
Y50350
X42060
Y50750
X41660Y51550
Y51950
X41260
X40860
X40460
Y51550
Y52350
X40060
X39660
X39260
Y51950
X39660
X40060
X40860Y52350
X41260
X41660
X42060
X42460
X42860
Y51950
X42460
X42060
X42030Y54460
Y54860
Y55260
X41630
Y55660
X42030
Y56060
Y56460
Y56860
X41630
Y57260
Y57660
X42030
Y57260
Y58060
X41630
X40430
Y57660
Y57260
X40030
Y57660
Y58060
X41230Y56860
X41630Y56460
Y56060
X41230Y55660
X40430Y55260
X40030
Y54860
X40430
Y54460
X40030
X41630
Y54860
X40060Y50750
X39660
X39260
Y50350
X39660
X40060
X9900
Y50750
X9500
Y50350
X9100
Y50750
X8700Y51550
Y51950
X8300
X7900
X7500
Y51550
Y52350
X7100
X6700
X6300
Y51950
X6700
X7100
X7900Y52350
X8300
X8700
X9100
X9500
X9900
Y51950
X9500
X9100
X8960Y54470
X8560
Y54870
X8960
Y55270
X8560
X7760Y55670
X7360
Y56070
Y56470
Y56870
X7760
X6960
Y56470
Y56070
Y55670
Y55270
Y54870
Y54470
X7360
Y54870
Y55270
Y57270
Y57670
Y58070
X6960
Y57670
Y57270
X8560
Y57670
Y58070
X8960
Y57670
Y57270
X7100Y50750
X6700
X6300
Y50350
X6700
X7100
Y46950
Y46550
X6700
Y46950
X6300
Y46550
Y45350
X6700
X7100
Y44950
X7500
X7900
X8300
X8700
Y45350
X9100
X9500
Y44950
X9100
X9900
Y45350
Y46550
X9500
X9100
Y46950
X9500
X9900
X8700Y45750
X8300Y45350
X7900
X7500
Y45750
X6700Y44950
X6300
T02
X81580Y45730
X81510Y46010
X81380Y46250
X81160Y46490
Y46770
Y47050
X82560
Y46770
Y46490
X82340Y46250
X82210Y46010
X82140Y45730
X81860Y45600
X81160Y50250
Y50530
Y50810
X81380Y51050
X81510Y51290
X81580Y51570
X81860Y51700
X82140Y51570
X82210Y51290
X82340Y51050
X82560Y50810
Y50530
Y50250
X82355Y56130
X82075Y56060
X81835Y55930
X81595Y55710
X81315
X81035
Y57110
X81315
X81595
X81835Y56890
X82075Y56760
X82355Y56690
X82485Y56410
X50170Y57110
X49890
X49610
X49370Y56890
X49130Y56760
X48850Y56690
X48720Y56410
X48850Y56130
X49130Y56060
X49370Y55930
X49610Y55710
X49890
X50170
X49180Y51570
X49250Y51290
X49380Y51050
X49600Y50810
Y50530
Y50250
X48200
Y50530
Y50810
X48420Y51050
X48550Y51290
X48620Y51570
X48900Y51700
X48210Y47050
Y46770
Y46490
X48430Y46250
X48560Y46010
X48630Y45730
X48910Y45600
X49190Y45730
X49260Y46010
X49390Y46250
X49610Y46490
Y46770
Y47050
X41760
Y46770
Y46490
X41540Y46250
X41410Y46010
X41340Y45730
X41060Y45600
X40780Y45730
X40710Y46010
X40580Y46250
X40360Y46490
Y46770
Y47050
Y50250
Y50530
Y50810
X40580Y51050
X40710Y51290
X40780Y51570
X41060Y51700
X41340Y51570
X41410Y51290
X41540Y51050
X41760Y50810
Y50530
Y50250
X41250Y55980
X40970Y55910
X40730Y55780
X40490Y55560
X40210
X39930
Y56960
X40210
X40490
X40730Y56740
X40970Y56610
X41250Y56540
X41380Y56260
X9060Y55570
X8780
X8500
X8260Y55790
X8020Y55920
X7740Y55990
X7610Y56270
X7740Y56550
X8020Y56620
X8260Y56750
X8500Y56970
X8780
X9060
X8380Y51570
X8450Y51290
X8580Y51050
X8800Y50810
Y50530
Y50250
X7400
Y50530
Y50810
X7620Y51050
X7750Y51290
X7820Y51570
X8100Y51700
X8800Y47050
Y46770
Y46490
X8580Y46250
X8450Y46010
X8380Y45730
X8100Y45600
X7820Y45730
X7750Y46010
X7620Y46250
X7400Y46490
Y46770
Y47050
T03
X17457Y6150
Y6400
Y6650
Y6900
Y7150
Y7400
Y7650
Y7900
Y8150
Y8400
Y8650
Y8900
Y9150
Y9400
Y9650
Y9900
Y10150
Y10400
Y10650
Y10900
Y11150
Y11400
X17802
Y11150
Y10900
Y10650
Y10400
Y10150
Y9900
Y9650
Y9400
Y9150
Y8900
Y8650
Y8400
Y8150
Y7900
Y7650
Y7400
Y7150
Y6900
Y6650
Y6400
Y6150
X22860Y5630
X23110
X23360
X23610
X23830Y5730
X24010Y5910
X24190Y6090
X24240Y6340
Y6590
Y6840
Y7090
Y7340
Y7590
Y7840
Y8090
Y8340
Y8590
Y8840
Y9090
Y9340
Y9590
Y9840
Y10090
Y10340
Y10590
Y10840
Y11090
Y11340
X24680
Y11090
Y10840
Y10590
Y10340
Y10090
Y9840
Y9590
Y9340
Y9090
Y8840
Y8590
Y8340
Y8090
Y7840
Y7590
Y7340
Y7090
Y6840
Y6590
Y6340
X24730Y6100
X24910Y5920
X25090Y5740
X25310Y5630
X25560
X25810
X26060
Y5270
X25810
X25560
X25310
X25060
X24820Y5490
X24640Y5670
X24280
X24100Y5490
X23860Y5270
X23610
X23360
X23110
X22860
X24460Y5850
X24680Y11590
Y11840
Y12090
Y12340
Y12590
Y12840
Y13090
Y13340
Y13590
Y13840
Y14090
Y14340
Y14590
Y14840
Y15090
Y15340
Y15590
Y15840
Y16090
Y16340
Y16590
Y16840
Y17090
Y17340
Y17590
Y17840
Y18090
Y18340
Y18590
Y18840
Y19090
Y19340
Y19590
Y19840
Y20090
Y20340
Y20590
Y20840
Y21090
Y21340
Y21590
Y21840
Y22090
Y22340
Y22590
Y22840
Y23090
Y23340
Y23590
Y23840
Y24090
Y24340
Y24590
Y24840
Y25090
Y25340
Y25590
Y25840
Y26090
Y26340
Y26590
Y26840
X24240
Y26590
Y26340
Y26090
Y25840
Y25590
Y25340
Y25090
Y24840
Y24590
Y24340
Y24090
Y23840
Y23590
Y23340
Y23090
Y22840
Y22590
Y22340
Y22090
Y21840
Y21590
Y21340
Y21090
Y20840
Y20590
Y20340
Y20090
Y19840
Y19590
Y19340
Y19090
Y18840
Y18590
Y18340
Y18090
Y17840
Y17590
Y17340
Y17090
Y16840
Y16590
Y16340
Y16090
Y15840
Y15590
Y15340
Y15090
Y14840
Y14590
Y14340
Y14090
Y13840
Y13590
Y13340
Y13090
Y12840
Y12590
Y12340
Y12090
Y11840
Y11590
X17802Y11650
Y11900
Y12150
Y12400
Y12650
Y12900
Y13150
Y13400
Y13650
Y13900
Y14150
Y14400
Y14650
Y14900
Y15150
Y15400
Y15650
Y15900
Y16150
Y16400
Y16650
Y16900
Y17150
Y17400
Y17650
Y17900
Y18150
Y18400
Y18650
Y18900
Y19150
Y19400
Y19650
Y19900
Y20150
Y20400
Y20650
Y20900
Y21150
Y21400
Y21650
Y21900
Y22150
Y22400
Y22650
Y22900
Y23150
Y23400
Y23650
Y23900
Y24150
Y24400
Y24650
Y24900
Y25150
Y25400
Y25650
Y25900
Y26150
Y26400
Y26650
Y26900
X17457
Y26650
Y26400
Y26150
Y25900
Y25650
Y25400
Y25150
Y24900
Y24650
Y24400
Y24150
Y23900
Y23650
Y23400
Y23150
Y22900
Y22650
Y22400
Y22150
Y21900
Y21650
Y21400
Y21150
Y20900
Y20650
Y20400
Y20150
Y19900
Y19650
Y19400
Y19150
Y18900
Y18650
Y18400
Y18150
Y17900
Y17650
Y17400
Y17150
Y16900
Y16650
Y16400
Y16150
Y15900
Y15650
Y15400
Y15150
Y14900
Y14650
Y14400
Y14150
Y13900
Y13650
Y13400
Y13150
Y12900
Y12650
Y12400
Y12150
Y11900
Y11650
Y27150
Y27400
Y27650
Y27900
Y28150
Y28400
Y28650
Y28900
Y29150
Y29400
Y29650
Y29900
Y30150
Y30400
Y30650
Y30900
Y31150
Y31400
Y31650
Y31900
Y32150
Y32400
Y32650
Y32900
Y33150
Y33400
Y33650
Y33900
Y34150
Y34400
Y34650
Y34900
Y35150
Y35400
Y35650
Y35900
Y36150
Y36400
Y36650
Y36900
Y37150
Y37400
Y37650
Y37900
Y38150
Y38400
X17802
Y38150
Y37900
Y37650
Y37400
Y37150
Y36900
Y36650
Y36400
Y36150
Y35900
Y35650
Y35400
Y35150
Y34900
Y34650
Y34400
Y34150
Y33900
Y33650
Y33400
Y33150
Y32900
Y32650
Y32400
Y32150
Y31900
Y31650
Y31400
Y31150
Y30900
Y30650
Y30400
Y30150
Y29900
Y29650
Y29400
Y29150
Y28900
Y28650
Y28400
Y28150
Y27900
Y27650
Y27400
Y27150
X24240Y27090
Y27340
Y27590
Y27840
Y28090
Y28340
Y28590
Y28840
Y29090
Y29340
Y29590
Y29840
Y30090
Y30340
Y30590
Y30840
Y31090
Y31340
Y31590
Y31840
Y32090
Y32340
Y32590
Y32840
Y33090
Y33340
Y33590
Y33840
Y34090
Y34340
Y34590
Y34840
Y35090
Y35340
Y35590
Y35840
Y36090
Y36340
Y36590
Y36840
Y37090
Y37340
Y37590
Y37840
Y38090
Y38340
X24070Y38530
X23890Y38710
X23670Y38870
X23420
X23170
X22920
X22670
Y39230
X22920
X23170
X23420
X23670
X23920
X24100Y39020
X24280Y38840
X24460Y38660
X24640Y38840
X24820Y39020
X25000Y39230
X25250
X25500
X25750
X26000
X26250
Y38870
X26000
X25750
X25500
X25250
X25030Y38710
X24850Y38530
X24680Y38340
Y38090
Y37840
Y37590
Y37340
Y37090
Y36840
Y36590
Y36340
Y36090
Y35840
Y35590
Y35340
Y35090
Y34840
Y34590
Y34340
Y34090
Y33840
Y33590
Y33340
Y33090
Y32840
Y32590
Y32340
Y32090
Y31840
Y31590
Y31340
Y31090
Y30840
Y30590
Y30340
Y30090
Y29840
Y29590
Y29340
Y29090
Y28840
Y28590
Y28340
Y28090
Y27840
Y27590
Y27340
Y27090
X76900Y48430
X77150
X77400
X77650
X77900
X78150
X78400
X78650
X78900
X79150
X79400
X79650
X79900
X80150
X80400
X80650
X80900
X81160
X81340Y48260
X81520Y48080
X81680Y47860
Y47610
Y47360
Y47110
Y46860
Y46610
X82040
Y46860
Y47110
Y47360
Y47610
Y47860
Y48110
X81830Y48290
X81650Y48470
Y48830
X81830Y49010
X82040Y49190
Y49440
Y49690
Y49940
Y50190
Y50440
Y50690
X81680
Y50440
Y50190
Y49940
Y49690
Y49440
X81520Y49220
X81340Y49040
X81160Y48870
X80900
X80650
X80400
X80150
X79900
X79650
X79400
X79150
X78900
X78650
X78400
X78150
X77900
X77650
X77400
X77150
X76900
X81470Y48650
X81433Y56238
X81182
X80933
X80682
X80433
X80183
X79932
X79682
X79433
X79183
X78932
X78682
X78432
X78183
X77933
X77682
X77432
X77182
X76933
Y56582
X77182
X77432
X77682
X77933
X78183
X78432
X78682
X78932
X79183
X79433
X79682
X79932
X80183
X80433
X80682
X80933
X81182
X81433
X76683
X76432
X76182
X75932
X75683
X75433
X75182
X74932
X74682
X74433
X74183
X73932
X73682
X73432
X73183
X72933
X72682
X72432
X72182
X71933
X71683
X71432
X71182
X70932
X70683
X70433
X70182
X69932
X69682
X69433
X69183
X68932
X68682
X68432
X68183
X67933
X67682
X67432
X67182
X66933
X66683
X66432
X66182
X65932
X65683
X65433
X65182
X64932
X64682
X64433
X64183
X63932
X63682
X63432
X63183
X62933
X62682
X62432
X62182
X61933
X61683
X61432
X61182
Y56238
X61432
X61683
X61933
X62182
X62432
X62682
X62933
X63183
X63432
X63682
X63932
X64183
X64433
X64682
X64932
X65182
X65433
X65683
X65932
X66182
X66432
X66683
X66933
X67182
X67432
X67682
X67933
X68183
X68432
X68682
X68932
X69183
X69433
X69682
X69932
X70182
X70433
X70683
X70932
X71182
X71432
X71683
X71933
X72182
X72432
X72682
X72933
X73183
X73432
X73682
X73932
X74183
X74433
X74682
X74932
X75182
X75433
X75683
X75932
X76182
X76432
X76683
X76650Y48870
X76400
X76150
X75900
X75650
X75400
X75150
X74900
X74650
X74400
X74150
X73900
X73650
X73400
X73150
X72900
X72650
X72400
X72150
X71900
X71650
X71400
X71150
X70900
X70650
X70400
X70150
X69900
X69650
X69400
X69150
X68900
X68650
X68400
X68150
X67900
X67650
X67400
X67150
X66900
X66650
X66400
X66150
X65900
X65650
X65400
X65150
X64900
X64650
X64400
X64150
X63900
X63650
X63400
X63150
X62900
X62650
X62400
X62150
X61900
X61650
X61400
X61150
Y48430
X61400
X61650
X61900
X62150
X62400
X62650
X62900
X63150
X63400
X63650
X63900
X64150
X64400
X64650
X64900
X65150
X65400
X65650
X65900
X66150
X66400
X66650
X66900
X67150
X67400
X67650
X67900
X68150
X68400
X68650
X68900
X69150
X69400
X69650
X69900
X70150
X70400
X70650
X70900
X71150
X71400
X71650
X71900
X72150
X72400
X72650
X72900
X73150
X73400
X73650
X73900
X74150
X74400
X74650
X74900
X75150
X75400
X75650
X75900
X76150
X76400
X76650
X60900
X60650
X60400
X60150
X59900
X59650
X59400
X59150
X58900
X58650
X58400
X58150
X57900
X57650
X57400
X57150
X56900
X56650
X56400
X56150
X55900
X55650
X55400
X55150
X54900
X54650
X54400
X54150
X53900
X53650
X53400
X53150
X52900
X52650
X52400
X52150
X51900
X51650
X51400
X51150
X50900
X50650
X50400
X50150
X49900
X49650
X49420Y48260
X49240Y48080
X49080Y47860
Y47610
Y47360
Y47110
Y46860
Y46610
X48720
Y46860
Y47110
Y47360
Y47610
Y47860
Y48110
X48930Y48290
X49110Y48470
X49290Y48650
X49110Y48830
X48930Y49010
X48720Y49190
Y49440
Y49690
Y49940
Y50190
Y50440
Y50690
X49080
Y50440
Y50190
Y49940
Y49690
Y49440
X49240Y49220
X49420Y49040
X49650Y48870
X49900
X50150
X50400
X50650
X50900
X51150
X51400
X51650
X51900
X52150
X52400
X52650
X52900
X53150
X53400
X53650
X53900
X54150
X54400
X54650
X54900
X55150
X55400
X55650
X55900
X56150
X56400
X56650
X56900
X57150
X57400
X57650
X57900
X58150
X58400
X58650
X58900
X59150
X59400
X59650
X59900
X60150
X60400
X60650
X60900
X60932Y56238
X60683
X60433
X60182
X59932
X59682
X59433
X59183
X58932
X58682
X58432
X58183
X57933
X57682
X57432
X57182
X56933
X56683
X56432
X56182
X55932
X55683
X55433
X55182
X54932
X54682
X54433
X54183
X53932
X53682
X53432
X53183
X52933
X52682
X52432
X52182
X51933
X51683
X51432
X51182
X50932
X50683
X50433
X50182
X49932
X49682
Y56582
X49932
X50182
X50433
X50683
X50932
X51182
X51432
X51683
X51933
X52182
X52432
X52682
X52933
X53183
X53432
X53682
X53932
X54183
X54433
X54682
X54932
X55182
X55433
X55683
X55932
X56182
X56432
X56683
X56933
X57182
X57432
X57682
X57933
X58183
X58432
X58682
X58932
X59183
X59433
X59682
X59932
X60182
X60433
X60683
X60932
T04
X15560Y800
X16560
X17560
X18560
X19560
X20560
X21560
X22560
X23560
X24560
X25560
X26560
X27560
X28560
X29560
X29060Y1800
X28060
X27060
X26060
X25060
X24060
X23060
X22060
X21060
X20060
X19060
X18060
X17060
X16060
X16560Y2800
X17560
X18560
X19560
X20560
X21560
X22560
X23560
X24560
X25560
X26560
X27560
X28560
X29560
X29060Y3800
X28060
X27060
X26060
X25060
X24060
X23060
X22060
X21060
X20060
X19060
X18060
X17060
X16060
X15560Y4800
X16060Y5800
X15560Y6800
X16060Y7800
X17060
X18060
X19060
X20060
X21060
X22060
X23060
X23560Y8800
X22560
X21560
X20560
X19560
X18560
X19060Y9800
X20060
X21060
X22060
X23060
X23560Y10800
X22560
X21560
X20560
X19560
X18560
X18060Y9800
X17060
X16060
X16560Y10800
X15560
Y8800
X16560
X19560Y6800
X20060Y5800
X19560Y4800
X17560
X15560Y2800
X24560Y4800
X26560
X28560
X29560
X29060Y5800
X29560Y6800
X28560
X29060Y7800
X28060
X27060
X26060
X25060
X25560Y8800
X26560
X27560
X28560
X29560
X29060Y9800
X28060
X27060
X26060
X25060
X25560Y10800
X26560
X27560
X28560
X29560
X26560Y6800
X30560
X31560
X32560
X33060
X34060
X35060
X36060
X37560
X38560
X39560
X40560
X41560
X42560
X43560
X44560
X45060Y7800
X44060
X43060
X42060
X41060
X40060
X39060
X38060
X38560Y8800
X39560
X40560
X41560
X42560
X43560
X44560
X45060Y9800
X44060
X43060
X42060
X41060
X40060
X39060
X38060
X37560Y8800
X36060
X35060
X34060
X33060
X32560
X31560
X30560
X31060Y9800
X32060
X33560
X34560
X35560
X36560
X36060Y10800
X35060
X34060
X30560
X30060Y9800
Y7800
X31060
X32060
X33560
X34560
X35560
X36560
X38060Y5800
X39060
X40060
X39560Y4800
X38560
X37560
X38060Y3800
X39060
X40060
X39560Y2800
X38560
X37560
X38060Y1800
X39060
X40060
X39560Y800
X38560
X37560
X36560
X35560
X34560
X33560
X32560
X31560
X30560
X31060Y1800
X30060
X30560Y2800
X31560
X31060Y3800
X30060
X30560Y4800
X31560
X31060Y5800
X30060
X40560Y10800
X41560
X42560
X43560
X44560
X45560
X46060Y9800
X45560Y8800
X46060Y7800
X45560Y6800
X47060Y3800
X48060
X49060
X50060
X51060
X52060
X53060
X54060
X55060
X56060
X57060
X58060
X59060
X59560Y2800
X60560
Y800
X59560
X58560
X57560
X56560
X55560
X54560
X53560
X52560
X51560
X50560
X49560
X48560
X47560
X46560
X47060Y1800
X48060
X49060
X50060
X51060
X52060
X53060
X54060
X53560Y2800
X52560
X51560
X50560
X49560
X48560
X47560
X46560
X57560
X58560
X59060Y1800
X58060
X57060
X57560Y8800
X58560
X59560
X59060Y9800
X58060
X57060
X56060
X55060
X54060
X54560Y8800
X55560
X56560
X53560
X61560
X62560
X63560
X64560
X64060Y9800
X62060
X61060
X67060
X68060
X69060
X70060
X70560Y8800
X69560
X68560
X66560
X67060Y3800
X68060
X69060
X70060
X70560Y2800
X71560
X72560
X73560
X74560
X75560
X76560
X76060Y3800
X75060
X74060
X73060
X72060
X72560Y800
X73560
X74560
X75560
X76560
X71560
X70560
X69560
X68560
X67560
X66560
X65560
X64560
X63560
X62560
X61560
X62060Y1800
X63060
X64060
X65060
X64560Y2800
X63560
X62560
X61560
X62060Y3800
X63060
X64060
X66060
X66560Y2800
X67560
X68560
X69560
X72060Y9800
X73060
X74060
X75060
X75560Y8800
X76560
X74560
X73560
X61060Y3800
Y1800
X77560Y800
X78560
X79560
X80560
X81560
X82560
X83560
X84560
X85560
X86560
X87560
X88560
X89060Y1800
Y3800
X88060
X87060
X86060
X86560Y4800
X87560
X88560
X89060Y5800
X88060
X87060
X86060
X86560Y6800
X87560
X88560
X89060Y7800
X88060
X87060
X86060
X86560Y8800
X87560
X88560
X89060Y9800
X88060
X87060
X86060
X86560Y10800
X87560
X88560
X85560
X83560
Y8800
X84560
Y6800
Y4800
X82560
X81560
X80560
X79560
X80060Y3800
X81060
X82060
X83060
X84060Y1800
X85060
X86060
X79060Y3800
X78060
X77060
X77560Y8800
X78060Y9800
X79060
X77060
Y13800
X78060
X79060
X80060
X81060
X82060
X83060
X84060
X85060
X86060
X87060
X88060
X89060
X88560Y14800
X87560
X86560
X85560
X86060Y15800
X87060
X88060
X89060
X88560Y16800
X87560
X86560
X87060Y17800
X88060
X89060
X88560Y18800
X87560
X86560
X87060Y19800
X88060
X89060
X88560Y20800
X87560
X86560
X87060Y21800
X88060
X89060
X88560Y22800
X87560
X86560
X85560
X84560
X85060Y23800
X86060
X87060
X88060
X89060
X88560Y24800
X87560
X86560
X85560
X84560
X83560
X82560
X81560
X80560
X79560
X78560
X77560
X78060Y25800
X79060
X80060
X81060
X82060
X83060
X84060
X85060
X86060
X87060
X88060
X89060
X88560Y26800
X87560
X86560
X85560
X84560
X83560
X82560
X81560
X80560
X79560
X80060Y23800
X81060
X82060
X83060
X84060
X86060Y21800
Y19800
Y17800
X84060
Y19800
X82560Y16800
X81560
X80560
X79560
X78560
X77560
X78060Y17800
X79060
X79560Y18800
X78560
X77560
X77060Y19800
Y17800
Y23800
X78060
X79060
X77060Y25800
X79560Y12800
X80560
X81560
X82560
X83560
X84560
X85560
X86560
X87560
X88560
X89060Y11800
X88060
X87060
X86060
X85060
X84060
X83060
X82060
X81060
X80060
X76060Y13800
X75060
X74060
X73060
X72060
X71060
X70060
X69060
X68060
X67060
X66060
X65060
X64060
X63060
X62060
X61060
X61560Y14800
X62560
X63560
X64560
X65560
X66560
X67560
X68560
X69560
X70060Y15800
X71060
X72060
X71560Y16800
X70560
X71060Y17800
X72060
X74060
X75060
X75560Y16800
X74560
X73560
X74060Y15800
X75060
X76060
Y19800
X75060
X74060
X73060
X72060
X71060
X70060
X70560Y20800
X71560
X71060Y21800
X70060
Y23800
X71060
X72060
X73060
X74060
X75060
X75560Y24800
X76560
X76060Y25800
X75060
X74060
X73060
X72060
X71060
X70060
X69060
X68060
X67060
X66060
X65060
X64060
X63060
X62060
X61060
X65560Y26800
X66560
X67560
X68560
X69560
X70560
X71560
X72560
Y24800
X73560
X74560
X73560Y20800
X68560
X67560
X66560
Y22800
X67060Y23800
X68060
X69060
X68060Y21800
Y17800
X67060
X67560Y16800
X66560
X67060Y15800
X68060
X69060
X70060Y17800
X64060
X63060
X62060
X61060
X61560Y18800
X62560
X63560
Y20800
X64560
Y22800
X63560
X66060Y23800
X64560Y16800
X63560
X62560
X61560
X62060Y15800
X63060
X64060
X65060
X61060
X60060
X59060
X58060
X57060
X56060
X55060
X54060
X53060
X52060
X52560Y16800
X53560
X54560
X55560
X56560
X57560
X58560
X59560
X60560
Y14800
X59560
X58560
X57560
X56560
X55560
X54560
X53560
X52560
X53060Y13800
X54060
X55060
X56060
X57060
X58060
X59060
X60060
X57060Y17800
X56060
X55060
X54060
X53060
X52060
X51060
X50060
X49060
X48060
X47060
X46060
X46560Y18800
X47560
X48560
X49560
X50560
X51560
X52560
X53560
X54560
X55560
X56560
X56060Y19800
X55060
X54060
X53060
X52060
X51060
X50060
X49060
X48060
X47060
X46060
X45560Y18800
X50560Y16800
X51560
X52060Y13800
X52560Y12800
Y20800
X53560
X54560
X55060Y21800
X54060
X53060
X52060
X52560Y22800
X53560
X54560
X55060Y23800
X54060
X53060
X52060
X52560Y24800
X53560
X54560
X55560
X56060Y25800
X57060
X58060
X59060
X60060
X59560Y26800
X58560
X57560
X56560
X55560
X54560
X53560
X52560
X51560
X50560
X49560
X48560
X47560
X46560
X45560
X46060Y25800
X47060
X48060
X49060
X50060
X51060
X52060
X53060
X54060
X55060
X51560Y24800
X50560
X58060Y23800
X44060Y25800
X43060
X42060
X41060
X40060
X39060
X38060
X37060
X36060
X35060
X35560Y26800
X36560
X37560
X38560
X39560
X40560
X41560
X42560
X43560
X44560
X39560Y24800
X38560
X37560
X36560
X35560
X35060Y23800
Y21800
X35560Y20800
X36560
X37560
X38560
X39060Y21800
X39560Y22800
X38560
X39060Y23800
X41560Y20800
X42060Y19800
X43060
X44060
X45060
X44560Y18800
X43560
X42560
X41560
X40560
X39560
X40060Y17800
X41060
X42060
X43060
X44060
X45060
X41060Y19800
X37560
X38060Y18800
Y17800
X39060
X39560Y16800
X38560
X37560
X36560
X35560
X36060Y17800
X37060
Y18800
X36060
X35060
Y17800
X33560
X32060
X31060
X30060
X30560Y18800
X30060Y19800
X30560Y20800
X31560
X32560
X33060
X34060
X33560Y19800
X32060
X32560Y18800
X33060
X34060
Y16800
X33060
X32560
X31560
X30560
X31060Y15800
X30060
Y13800
X30560Y12800
X31560
X32060Y11800
X33560
X34560
X35560
Y12800
X36560
X37560
X38560
X39060Y13800
X39560Y14800
X38560
X39060Y15800
X38060
X37060
X36060
X35060
Y13800
X34060Y14800
Y12800
X36560Y11800
X37560
X40060
X30060
X31560Y14800
Y22800
X31060Y23800
X30060
X30560Y24800
X31560
X32560
X33060
X34060
X33560Y25800
X32060
X31060
X30060
X30560Y26800
X31560
X32560
X33060
X34060
Y22800
X30060Y21800
X29060
X28060
X27060
X26060
X25060
X25560Y22800
X26560
X27560
X28560
X29560
X29060Y23800
X28060
X27060
X26060
X25060
X25560Y24800
X26560
X27560
X28560
X29560
X29060Y25800
X28060
X27060
X26060
X25060
X25560Y26800
X26560
X27560
X28560
X29560
Y20800
X28560
X27560
X26560
X25560
X26060Y19800
X27060
X28060
X29060
X29560Y18800
X28560
X27560
X26560
X25560
X26060Y17800
X27060
X28060
X29060
X29560Y16800
X28560
X27560
X26560
X25560
X26060Y15800
X27060
X28060
X29060
X29560Y14800
X28560
X27560
X26560
X25560
X26060Y13800
X27060
X28060
X29060
X29560Y12800
X28560
X27560
X26560
X25560
X26060Y11800
X27060
X28060
X29060
X25060
Y13800
Y15800
Y17800
Y19800
X23060
X22060
X21060
X20060
X19060
X18060
X17060
X16060
X16560Y20800
X15560
X16060Y21800
X17060
X18060
X19060
X20060
X21060
X22060
X23060
X23560Y22800
X22560
X21560
X20560
X19560
X18560
X19060Y23800
X20060
X21060
X22060
X23060
X23560Y24800
X22560
X21560
X20560
X19560
X18560
X19060Y25800
X20060
X21060
X22060
X23060
X23560Y26800
X22560
X21560
X20560
X19560
X18560
X18060Y25800
X17060
X16060
X16560Y26800
X15560
Y24800
X16560
X17060Y23800
X18060
X16060
X16560Y22800
X15560
Y18800
X16560
X17060Y17800
X18060
X19060
X20060
X21060
X22060
X23060
X23560Y18800
X22560
X21560
X20560
X19560
X18560
Y20800
X19560
X20560
X21560
X22560
X23560
Y16800
X22560
X21560
X20560
X19560
X18560
X19060Y15800
X20060
X21060
X22060
X23060
X23560Y14800
X22560
X21560
X20560
X19560
X18560
X19060Y13800
X20060
X21060
X22060
X23060
X23560Y12800
X22560
X21560
X20560
X19560
X18560
X19060Y11800
X20060
X21060
X22060
X23060
X18060
X17060
X16060
X16560Y12800
X15560
X16060Y13800
X17060
X18060
Y15800
X17060
X16060
X16560Y16800
X15560
X16060Y17800
X16560Y14800
X15560
X16060Y27800
X17060
X18060
X19060
X20060
X21060
X22060
X23060
X23560Y28800
X22560
X21560
X20560
X19560
X18560
X19060Y29800
X20060
X21060
X22060
X23060
X23560Y30800
X22560
X21560
X20560
X19560
X18560
X19060Y31800
X20060
X21060
X22060
X23060
X23560Y32800
X22560
X21560
X20560
X19560
X18560
X19060Y33800
X20060
X21060
X22060
X23060
X23560Y34800
X22560
X21560
X20560
X19560
X18560
X19060Y35800
X20060
X21060
X22060
X23060
X23560Y36800
X22560
X21560
X20560
X19560
X18560
X18060Y35800
X17060
X16060
X16560Y36800
X15560
X16060Y37800
X16560Y38800
X15560
X16060Y39800
X16560Y40800
X17560
X18560
X19560
X20560
X21560
X22560
X23560
X24560
X25560
X26560
X27560
X28560
X29560
X29060Y41800
X28060
X27060
X26060
X25060
X24060
X23060
X22060
X21060
X20060
X19060
X18060
X17060
X16060
X15560Y40800
X18560Y38800
X19560
X20060Y39800
X22060
X24060
X25060
X27060
X27560Y38800
X28560
X29560
X29060Y39800
Y37800
X29560Y36800
X28560
X27560
X26560
X25560
X26060Y35800
X27060
X28060
X29060
X29560Y34800
X28560
X27560
X26560
X25560
X26060Y33800
X27060
X28060
X29060
X29560Y32800
X28560
X27560
X26560
X25560
X26060Y31800
X27060
X28060
X29060
X29560Y30800
X28560
X27560
X26560
X25560
X26060Y29800
X27060
X28060
X29060
X29560Y28800
X28560
X27560
X26560
X25560
X26060Y27800
X27060
X28060
X29060
X25060
Y29800
Y31800
Y33800
Y35800
Y37800
X27060
X22060
X20060
X18060Y33800
X17060
X16060
X16560Y34800
X15560
Y32800
X16560
X17060Y31800
X18060
Y29800
X17060
X16060
X16560Y30800
X15560
X16060Y31800
X16560Y28800
X15560
X30560
X31560
X32560
X33060
X34060
X35060
Y29800
X36060
X37060
X38060
X39060
X38560Y30800
X39060Y31800
X39560Y32800
X38560
X37560
X36560
X35560
X36060Y33800
X37060
X38060
X39060
X39560Y34800
X40560
X41560
X42560
X43560
X44560
X45060Y35800
X44060
X43060
X42060
X41060
X40060
X40560Y36800
X41560
X42560
X43560
X44560
X39560
X40060Y37800
X39060
X38060
X37060
X36060
X35060
Y36800
X35560Y34800
X36560
X37560
X38560
Y38800
X39060Y39800
X39560Y40800
X38560
X39060Y41800
X38060
X37060
X36060
X35060
X34060
X33060
X32060
X31060
X30060
X30560Y40800
X30060Y39800
X30560Y38800
X31560
X32060Y37800
X31560Y36800
X30560
X31060Y35800
X30060
X30560Y34800
X31560
X32560
X33060
X34060
X33560Y33800
X35060
Y31800
X34060Y32800
Y30800
X33560Y29800
X32060
X31560Y30800
X30560
X30060Y31800
X30560Y32800
X31560
X32060Y33800
X31060
X30060
Y37800
X33560
X34060Y38800
X35060Y39800
X34560Y40800
Y27800
X35560
X36560
X37560
X40060
X41060
X42060
X43060
X44060
X45060
X44560Y28800
X43560
X42560
X41560
X36060
X33560Y27800
X32060
X30060
Y29800
X45560Y28800
X46560
X47560
X48560
X49560
X50560
X51560
X52560
X53560
X54560
X55560
X56560
X57560
X58560
X59560
X59060Y29800
X58060
X57060
X56060
X55060
X54060
X53060
X52060
X52560Y30800
X53560
X54560
X55560
X56560
X57560
X58560
X59560
X59060Y31800
X58060
X57060
X56060
X55060
X54060
X53060
X52060
X52560Y32800
X53560
X54560
X55560
X56560
X57560
X58560
X59560
X60560
X60060Y33800
X59060
X58060
X57060
X56060
X55060
X54060
X53060
X52060
X51060
X51560Y34800
X52560
X53560
X54560
X55560
X56560
X57560
X58560
X59560
X60560
X60060Y35800
X59060
X58060
X57060
X56060
X55060
X54060
X53060
X52060
X51060
X50060
X49060
X48060
X47060
X46060
X46560Y36800
X47560
X48560
X49560
X50560
X51560
X52560
X53560
X54560
X55560
X56560
X57560
X58560
X59560
X59060Y37800
X58060
X57060
X56060
X55060
X54060
X53060
X52060
X52560Y38800
X53560
X54560
X55560
X56560
X57560
X58560
X59560
X59060Y39800
X58060
X57060
X56060
X55060
X54060
X53060
X52060
X52560Y40800
X53560
X54560
X55560
X56560
X57560
X58560
X59560
X60060Y41800
X59060
X58060
X57060
X54060
X53060
X52060
X51060
X50560Y34800
X49560
X48560
X47560
X46560
X45560Y36800
X46060Y27800
X47060
X48060
X49060
X50060
X51060
X52060
X53060
X54060
X55060
X56060
X57060
X58060
X59060
X61060
X66060
X67060
X68060
X69060
X70060
X71060
X69560Y28800
X70060Y29800
X69060
X69560Y30800
X70560
X71560
X72060Y31800
X71060
X70060
X69060
X68060
X68560Y32800
X67560
X66560
X65560
X64560
X63560
X62560
X61560
X62060Y33800
X63060
X64060
X65060
X66060
X67060
X68060
X68560Y34800
X69560
X70560
X71560
X72560
X73560
X74560
X75560
X76560
X76060Y35800
X75060
X74060
X73060
X72060
X71060
X70060
X69060
X68060
X67060
X66060
X65060
X64060
X63060
X62060
X61060
X61560Y34800
X62560
X63560
X64560
X65560
X66560
X67560
Y36800
X68560
X69560
X70560
X71560
X72560
X73560
X74560
X75060Y37800
X74060
X73060
X73560Y38800
X74560
Y40800
X73560
X72560
X72060Y41800
X71060
X70060
X69560Y40800
X70060Y39800
X69060
X69560Y38800
X70060Y37800
X71060
X69060
X68060
X67060
X66060
X66560Y36800
X65560
X64560
X65060Y39800
X66060
X67060
X66560Y40800
X66060Y41800
X68060
X72560Y38800
X73060Y33800
X74060
X75060
X76060
X76560Y32800
X75560
X74560
X72560
X68560Y30800
X66560
X66060Y31800
X61060Y33800
X77060
X78060
X79060
X80060
X81060
X82060
X83060
X84060
X85060
X86060
X87060
X88060
X89060
X88560Y34800
X87560
X86560
X85560
X84560
X83560
X82560
X81560
X80560
X79560
X78560
X77560
X78060Y35800
X79060
X80060
X81060
X82060
X83060
X84060
X85060
X86060
X87060
X88060
X89060
X88560Y36800
X87560
X86560
X85560
X84560
X83560
X82560
X81560
X80560
X79560
X80060Y37800
X81060
X82060
X83060
X84060
X85060
X86060
X87060
X88060
X89060
X88560Y38800
X87560
X86560
X85560
X84560
X83560
X82560
X81560
X80560
X79560
X80060Y39800
X81060
X82060
X83060
X84060
X85060
X86060
X87060
X88060
X89060
X88560Y40800
X87560
X86560
X85560
X84560
X83560
X82560
X81560
X80560
X79560
X81060Y41800
X82060
X83060
X84060
X85060
X86060
X88060
X89060
X88560Y32800
X87560
X86560
X85560
X84560
X83560
X82560
X81560
X80560
X79560
Y30800
X80560
X81560
X82560
X83560
X84560
X85560
X86560
X87560
X88560
X89060Y31800
X88060
X87060
X86060
X85060
X84060
X83060
X82060
X81060
Y29800
X82060
X83060
X84060
X85060
X86060
X87060
X88060
X89060
X88560Y28800
X87560
X86560
X85560
X84560
X83560
X82560
X81560
X80560
X79560
X80060Y29800
Y27800
X81060
X82060
X83060
X84060
X85060
X86060
X87060
X88060
X89060
X77560Y32800
X77060Y35800
X77560Y42800
X78560
X79560
X80560
X81560
X82560
X83560
X84560
X85560
X86060Y43800
X85060
X84060
X83060
X82060
X81060
X80060
X79060
X78060
X77060
X77560Y44800
X78560
X79060Y45800
X78060
X77060
X77560Y46800
X78560
X79060Y47800
X80060
X81060
X83060
X84060
X85060
X86060
X87060
X88060
X89060
X88560Y48800
X87560
X86560
X85560
X84560
X83560
X82560
X83060Y49800
X84060
X85060
X86060
X87060
X88060
X89060
X88560Y50800
X87560
X86560
X85560
X84560
X85060Y51800
X86060
X87060
X88060
X89060
X88560Y52800
X87560
X86560
X85560
X84560
X83560
X82560
X81560
X80560
X79560
X78560
X77560
X78060Y53800
X79060
X80060
X81060
X82060
X83060
X84060
X85060
X86060
X87060
X88060
X89060
X88560Y54800
X87560
X86560
X85560
X84560
X83560
X84060Y55800
X85060
X86060
X87060
X88060
X89060
X88560Y56800
X89060Y57800
X86060
X85060
X84060
X84560Y56800
X85560
X83560
X82560
X81560
X80560
X79560
X78560
X77560
X78060Y57800
X79060
X80060
Y55800
X79060
X78060
X77060
X77560Y54800
X78560
X79560
X80560
X81060Y51800
Y49800
X80060
X79060
X78060
X77060
X77560Y50800
X78560
X79060Y51800
X78060
X77060
Y53800
Y57800
Y47800
X78060
X84560Y46800
X85560
X86560
X87560
X88560
X89060Y45800
X88060
X87060
X86060
X85060
X85560Y44800
X86560
X87560
X88560
X89060Y43800
X84560Y44800
X76560
X75560
X74560
X73560
X72560
X71560
X70560
X69560
X68560
X67560
X66560
X65560
X64560
X63560
X62560
X61560
X62060Y45800
X63060
X64060
X65060
X66060
X67060
X68060
X69060
X70060
X71060
X72060
X73060
X74060
X75060
X76060
X76560Y46800
X75560
X74560
X73560
X72560
X71560
X70560
X69560
X68560
X67560
X66560
X65560
X64560
X63560
X62560
X61560
X62060Y47800
X63060
X64060
X65060
X66060
X67060
X68060
X69060
X70060
X71060
X72060
X73060
X74060
X75060
X76060
Y49800
X75060
X74060
X73060
X72060
X71060
X70060
X69060
X68060
X67060
X66060
X65060
X64060
X63060
X62060
X61060
X61560Y50800
X62560
X63560
X64560
X65560
X66560
X67560
X68560
X69560
X70560
X71560
X72560
X73560
X74560
X75560
X76560
X76060Y51800
X75060
X74060
X73060
X72060
X71060
X70060
X69060
X68060
X67060
X66060
X65060
X64060
X63060
X62060
X61060
X61560Y52800
X62560
X63560
X64560
X65560
X66560
X67560
X68560
X69560
X70560
X71560
X72560
X73560
X74560
X75560
X76560
X76060Y53800
X75060
X74060
X73060
X72060
X71060
X70060
X69060
X68060
X67060
X66060
X65060
X64060
X63060
X62060
X61060
X61560Y54800
X62560
X63560
X64560
X65560
X66560
X67560
X68560
X69560
X70560
X71560
X72560
X73560
X74560
X75560
X76560
X76060Y55800
X75060
X74060
X73060
X72060
X71060
X70060
X69060
X68060
X67060
X66060
X65060
X64060
X63060
X62060
X61060
X61560Y56800
X62560
X63560
X64560
X65560
X66560
X67560
X68560
X69560
X70560
X71560
X72560
X73560
X74560
X75560
X76560
X76060Y57800
X75060
X74060
X73060
X72060
X71060
X70060
X69060
X68060
X67060
X66060
X65060
X64060
X63060
X62060
X61060
Y47800
Y45800
Y43800
X62060
X63060
X64060
X65060
X66060
X67060
X68060
X67560Y42800
X66560
X65560
X73560
X74560
X75560
X76560
X76060Y43800
X75060
X74060
X73060
X60060
X59060
X58060
X57060
X57560Y44800
X58560
X59560
X60560
X60060Y45800
X59060
X58060
X57060
X56060
X55060
X54060
X53060
X52060
X52560Y46800
X53560
X54560
X55560
X56560
X57560
X58560
X59560
X60560
X60060Y47800
X59060
X58060
X57060
X56060
X55060
X54060
X53060
X52060
X51060
X50060
Y49800
X51060
X52060
X53060
X54060
X55060
X56060
X57060
X58060
X59060
X60060
X60560Y50800
X59560
X58560
X57560
X56560
X55560
X54560
X53560
X52560
X51560
X52060Y51800
X53060
X54060
X55060
X56060
X57060
X58060
X59060
X60060
X60560Y52800
X59560
X58560
X57560
X56560
X55560
X54560
X53560
X52560
X51560
X50560
X49560
X48560
X47560
X46560
X47060Y53800
X48060
X49060
X50060
X51060
X52060
X53060
X54060
X55060
X56060
X57060
X58060
X59060
X60060
X60560Y54800
X59560
X58560
X57560
X56560
X55560
X54560
X53560
X52560
X51560
X50560
X51060Y55800
X52060
X53060
X54060
X55060
X56060
X57060
X58060
X59060
X60060
X60560Y56800
X59560
X58560
X57560
X56560
X55560
X54560
X53560
X52560
X51560
X50560
X51060Y57800
X52060
X53060
X54060
X55060
X56060
X57060
X58060
X59060
X60060
X47060
X47560Y56800
X46560
X47060Y55800
X46060
X46560Y54800
X47560
X46060Y53800
Y51800
X46560Y50800
X47060Y49800
X48060
X48560Y48800
X47560
X46560
X47060Y47800
X48060
X46060
Y49800
Y45800
Y43800
X47060
X48060
X49060
X50060
X51060
X52060
X53060
X54060
X54560Y44800
X55560
X56560
X57560Y42800
X58560
X59560
X60560
X53560
X52560
X51560
X50560
X49560
X48560
X47560
X46560
X51560Y44800
X52560
X53560
X51560Y46800
X43060
Y45800
Y44800
X43560Y42800
X44560
X42560
X41560
X40560
X39560
X38560
X37560
X36560
X35560
X34560
X33560
X32560
X31560
X30560
X39060Y45800
Y51800
X43060
X29560Y42800
X28560
X27560
X26560
X25560
X24560
X23560
X22560
X21560
X20560
X19560
X18560
X17560
X16560
X15560
X46560Y58800
X47560
X48560
X49560
X50560
X51560
X52560
X53560
X54560
X55560
X56560
X57560
X58560
X59560
X60560
X61560
X62560
X63560
X64560
X65560
X66560
X67560
X68560
X69560
X70560
X71560
X72560
X73560
X74560
X75560
X76560
X77560
X78560
X79560
X80560
X81560
X82560
X83560
X84560
X85560
X86560
X88560
T05
X32495Y1600
Y2600
Y3600
Y4600
Y5600
X33495
Y4600
X34495
Y3600
X35495
X36495
Y2600
Y1600
X35495
Y2600
X34495
X33495
Y1600
X34495
X33495Y3600
X34495Y5600
X35495
X36495
Y4600
X35495
X41045
Y5600
X42045
Y4600
X43045
Y3600
X44045
X45045
Y2600
Y1600
X44045
Y2600
X43045
X42045
X41045
Y1600
X42045
X43045
X42045Y3600
X41045
X43045Y5600
X44045
X45045
Y4600
X44045
T06
X955Y4507
X948Y6370
X4825Y6392
X5717Y6370
X5725Y4507
X4832Y4530
X8593Y3515
X11532
X11527Y7385
X8587
X14395Y6392
X14403Y4530
X60245Y8500
X65695
X71145
X78545Y9100
Y10100
Y11100
X78445Y20800
Y21800
Y22800
X76037Y18650
X72445Y19200
X72945Y20500
X69374Y20429
X68885Y19650
X65795Y20400
X61795Y20800
Y19800
Y21850
X45285Y25790
Y17429
X40757Y20401
Y12101
X30845Y14739
Y23039
X11532Y37115
X8593
X5725Y38108
X4832Y38130
X4825Y39992
X5717Y39970
X8587Y40985
X11527
X948Y39970
X955Y38108
X14403Y38130
X14395Y39992
X30845Y40200
Y31900
X40757Y29262
Y37562
X45285Y34590
X60510Y37250
X59860Y38200
X60010Y28100
X60660Y27150
X65060Y30250
X67185Y30325
X67160Y31250
Y32100
X69560Y31450
X73210Y29950
X73060Y40050
X69460Y41550
X67010Y41350
Y42200
X67035Y40425
X64910Y40350
X45275Y42900
T07
X34476Y11208
X35613Y11221
X36875Y11259
X38137Y11297
X38157Y19577
X36895Y19539
X35633Y19501
X34495Y19488
X34496Y28349
X35633Y28362
X36895Y28400
X38157Y28438
Y36738
X36895Y36700
X35633Y36662
X34496Y36649
T08
X80460Y45950
X83260
Y51350
X80460
X82135Y55010
Y57810
X49070
Y55010
X50300Y51350
X47500
X47510Y45950
X50310
X42460
X39660
Y51350
X42460
X41030Y54860
Y57660
X7960Y57670
Y54870
X6700Y51350
X9500
Y45950
X6700
T09
X2100Y2200
X55660
X87410Y2300
Y42900
Y57700
X45450
X55660Y42900
X2100
Y57700
M30
