G04*
G04 #@! TF.GenerationSoftware,Altium Limited,Altium Designer,21.1.1 (26)*
G04*
G04 Layer_Color=16711935*
%FSLAX25Y25*%
%MOIN*%
G70*
G04*
G04 #@! TF.SameCoordinates,B83F5570-EEF7-471F-9EF2-83D00333E22E*
G04*
G04*
G04 #@! TF.FilePolarity,Positive*
G04*
G01*
G75*
%ADD78C,0.00400*%
%ADD79C,0.00100*%
%ADD80C,0.00394*%
D78*
X698300Y285450D02*
X697949Y286298D01*
X697100Y286650D01*
X696251Y286298D01*
X695900Y285450D01*
X696800Y386450D02*
X696449Y387298D01*
X695600Y387650D01*
X694752Y387298D01*
X694400Y386450D01*
X705950Y285450D02*
Y305550D01*
X688250Y285450D02*
X705950D01*
X688250D02*
Y305550D01*
X705950D01*
X704450Y386450D02*
Y406550D01*
X686750Y386450D02*
X704450D01*
X686750D02*
Y406550D01*
X704450D01*
D79*
X684200Y285943D02*
X688250D01*
X684200D02*
Y287143D01*
X688250D01*
Y285943D02*
Y287143D01*
X684200Y288502D02*
X688250D01*
X684200D02*
Y289702D01*
X688250D01*
Y288502D02*
Y289702D01*
X684200Y291061D02*
X688250D01*
X684200D02*
Y292261D01*
X688250D01*
Y291061D02*
Y292261D01*
X684200Y293620D02*
X688250D01*
X684200D02*
Y294820D01*
X688250D01*
Y293620D02*
Y294820D01*
X684200Y296180D02*
X688250D01*
X684200D02*
Y297379D01*
X688250D01*
Y296180D02*
Y297379D01*
X684200Y298739D02*
X688250D01*
X684200D02*
Y299939D01*
X688250D01*
Y298739D02*
Y299939D01*
X684200Y301298D02*
X688250D01*
X684200D02*
Y302498D01*
X688250D01*
Y301298D02*
Y302498D01*
X684200Y303857D02*
X688250D01*
X684200D02*
Y305057D01*
X688250D01*
Y303857D02*
Y305057D01*
X705950D02*
X710000D01*
Y303857D02*
Y305057D01*
X705950Y303857D02*
X710000D01*
X705950D02*
Y305057D01*
Y302498D02*
X710000D01*
Y301298D02*
Y302498D01*
X705950Y301298D02*
X710000D01*
X705950D02*
Y302498D01*
Y299939D02*
X710000D01*
Y298739D02*
Y299939D01*
X705950Y298739D02*
X710000D01*
X705950D02*
Y299939D01*
Y297379D02*
X710000D01*
Y296180D02*
Y297379D01*
X705950Y296180D02*
X710000D01*
X705950D02*
Y297379D01*
Y294820D02*
X710000D01*
Y293620D02*
Y294820D01*
X705950Y293620D02*
X710000D01*
X705950D02*
Y294820D01*
Y292261D02*
X710000D01*
Y291061D02*
Y292261D01*
X705950Y291061D02*
X710000D01*
X705950D02*
Y292261D01*
Y289702D02*
X710000D01*
Y288502D02*
Y289702D01*
X705950Y288502D02*
X710000D01*
X705950D02*
Y289702D01*
Y287143D02*
X710000D01*
Y285943D02*
Y287143D01*
X705950Y285943D02*
X710000D01*
X705950D02*
Y287143D01*
X682700Y386943D02*
X686750D01*
X682700D02*
Y388143D01*
X686750D01*
Y386943D02*
Y388143D01*
X682700Y389502D02*
X686750D01*
X682700D02*
Y390702D01*
X686750D01*
Y389502D02*
Y390702D01*
X682700Y392061D02*
X686750D01*
X682700D02*
Y393261D01*
X686750D01*
Y392061D02*
Y393261D01*
X682700Y394620D02*
X686750D01*
X682700D02*
Y395820D01*
X686750D01*
Y394620D02*
Y395820D01*
X682700Y397180D02*
X686750D01*
X682700D02*
Y398379D01*
X686750D01*
Y397180D02*
Y398379D01*
X682700Y399739D02*
X686750D01*
X682700D02*
Y400939D01*
X686750D01*
Y399739D02*
Y400939D01*
X682700Y402298D02*
X686750D01*
X682700D02*
Y403498D01*
X686750D01*
Y402298D02*
Y403498D01*
X682700Y404857D02*
X686750D01*
X682700D02*
Y406057D01*
X686750D01*
Y404857D02*
Y406057D01*
X704450D02*
X708500D01*
Y404857D02*
Y406057D01*
X704450Y404857D02*
X708500D01*
X704450D02*
Y406057D01*
Y403498D02*
X708500D01*
Y402298D02*
Y403498D01*
X704450Y402298D02*
X708500D01*
X704450D02*
Y403498D01*
Y400939D02*
X708500D01*
Y399739D02*
Y400939D01*
X704450Y399739D02*
X708500D01*
X704450D02*
Y400939D01*
Y398379D02*
X708500D01*
Y397180D02*
Y398379D01*
X704450Y397180D02*
X708500D01*
X704450D02*
Y398379D01*
Y395820D02*
X708500D01*
Y394620D02*
Y395820D01*
X704450Y394620D02*
X708500D01*
X704450D02*
Y395820D01*
Y393261D02*
X708500D01*
Y392061D02*
Y393261D01*
X704450Y392061D02*
X708500D01*
X704450D02*
Y393261D01*
Y390702D02*
X708500D01*
Y389502D02*
Y390702D01*
X704450Y389502D02*
X708500D01*
X704450D02*
Y390702D01*
Y388143D02*
X708500D01*
Y386943D02*
Y388143D01*
X704450Y386943D02*
X708500D01*
X704450D02*
Y388143D01*
D80*
X391627Y377028D02*
Y417972D01*
X351863Y377028D02*
Y417972D01*
Y377028D02*
X391627D01*
X351863Y417972D02*
X391627D01*
Y294028D02*
Y334972D01*
X351863Y294028D02*
Y334972D01*
Y294028D02*
X391627D01*
X351863Y334972D02*
X391627D01*
X391624Y122420D02*
Y163365D01*
X351860Y122420D02*
Y163365D01*
Y122420D02*
X391624D01*
X351860Y163365D02*
X391624D01*
Y205420D02*
Y246365D01*
X351860Y205420D02*
Y246365D01*
Y205420D02*
X391624D01*
X351860Y246365D02*
X391624D01*
X799155Y321370D02*
X806045D01*
X799155Y317630D02*
X806045D01*
X799155D02*
Y321370D01*
X806045Y317630D02*
Y321370D01*
X760104Y181370D02*
X766796D01*
X760104Y177630D02*
X766796D01*
X760104D02*
Y181370D01*
X766796Y177630D02*
Y181370D01*
X760005Y170630D02*
X766895D01*
X760005Y174370D02*
X766895D01*
Y170630D02*
Y174370D01*
X760005Y170630D02*
Y174370D01*
Y163130D02*
X766895D01*
X760005Y166870D02*
X766895D01*
Y163130D02*
Y166870D01*
X760005Y163130D02*
Y166870D01*
X760005Y31630D02*
Y35370D01*
X766895Y31630D02*
Y35370D01*
X760005D02*
X766895D01*
X760005Y31630D02*
X766895D01*
X760104Y50870D02*
X766796D01*
X760104Y47130D02*
X766796D01*
X760104D02*
Y50870D01*
X766796Y47130D02*
Y50870D01*
X760005Y39630D02*
X766895D01*
X760005Y43370D02*
X766895D01*
Y39630D02*
Y43370D01*
X760005Y39630D02*
Y43370D01*
X759103Y232870D02*
X765797D01*
X759103Y229130D02*
X765797D01*
X759103D02*
Y232870D01*
X765797Y229130D02*
Y232870D01*
X759005Y213630D02*
X765895D01*
X759005Y217370D02*
X765895D01*
Y213630D02*
Y217370D01*
X759005Y213630D02*
Y217370D01*
Y221130D02*
X765895D01*
X759005Y224870D02*
X765895D01*
Y221130D02*
Y224870D01*
X759005Y221130D02*
Y224870D01*
X760005Y98630D02*
X766895D01*
X760005Y102370D02*
X766895D01*
Y98630D02*
Y102370D01*
X760005Y98630D02*
Y102370D01*
Y90630D02*
X766895D01*
X760005Y94370D02*
X766895D01*
Y90630D02*
Y94370D01*
X760005Y90630D02*
Y94370D01*
X760104Y109870D02*
X766796D01*
X760104Y106130D02*
X766796D01*
X760104D02*
Y109870D01*
X766796Y106130D02*
Y109870D01*
X324005Y281130D02*
X330895D01*
X324005Y284870D02*
X330895D01*
Y281130D02*
Y284870D01*
X324005Y281130D02*
Y284870D01*
X437604Y391130D02*
X444297D01*
X437604Y394870D02*
X444297D01*
Y391130D02*
Y394870D01*
X437604Y391130D02*
Y394870D01*
X437505Y381880D02*
X444395D01*
X437505Y385620D02*
X444395D01*
Y381880D02*
Y385620D01*
X437505Y381880D02*
Y385620D01*
X324005Y364130D02*
X330895D01*
X324005Y367870D02*
X330895D01*
Y364130D02*
Y367870D01*
X324005Y364130D02*
Y367870D01*
X437505Y298880D02*
X444395D01*
X437505Y302620D02*
X444395D01*
Y298880D02*
Y302620D01*
X437505Y298880D02*
Y302620D01*
X437604Y308130D02*
X444297D01*
X437604Y311870D02*
X444297D01*
Y308130D02*
Y311870D01*
X437604Y308130D02*
Y311870D01*
X437601Y219522D02*
X444293D01*
X437601Y223262D02*
X444293D01*
Y219522D02*
Y223262D01*
X437601Y219522D02*
Y223262D01*
X437502Y210272D02*
X444392D01*
X437502Y214012D02*
X444392D01*
Y210272D02*
Y214012D01*
X437502Y210272D02*
Y214012D01*
X324002Y192522D02*
X330892D01*
X324002Y196262D02*
X330892D01*
Y192522D02*
Y196262D01*
X324002Y192522D02*
Y196262D01*
X437502Y127272D02*
X444392D01*
X437502Y131012D02*
X444392D01*
Y127272D02*
Y131012D01*
X437502Y127272D02*
Y131012D01*
X437601Y136522D02*
X444293D01*
X437601Y140262D02*
X444293D01*
Y136522D02*
Y140262D01*
X437601Y136522D02*
Y140262D01*
X592655Y420630D02*
X599545D01*
X592655Y424370D02*
X599545D01*
Y420630D02*
Y424370D01*
X592655Y420630D02*
Y424370D01*
X797655Y422370D02*
X804545D01*
X797655Y418630D02*
X804545D01*
X797655D02*
Y422370D01*
X804545Y418630D02*
Y422370D01*
X688437Y181370D02*
X695130D01*
X688437Y177630D02*
X695130D01*
X688437D02*
Y181370D01*
X695130Y177630D02*
Y181370D01*
X688338Y163130D02*
X695228D01*
X688338Y166870D02*
X695228D01*
Y163130D02*
Y166870D01*
X688338Y163130D02*
Y166870D01*
Y170630D02*
X695228D01*
X688338Y174370D02*
X695228D01*
Y170630D02*
Y174370D01*
X688338Y170630D02*
Y174370D01*
X594155Y319630D02*
X601045D01*
X594155Y323370D02*
X601045D01*
Y319630D02*
Y323370D01*
X594155Y319630D02*
Y323370D01*
X651604Y232870D02*
X658296D01*
X651604Y229130D02*
X658296D01*
X651604D02*
Y232870D01*
X658296Y229130D02*
Y232870D01*
X651505Y213630D02*
X658395D01*
X651505Y217370D02*
X658395D01*
Y213630D02*
Y217370D01*
X651505Y213630D02*
Y217370D01*
Y221130D02*
X658395D01*
X651505Y224870D02*
X658395D01*
Y221130D02*
Y224870D01*
X651505Y221130D02*
Y224870D01*
X687437Y232870D02*
X694130D01*
X687437Y229130D02*
X694130D01*
X687437D02*
Y232870D01*
X694130Y229130D02*
Y232870D01*
X687338Y213630D02*
X694228D01*
X687338Y217370D02*
X694228D01*
Y213630D02*
Y217370D01*
X687338Y213630D02*
Y217370D01*
Y221130D02*
X694228D01*
X687338Y224870D02*
X694228D01*
Y221130D02*
Y224870D01*
X687338Y221130D02*
Y224870D01*
X652603Y181370D02*
X659297D01*
X652603Y177630D02*
X659297D01*
X652603D02*
Y181370D01*
X659297Y177630D02*
Y181370D01*
X652505Y163130D02*
X659395D01*
X652505Y166870D02*
X659395D01*
Y163130D02*
Y166870D01*
X652505Y163130D02*
Y166870D01*
Y170630D02*
X659395D01*
X652505Y174370D02*
X659395D01*
Y170630D02*
Y174370D01*
X652505Y170630D02*
Y174370D01*
X324002Y109522D02*
X330892D01*
X324002Y113262D02*
X330892D01*
Y109522D02*
Y113262D01*
X324002Y109522D02*
Y113262D01*
X651103Y109870D02*
X657796D01*
X651103Y106130D02*
X657796D01*
X651103D02*
Y109870D01*
X657796Y106130D02*
Y109870D01*
X651005Y90630D02*
X657895D01*
X651005Y94370D02*
X657895D01*
Y90630D02*
Y94370D01*
X651005Y90630D02*
Y94370D01*
Y98630D02*
X657895D01*
X651005Y102370D02*
X657895D01*
Y98630D02*
Y102370D01*
X651005Y98630D02*
Y102370D01*
X596603Y109870D02*
X603297D01*
X596603Y106130D02*
X603297D01*
X596603D02*
Y109870D01*
X603297Y106130D02*
Y109870D01*
X596505Y90630D02*
X603395D01*
X596505Y94370D02*
X603395D01*
Y90630D02*
Y94370D01*
X596505Y90630D02*
Y94370D01*
Y98630D02*
X603395D01*
X596505Y102370D02*
X603395D01*
Y98630D02*
Y102370D01*
X596505Y98630D02*
Y102370D01*
X651005Y39630D02*
X657895D01*
X651005Y43370D02*
X657895D01*
Y39630D02*
Y43370D01*
X651005Y39630D02*
Y43370D01*
X651103Y50870D02*
X657796D01*
X651103Y47130D02*
X657796D01*
X651103D02*
Y50870D01*
X657796Y47130D02*
Y50870D01*
X651005Y31630D02*
Y35370D01*
X657895Y31630D02*
Y35370D01*
X651005D02*
X657895D01*
X651005Y31630D02*
X657895D01*
X596603Y50870D02*
X603297D01*
X596603Y47130D02*
X603297D01*
X596603D02*
Y50870D01*
X603297Y47130D02*
Y50870D01*
X596505Y31630D02*
Y35370D01*
X603395Y31630D02*
Y35370D01*
X596505D02*
X603395D01*
X596505Y31630D02*
X603395D01*
X596505Y39630D02*
X603395D01*
X596505Y43370D02*
X603395D01*
Y39630D02*
Y43370D01*
X596505Y39630D02*
Y43370D01*
X705505Y98630D02*
X712395D01*
X705505Y102370D02*
X712395D01*
Y98630D02*
Y102370D01*
X705505Y98630D02*
Y102370D01*
X705604Y109870D02*
X712296D01*
X705604Y106130D02*
X712296D01*
X705604D02*
Y109870D01*
X712296Y106130D02*
Y109870D01*
X723172Y213630D02*
X730061D01*
X723172Y217370D02*
X730061D01*
Y213630D02*
Y217370D01*
X723172Y213630D02*
Y217370D01*
Y221130D02*
X730061D01*
X723172Y224870D02*
X730061D01*
Y221130D02*
Y224870D01*
X723172Y221130D02*
Y224870D01*
X723270Y232870D02*
X729963D01*
X723270Y229130D02*
X729963D01*
X723270D02*
Y232870D01*
X729963Y229130D02*
Y232870D01*
X705505Y90630D02*
X712395D01*
X705505Y94370D02*
X712395D01*
Y90630D02*
Y94370D01*
X705505Y90630D02*
Y94370D01*
X724270Y181370D02*
X730963D01*
X724270Y177630D02*
X730963D01*
X724270D02*
Y181370D01*
X730963Y177630D02*
Y181370D01*
X724172Y163130D02*
X731062D01*
X724172Y166870D02*
X731062D01*
Y163130D02*
Y166870D01*
X724172Y163130D02*
Y166870D01*
Y170630D02*
X731062D01*
X724172Y174370D02*
X731062D01*
Y170630D02*
Y174370D01*
X724172Y170630D02*
Y174370D01*
X705505Y39630D02*
X712395D01*
X705505Y43370D02*
X712395D01*
Y39630D02*
Y43370D01*
X705505Y39630D02*
Y43370D01*
Y31630D02*
Y35370D01*
X712395Y31630D02*
Y35370D01*
X705505D02*
X712395D01*
X705505Y31630D02*
X712395D01*
X705604Y50870D02*
X712296D01*
X705604Y47130D02*
X712296D01*
X705604D02*
Y50870D01*
X712296Y47130D02*
Y50870D01*
M02*
