G04*
G04 #@! TF.GenerationSoftware,Altium Limited,Altium Designer,21.1.1 (26)*
G04*
G04 Layer_Color=65535*
%FSLAX25Y25*%
%MOIN*%
G70*
G04*
G04 #@! TF.SameCoordinates,B83F5570-EEF7-471F-9EF2-83D00333E22E*
G04*
G04*
G04 #@! TF.FilePolarity,Positive*
G04*
G01*
G75*
%ADD10C,0.00500*%
%ADD11C,0.00984*%
%ADD12C,0.01000*%
%ADD13C,0.00600*%
%ADD14C,0.00787*%
%ADD15C,0.00200*%
%ADD16R,0.56500X0.28200*%
D10*
X447950Y404800D02*
X447664Y405775D01*
X446896Y406440D01*
X445890Y406584D01*
X444966Y406162D01*
X444417Y405308D01*
Y404292D01*
X444966Y403438D01*
X445890Y403016D01*
X446896Y403160D01*
X447664Y403825D01*
X447950Y404800D01*
Y233800D02*
X447664Y234775D01*
X446896Y235440D01*
X445890Y235584D01*
X444966Y235162D01*
X444417Y234308D01*
Y233292D01*
X444966Y232438D01*
X445890Y232016D01*
X446896Y232160D01*
X447664Y232825D01*
X447950Y233800D01*
Y321800D02*
X447664Y322775D01*
X446896Y323440D01*
X445890Y323584D01*
X444966Y323162D01*
X444417Y322308D01*
Y321292D01*
X444966Y320438D01*
X445890Y320016D01*
X446896Y320160D01*
X447664Y320825D01*
X447950Y321800D01*
Y150192D02*
X447664Y151167D01*
X446896Y151832D01*
X445890Y151977D01*
X444966Y151555D01*
X444417Y150700D01*
Y149684D01*
X444966Y148830D01*
X445890Y148408D01*
X446896Y148552D01*
X447664Y149217D01*
X447950Y150192D01*
X605272Y133200D02*
X604986Y134175D01*
X604218Y134840D01*
X603213Y134984D01*
X602289Y134562D01*
X601740Y133708D01*
Y132692D01*
X602289Y131838D01*
X603213Y131416D01*
X604218Y131560D01*
X604986Y132225D01*
X605272Y133200D01*
X659772D02*
X659486Y134175D01*
X658718Y134840D01*
X657713Y134984D01*
X656789Y134562D01*
X656240Y133708D01*
Y132692D01*
X656789Y131838D01*
X657713Y131416D01*
X658718Y131560D01*
X659486Y132225D01*
X659772Y133200D01*
X714272D02*
X713986Y134175D01*
X713218Y134840D01*
X712213Y134984D01*
X711289Y134562D01*
X710740Y133708D01*
Y132692D01*
X711289Y131838D01*
X712213Y131416D01*
X713218Y131560D01*
X713986Y132225D01*
X714272Y133200D01*
X768772D02*
X768486Y134175D01*
X767718Y134840D01*
X766713Y134984D01*
X765789Y134562D01*
X765239Y133708D01*
Y132692D01*
X765789Y131838D01*
X766713Y131416D01*
X767718Y131560D01*
X768486Y132225D01*
X768772Y133200D01*
X605272Y74700D02*
X604986Y75675D01*
X604218Y76340D01*
X603213Y76484D01*
X602289Y76063D01*
X601740Y75208D01*
Y74192D01*
X602289Y73338D01*
X603213Y72916D01*
X604218Y73060D01*
X604986Y73725D01*
X605272Y74700D01*
X659772D02*
X659486Y75675D01*
X658718Y76340D01*
X657713Y76484D01*
X656789Y76063D01*
X656240Y75208D01*
Y74192D01*
X656789Y73338D01*
X657713Y72916D01*
X658718Y73060D01*
X659486Y73725D01*
X659772Y74700D01*
X714272Y74200D02*
X713986Y75175D01*
X713218Y75840D01*
X712213Y75984D01*
X711289Y75563D01*
X710740Y74708D01*
Y73692D01*
X711289Y72838D01*
X712213Y72416D01*
X713218Y72560D01*
X713986Y73225D01*
X714272Y74200D01*
X768772D02*
X768486Y75175D01*
X767718Y75840D01*
X766713Y75984D01*
X765789Y75563D01*
X765239Y74708D01*
Y73692D01*
X765789Y72838D01*
X766713Y72416D01*
X767718Y72560D01*
X768486Y73225D01*
X768772Y74200D01*
X435947Y419600D02*
Y421000D01*
X449947D01*
Y416100D02*
Y421000D01*
Y402000D02*
Y406900D01*
X435947Y402000D02*
X449947D01*
X435947D02*
Y403300D01*
Y409700D02*
Y413300D01*
Y248600D02*
Y250000D01*
X449947D01*
Y245100D02*
Y250000D01*
Y231000D02*
Y235900D01*
X435947Y231000D02*
X449947D01*
X435947D02*
Y232300D01*
Y238700D02*
Y242300D01*
Y336600D02*
Y338000D01*
X449947D01*
Y333100D02*
Y338000D01*
Y319000D02*
Y323900D01*
X435947Y319000D02*
X449947D01*
X435947D02*
Y320300D01*
Y326700D02*
Y330300D01*
Y164992D02*
Y166392D01*
X449947D01*
Y161492D02*
Y166392D01*
Y147392D02*
Y152292D01*
X435947Y147392D02*
X449947D01*
X435947D02*
Y148692D01*
Y155092D02*
Y158692D01*
X613669Y117000D02*
Y118400D01*
X599669Y117000D02*
X613669D01*
X599669D02*
Y121900D01*
Y131100D02*
Y136000D01*
X613669D01*
Y134700D02*
Y136000D01*
Y124700D02*
Y128300D01*
X668169Y117000D02*
Y118400D01*
X654169Y117000D02*
X668169D01*
X654169D02*
Y121900D01*
Y131100D02*
Y136000D01*
X668169D01*
Y134700D02*
Y136000D01*
Y124700D02*
Y128300D01*
X722669Y117000D02*
Y118400D01*
X708669Y117000D02*
X722669D01*
X708669D02*
Y121900D01*
Y131100D02*
Y136000D01*
X722669D01*
Y134700D02*
Y136000D01*
Y124700D02*
Y128300D01*
X777169Y117000D02*
Y118400D01*
X763169Y117000D02*
X777169D01*
X763169D02*
Y121900D01*
Y131100D02*
Y136000D01*
X777169D01*
Y134700D02*
Y136000D01*
Y124700D02*
Y128300D01*
X613669Y58500D02*
Y59900D01*
X599669Y58500D02*
X613669D01*
X599669D02*
Y63400D01*
Y72600D02*
Y77500D01*
X613669D01*
Y76200D02*
Y77500D01*
Y66200D02*
Y69800D01*
X668169Y58500D02*
Y59900D01*
X654169Y58500D02*
X668169D01*
X654169D02*
Y63400D01*
Y72600D02*
Y77500D01*
X668169D01*
Y76200D02*
Y77500D01*
Y66200D02*
Y69800D01*
X722669Y58000D02*
Y59400D01*
X708669Y58000D02*
X722669D01*
X708669D02*
Y62900D01*
Y72100D02*
Y77000D01*
X722669D01*
Y75700D02*
Y77000D01*
Y65700D02*
Y69300D01*
X777169Y58000D02*
Y59400D01*
X763169Y58000D02*
X777169D01*
X763169D02*
Y62900D01*
Y72100D02*
Y77000D01*
X777169D01*
Y75700D02*
Y77000D01*
Y65700D02*
Y69300D01*
X493599Y68099D02*
X491600D01*
Y66600D01*
X492600D01*
X491600D01*
Y65100D01*
X496099D02*
X495099D01*
X494599Y65600D01*
Y66600D01*
X495099Y67099D01*
X496099D01*
X496598Y66600D01*
Y66100D01*
X494599D01*
X497598Y68099D02*
Y65100D01*
X499098D01*
X499597Y65600D01*
Y66100D01*
Y66600D01*
X499098Y67099D01*
X497598D01*
X505595Y65100D02*
X503596D01*
X505595Y67099D01*
Y67599D01*
X505096Y68099D01*
X504096D01*
X503596Y67599D01*
X506595D02*
X507095Y68099D01*
X508095D01*
X508595Y67599D01*
Y65600D01*
X508095Y65100D01*
X507095D01*
X506595Y65600D01*
Y67599D01*
X511593Y65100D02*
X509594D01*
X511593Y67099D01*
Y67599D01*
X511094Y68099D01*
X510094D01*
X509594Y67599D01*
X512593Y65100D02*
X513593D01*
X513093D01*
Y68099D01*
X512593Y67599D01*
X474399Y72200D02*
X472400D01*
X474399Y74199D01*
Y74699D01*
X473900Y75199D01*
X472900D01*
X472400Y74699D01*
X475399D02*
X475899Y75199D01*
X476898D01*
X477398Y74699D01*
Y72700D01*
X476898Y72200D01*
X475899D01*
X475399Y72700D01*
Y74699D01*
X478398D02*
X478898Y75199D01*
X479898D01*
X480397Y74699D01*
Y72700D01*
X479898Y72200D01*
X478898D01*
X478398Y72700D01*
Y74699D01*
X483396D02*
X482897Y75199D01*
X481897D01*
X481397Y74699D01*
Y72700D01*
X481897Y72200D01*
X482897D01*
X483396Y72700D01*
Y73699D01*
X482397D01*
X484396Y75199D02*
Y72200D01*
X485896D01*
X486396Y72700D01*
Y73200D01*
Y73699D01*
X485896Y74199D01*
X484396D01*
X487395Y71200D02*
Y74199D01*
X488895D01*
X489395Y73699D01*
Y72700D01*
X488895Y72200D01*
X487395D01*
X490394D02*
X491894D01*
X492393Y72700D01*
X491894Y73200D01*
X490894D01*
X490394Y73699D01*
X490894Y74199D01*
X492393D01*
X496392Y75199D02*
X498392D01*
X497392D01*
Y72200D01*
X499391Y75199D02*
X501391Y72200D01*
Y75199D02*
X499391Y72200D01*
X505389D02*
Y75199D01*
X506889D01*
X507389Y74699D01*
Y73699D01*
X506889Y73200D01*
X505389D01*
X508888Y72200D02*
X509888D01*
X510388Y72700D01*
Y73699D01*
X509888Y74199D01*
X508888D01*
X508388Y73699D01*
Y72700D01*
X508888Y72200D01*
X511387Y74199D02*
Y72700D01*
X511887Y72200D01*
X512387Y72700D01*
X512887Y72200D01*
X513387Y72700D01*
Y74199D01*
X515886Y72200D02*
X514886D01*
X514386Y72700D01*
Y73699D01*
X514886Y74199D01*
X515886D01*
X516386Y73699D01*
Y73200D01*
X514386D01*
X517385Y74199D02*
Y72200D01*
Y73200D01*
X517885Y73699D01*
X518385Y74199D01*
X518885D01*
X523384Y75199D02*
Y72200D01*
X524883D01*
X525383Y72700D01*
Y73200D01*
X524883Y73699D01*
X523384D01*
X524883D01*
X525383Y74199D01*
Y74699D01*
X524883Y75199D01*
X523384D01*
X526882Y72200D02*
X527882D01*
X528382Y72700D01*
Y73699D01*
X527882Y74199D01*
X526882D01*
X526382Y73699D01*
Y72700D01*
X526882Y72200D01*
X529881Y74199D02*
X530881D01*
X531381Y73699D01*
Y72200D01*
X529881D01*
X529382Y72700D01*
X529881Y73200D01*
X531381D01*
X532381Y74199D02*
Y72200D01*
Y73200D01*
X532880Y73699D01*
X533380Y74199D01*
X533880D01*
X537379Y75199D02*
Y72200D01*
X535880D01*
X535380Y72700D01*
Y73699D01*
X535880Y74199D01*
X537379D01*
X541378Y75199D02*
Y73200D01*
X542377Y72200D01*
X543377Y73200D01*
Y75199D01*
X544377Y72200D02*
X545376D01*
X544877D01*
Y75199D01*
X544377Y74699D01*
D11*
X408064Y380079D02*
X407326Y380505D01*
Y379653D01*
X408064Y380079D01*
Y297079D02*
X407326Y297505D01*
Y296653D01*
X408064Y297079D01*
X408061Y125471D02*
X407323Y125897D01*
Y125045D01*
X408061Y125471D01*
Y208471D02*
X407323Y208897D01*
Y208045D01*
X408061Y208471D01*
D12*
X683381Y323400D02*
X683079Y324329D01*
X682289Y324904D01*
X681311D01*
X680521Y324329D01*
X680219Y323400D01*
X680521Y322471D01*
X681311Y321896D01*
X682289D01*
X683079Y322471D01*
X683381Y323400D01*
Y424100D02*
X683079Y425029D01*
X682289Y425604D01*
X681311D01*
X680521Y425029D01*
X680219Y424100D01*
X680521Y423171D01*
X681311Y422596D01*
X682289D01*
X683079Y423171D01*
X683381Y424100D01*
X334181Y168900D02*
X333879Y169829D01*
X333089Y170404D01*
X332111D01*
X331321Y169829D01*
X331019Y168900D01*
X331321Y167971D01*
X332111Y167396D01*
X333089D01*
X333879Y167971D01*
X334181Y168900D01*
X334481Y251800D02*
X334179Y252729D01*
X333389Y253304D01*
X332411D01*
X331621Y252729D01*
X331319Y251800D01*
X331621Y250871D01*
X332411Y250296D01*
X333389D01*
X334179Y250871D01*
X334481Y251800D01*
Y340000D02*
X334179Y340929D01*
X333389Y341504D01*
X332411D01*
X331621Y340929D01*
X331319Y340000D01*
X331621Y339071D01*
X332411Y338496D01*
X333389D01*
X334179Y339071D01*
X334481Y340000D01*
X334181Y423600D02*
X333879Y424529D01*
X333089Y425104D01*
X332111D01*
X331321Y424529D01*
X331019Y423600D01*
X331321Y422671D01*
X332111Y422096D01*
X333089D01*
X333879Y422671D01*
X334181Y423600D01*
X617700Y429400D02*
X619033D01*
X618366D01*
Y433399D01*
X617700Y432732D01*
X623698Y429400D02*
X621032D01*
X623698Y432066D01*
Y432732D01*
X623032Y433399D01*
X621699D01*
X621032Y432732D01*
X759675Y191673D02*
X760675Y192673D01*
X762674D01*
X763674Y191673D01*
Y190674D01*
X762674Y189674D01*
X763674Y188674D01*
Y187675D01*
X762674Y186675D01*
X760675D01*
X759675Y187675D01*
Y188674D01*
X760675Y189674D01*
X759675Y190674D01*
Y191673D01*
X760675Y189674D02*
X762674D01*
X724108Y192673D02*
X728107D01*
Y191673D01*
X724108Y187675D01*
Y186675D01*
X692540Y192673D02*
X690541Y191673D01*
X688542Y189674D01*
Y187675D01*
X689541Y186675D01*
X691541D01*
X692540Y187675D01*
Y188674D01*
X691541Y189674D01*
X688542D01*
X656974Y192673D02*
X652975D01*
Y189674D01*
X654974Y190674D01*
X655974D01*
X656974Y189674D01*
Y187675D01*
X655974Y186675D01*
X653975D01*
X652975Y187675D01*
X653975Y238525D02*
X655974D01*
X654974D01*
Y244523D01*
X653975Y243523D01*
X691874Y238525D02*
X687875D01*
X691874Y242524D01*
Y243523D01*
X690874Y244523D01*
X688875D01*
X687875Y243523D01*
X723775D02*
X724775Y244523D01*
X726774D01*
X727774Y243523D01*
Y242524D01*
X726774Y241524D01*
X725774D01*
X726774D01*
X727774Y240524D01*
Y239525D01*
X726774Y238525D01*
X724775D01*
X723775Y239525D01*
X762674Y238525D02*
Y244523D01*
X759675Y241524D01*
X763674D01*
X613899Y86548D02*
X609900D01*
Y83549D01*
X611899Y84549D01*
X612899D01*
X613899Y83549D01*
Y81550D01*
X612899Y80550D01*
X610900D01*
X609900Y81550D01*
X668424Y86548D02*
X666424Y85548D01*
X664425Y83549D01*
Y81550D01*
X665425Y80550D01*
X667424D01*
X668424Y81550D01*
Y82549D01*
X667424Y83549D01*
X664425D01*
X718950Y86548D02*
X722949D01*
Y85548D01*
X718950Y81550D01*
Y80550D01*
X773475Y85548D02*
X774475Y86548D01*
X776474D01*
X777474Y85548D01*
Y84549D01*
X776474Y83549D01*
X777474Y82549D01*
Y81550D01*
X776474Y80550D01*
X774475D01*
X773475Y81550D01*
Y82549D01*
X774475Y83549D01*
X773475Y84549D01*
Y85548D01*
X774475Y83549D02*
X776474D01*
X776474Y139050D02*
Y145048D01*
X773475Y142049D01*
X777474D01*
X718617Y144048D02*
X719616Y145048D01*
X721616D01*
X722615Y144048D01*
Y143049D01*
X721616Y142049D01*
X720616D01*
X721616D01*
X722615Y141049D01*
Y140050D01*
X721616Y139050D01*
X719616D01*
X718617Y140050D01*
X667757Y139050D02*
X663759D01*
X667757Y143049D01*
Y144048D01*
X666758Y145048D01*
X664758D01*
X663759Y144048D01*
X610900Y139050D02*
X612899D01*
X611899D01*
Y145048D01*
X610900Y144048D01*
X412799Y67798D02*
X411799Y68798D01*
X409800D01*
X408800Y67798D01*
Y63800D01*
X409800Y62800D01*
X411799D01*
X412799Y63800D01*
Y65799D01*
X410799D01*
X414798Y62800D02*
Y68798D01*
X418797Y62800D01*
Y68798D01*
X420796D02*
Y62800D01*
X423795D01*
X424795Y63800D01*
Y67798D01*
X423795Y68798D01*
X420796D01*
X321000D02*
Y64799D01*
X322999Y62800D01*
X324999Y64799D01*
Y68798D01*
X326998D02*
Y62800D01*
X329997D01*
X330997Y63800D01*
Y67798D01*
X329997Y68798D01*
X326998D01*
X332996D02*
Y62800D01*
X335995D01*
X336995Y63800D01*
Y67798D01*
X335995Y68798D01*
X332996D01*
X338994Y67798D02*
X339994Y68798D01*
X341993D01*
X342993Y67798D01*
Y66799D01*
X341993Y65799D01*
X340993D01*
X341993D01*
X342993Y64799D01*
Y63800D01*
X341993Y62800D01*
X339994D01*
X338994Y63800D01*
X344992Y67798D02*
X345992Y68798D01*
X347991D01*
X348991Y67798D01*
Y66799D01*
X347991Y65799D01*
X346992D01*
X347991D01*
X348991Y64799D01*
Y63800D01*
X347991Y62800D01*
X345992D01*
X344992Y63800D01*
X504000Y423999D02*
Y421333D01*
X505333Y420000D01*
X506666Y421333D01*
Y423999D01*
X510665Y423332D02*
X509998Y423999D01*
X508665D01*
X507999Y423332D01*
Y422666D01*
X508665Y421999D01*
X509998D01*
X510665Y421333D01*
Y420666D01*
X509998Y420000D01*
X508665D01*
X507999Y420666D01*
X514663Y423332D02*
X513997Y423999D01*
X512664D01*
X511997Y423332D01*
Y422666D01*
X512664Y421999D01*
X513997D01*
X514663Y421333D01*
Y420666D01*
X513997Y420000D01*
X512664D01*
X511997Y420666D01*
X483800Y423999D02*
Y421333D01*
X485133Y420000D01*
X486466Y421333D01*
Y423999D01*
X487799D02*
Y420000D01*
X489798D01*
X490464Y420666D01*
Y423332D01*
X489798Y423999D01*
X487799D01*
X491797D02*
Y420000D01*
X493797D01*
X494463Y420666D01*
Y423332D01*
X493797Y423999D01*
X491797D01*
X495796Y423332D02*
X496463Y423999D01*
X497795D01*
X498462Y423332D01*
Y420666D01*
X497795Y420000D01*
X496463D01*
X495796Y420666D01*
Y423332D01*
X504600Y340799D02*
Y338133D01*
X505933Y336800D01*
X507266Y338133D01*
Y340799D01*
X511265Y340132D02*
X510598Y340799D01*
X509265D01*
X508599Y340132D01*
Y339466D01*
X509265Y338799D01*
X510598D01*
X511265Y338133D01*
Y337466D01*
X510598Y336800D01*
X509265D01*
X508599Y337466D01*
X515263Y340132D02*
X514597Y340799D01*
X513264D01*
X512597Y340132D01*
Y339466D01*
X513264Y338799D01*
X514597D01*
X515263Y338133D01*
Y337466D01*
X514597Y336800D01*
X513264D01*
X512597Y337466D01*
X484400Y340799D02*
Y338133D01*
X485733Y336800D01*
X487066Y338133D01*
Y340799D01*
X488399D02*
Y336800D01*
X490398D01*
X491065Y337466D01*
Y340132D01*
X490398Y340799D01*
X488399D01*
X492397D02*
Y336800D01*
X494397D01*
X495063Y337466D01*
Y340132D01*
X494397Y340799D01*
X492397D01*
X496396Y336800D02*
X497729D01*
X497063D01*
Y340799D01*
X496396Y340132D01*
X504700Y252199D02*
Y249533D01*
X506033Y248200D01*
X507366Y249533D01*
Y252199D01*
X511365Y251532D02*
X510698Y252199D01*
X509365D01*
X508699Y251532D01*
Y250866D01*
X509365Y250199D01*
X510698D01*
X511365Y249533D01*
Y248866D01*
X510698Y248200D01*
X509365D01*
X508699Y248866D01*
X515363Y251532D02*
X514697Y252199D01*
X513364D01*
X512697Y251532D01*
Y250866D01*
X513364Y250199D01*
X514697D01*
X515363Y249533D01*
Y248866D01*
X514697Y248200D01*
X513364D01*
X512697Y248866D01*
X484500Y252199D02*
Y249533D01*
X485833Y248200D01*
X487166Y249533D01*
Y252199D01*
X488499D02*
Y248200D01*
X490498D01*
X491164Y248866D01*
Y251532D01*
X490498Y252199D01*
X488499D01*
X492497D02*
Y248200D01*
X494497D01*
X495163Y248866D01*
Y251532D01*
X494497Y252199D01*
X492497D01*
X499162Y248200D02*
X496496D01*
X499162Y250866D01*
Y251532D01*
X498495Y252199D01*
X497163D01*
X496496Y251532D01*
X483700Y169099D02*
Y166433D01*
X485033Y165100D01*
X486366Y166433D01*
Y169099D01*
X487699D02*
Y165100D01*
X489698D01*
X490365Y165767D01*
Y168432D01*
X489698Y169099D01*
X487699D01*
X491697D02*
Y165100D01*
X493697D01*
X494363Y165767D01*
Y168432D01*
X493697Y169099D01*
X491697D01*
X495696Y168432D02*
X496363Y169099D01*
X497695D01*
X498362Y168432D01*
Y167766D01*
X497695Y167099D01*
X497029D01*
X497695D01*
X498362Y166433D01*
Y165767D01*
X497695Y165100D01*
X496363D01*
X495696Y165767D01*
X503900Y169099D02*
Y166433D01*
X505233Y165100D01*
X506566Y166433D01*
Y169099D01*
X510565Y168432D02*
X509898Y169099D01*
X508565D01*
X507899Y168432D01*
Y167766D01*
X508565Y167099D01*
X509898D01*
X510565Y166433D01*
Y165767D01*
X509898Y165100D01*
X508565D01*
X507899Y165767D01*
X514563Y168432D02*
X513897Y169099D01*
X512564D01*
X511897Y168432D01*
Y167766D01*
X512564Y167099D01*
X513897D01*
X514563Y166433D01*
Y165767D01*
X513897Y165100D01*
X512564D01*
X511897Y165767D01*
X803100Y119100D02*
X804433D01*
X803766D01*
Y123099D01*
X803100Y122432D01*
X804266Y53599D02*
X802933Y52932D01*
X801600Y51599D01*
Y50266D01*
X802266Y49600D01*
X803599D01*
X804266Y50266D01*
Y50933D01*
X803599Y51599D01*
X801600D01*
X818800Y122899D02*
X821466D01*
Y122232D01*
X818800Y119567D01*
Y118900D01*
X817800Y49700D02*
X819133D01*
X818466D01*
Y53699D01*
X817800Y53032D01*
X823798Y49700D02*
X821132D01*
X823798Y52366D01*
Y53032D01*
X823132Y53699D01*
X821799D01*
X821132Y53032D01*
X804800Y236300D02*
X806133D01*
X805466D01*
Y240299D01*
X804800Y239632D01*
X805966Y171099D02*
X804633Y170432D01*
X803300Y169099D01*
Y167766D01*
X803966Y167100D01*
X805299D01*
X805966Y167766D01*
Y168433D01*
X805299Y169099D01*
X803300D01*
X820500Y240099D02*
X823166D01*
Y239432D01*
X820500Y236766D01*
Y236100D01*
X819500Y166900D02*
X820833D01*
X820166D01*
Y170899D01*
X819500Y170232D01*
X825498Y166900D02*
X822832D01*
X825498Y169566D01*
Y170232D01*
X824832Y170899D01*
X823499D01*
X822832Y170232D01*
X782800Y258300D02*
X784133D01*
X783466D01*
Y262299D01*
X782800Y261632D01*
X784166Y330499D02*
X782833Y329832D01*
X781500Y328499D01*
Y327166D01*
X782166Y326500D01*
X783499D01*
X784166Y327166D01*
Y327833D01*
X783499Y328499D01*
X781500D01*
X765300Y262199D02*
X767966D01*
Y261532D01*
X765300Y258866D01*
Y258200D01*
X763200Y326800D02*
X764533D01*
X763866D01*
Y330799D01*
X763200Y330132D01*
X769198Y326800D02*
X766532D01*
X769198Y329466D01*
Y330132D01*
X768532Y330799D01*
X767199D01*
X766532Y330132D01*
X780600Y359200D02*
X781933D01*
X781266D01*
Y363199D01*
X780600Y362532D01*
X782266Y431499D02*
X780933Y430832D01*
X779600Y429499D01*
Y428166D01*
X780266Y427500D01*
X781599D01*
X782266Y428166D01*
Y428833D01*
X781599Y429499D01*
X779600D01*
X763400Y362999D02*
X766066D01*
Y362332D01*
X763400Y359666D01*
Y359000D01*
X762200Y427700D02*
X763533D01*
X762866D01*
Y431699D01*
X762200Y431032D01*
X768198Y427700D02*
X765532D01*
X768198Y430366D01*
Y431032D01*
X767532Y431699D01*
X766199D01*
X765532Y431032D01*
X597400Y166700D02*
X598733D01*
X598066D01*
Y170699D01*
X597400Y170032D01*
X603398Y166700D02*
X600732D01*
X603398Y169366D01*
Y170032D01*
X602732Y170699D01*
X601399D01*
X600732Y170032D01*
X598400Y239899D02*
X601066D01*
Y239232D01*
X598400Y236566D01*
Y235900D01*
X583866Y170599D02*
X582533Y169932D01*
X581200Y168599D01*
Y167266D01*
X581866Y166600D01*
X583199D01*
X583866Y167266D01*
Y167933D01*
X583199Y168599D01*
X581200D01*
X582700Y236100D02*
X584033D01*
X583366D01*
Y240099D01*
X582700Y239432D01*
X636700Y260400D02*
X638033D01*
X637366D01*
Y264399D01*
X636700Y263732D01*
X638166Y332799D02*
X636833Y332132D01*
X635500Y330799D01*
Y329466D01*
X636166Y328800D01*
X637499D01*
X638166Y329466D01*
Y330133D01*
X637499Y330799D01*
X635500D01*
X619300Y264199D02*
X621966D01*
Y263532D01*
X619300Y260866D01*
Y260200D01*
X619800Y328700D02*
X621133D01*
X620466D01*
Y332699D01*
X619800Y332032D01*
X625798Y328700D02*
X623132D01*
X625798Y331366D01*
Y332032D01*
X625132Y332699D01*
X623799D01*
X623132Y332032D01*
X619100Y365099D02*
X621766D01*
Y364432D01*
X619100Y361766D01*
Y361100D01*
X637966Y433399D02*
X636633Y432732D01*
X635300Y431399D01*
Y430066D01*
X635966Y429400D01*
X637299D01*
X637966Y430066D01*
Y430733D01*
X637299Y431399D01*
X635300D01*
X636600Y361600D02*
X637933D01*
X637266D01*
Y365599D01*
X636600Y364932D01*
X790976Y585699D02*
X788977D01*
X789977D01*
Y580701D01*
X788977Y579701D01*
X787977D01*
X786978Y580701D01*
X796974Y579701D02*
X792976D01*
X796974Y583700D01*
Y584699D01*
X795975Y585699D01*
X793975D01*
X792976Y584699D01*
X798974D02*
X799973Y585699D01*
X801973D01*
X802972Y584699D01*
Y580701D01*
X801973Y579701D01*
X799973D01*
X798974Y580701D01*
Y584699D01*
X512876Y586099D02*
X510877D01*
X511876D01*
Y581101D01*
X510877Y580101D01*
X509877D01*
X508877Y581101D01*
X514876Y580101D02*
X516875D01*
X515875D01*
Y586099D01*
X514876Y585099D01*
X519874Y581101D02*
X520873Y580101D01*
X522873D01*
X523873Y581101D01*
Y585099D01*
X522873Y586099D01*
X520873D01*
X519874Y585099D01*
Y584100D01*
X520873Y583100D01*
X523873D01*
X380301Y584824D02*
X378302D01*
X379302D01*
Y579826D01*
X378302Y578826D01*
X377302D01*
X376302Y579826D01*
X382300Y578826D02*
X384300D01*
X383300D01*
Y584824D01*
X382300Y583824D01*
X390298Y578826D02*
Y584824D01*
X387299Y581825D01*
X391298D01*
X101401Y585099D02*
X99402D01*
X100401D01*
Y580101D01*
X99402Y579101D01*
X98402D01*
X97402Y580101D01*
X103401Y579101D02*
X105400D01*
X104400D01*
Y585099D01*
X103401Y584099D01*
X108399D02*
X109399Y585099D01*
X111398D01*
X112398Y584099D01*
Y583100D01*
X111398Y582100D01*
X110398D01*
X111398D01*
X112398Y581100D01*
Y580101D01*
X111398Y579101D01*
X109399D01*
X108399Y580101D01*
X166199Y78698D02*
X164199D01*
X165199D01*
Y73700D01*
X164199Y72700D01*
X163200D01*
X162200Y73700D01*
X168198Y77698D02*
X169198Y78698D01*
X171197D01*
X172197Y77698D01*
Y76699D01*
X171197Y75699D01*
X172197Y74699D01*
Y73700D01*
X171197Y72700D01*
X169198D01*
X168198Y73700D01*
Y74699D01*
X169198Y75699D01*
X168198Y76699D01*
Y77698D01*
X169198Y75699D02*
X171197D01*
X166199Y414698D02*
X164199D01*
X165199D01*
Y409700D01*
X164199Y408700D01*
X163200D01*
X162200Y409700D01*
X168198Y414698D02*
X172197D01*
Y413698D01*
X168198Y409700D01*
Y408700D01*
X18799Y78598D02*
X16799D01*
X17799D01*
Y73600D01*
X16799Y72600D01*
X15800D01*
X14800Y73600D01*
X24797Y72600D02*
X20798D01*
X24797Y76599D01*
Y77598D01*
X23797Y78598D01*
X21798D01*
X20798Y77598D01*
X18799Y414698D02*
X16799D01*
X17799D01*
Y409700D01*
X16799Y408700D01*
X15800D01*
X14800Y409700D01*
X20798Y408700D02*
X22797D01*
X21798D01*
Y414698D01*
X20798Y413698D01*
X518726Y508074D02*
X516727D01*
X517726D01*
Y503076D01*
X516727Y502076D01*
X515727D01*
X514727Y503076D01*
X524724Y502076D02*
X520725D01*
X524724Y506075D01*
Y507074D01*
X523724Y508074D01*
X521725D01*
X520725Y507074D01*
X526723Y502076D02*
X528723D01*
X527723D01*
Y508074D01*
X526723Y507074D01*
X518601Y455549D02*
X516602D01*
X517602D01*
Y450551D01*
X516602Y449551D01*
X515602D01*
X514603Y450551D01*
X524599Y449551D02*
X520601D01*
X524599Y453550D01*
Y454549D01*
X523600Y455549D01*
X521600D01*
X520601Y454549D01*
X530597Y449551D02*
X526599D01*
X530597Y453550D01*
Y454549D01*
X529598Y455549D01*
X527598D01*
X526599Y454549D01*
X777901Y509999D02*
X775902D01*
X776902D01*
Y505001D01*
X775902Y504001D01*
X774902D01*
X773903Y505001D01*
X783899Y504001D02*
X779901D01*
X783899Y508000D01*
Y508999D01*
X782900Y509999D01*
X780900D01*
X779901Y508999D01*
X785899D02*
X786898Y509999D01*
X788898D01*
X789897Y508999D01*
Y508000D01*
X788898Y507000D01*
X787898D01*
X788898D01*
X789897Y506000D01*
Y505001D01*
X788898Y504001D01*
X786898D01*
X785899Y505001D01*
X778901Y455499D02*
X776902D01*
X777902D01*
Y450501D01*
X776902Y449501D01*
X775902D01*
X774903Y450501D01*
X784899Y449501D02*
X780901D01*
X784899Y453500D01*
Y454499D01*
X783900Y455499D01*
X781900D01*
X780901Y454499D01*
X789898Y449501D02*
Y455499D01*
X786899Y452500D01*
X790897D01*
X209799Y79298D02*
X207799D01*
X208799D01*
Y74300D01*
X207799Y73300D01*
X206800D01*
X205800Y74300D01*
X211798D02*
X212798Y73300D01*
X214797D01*
X215797Y74300D01*
Y78298D01*
X214797Y79298D01*
X212798D01*
X211798Y78298D01*
Y77299D01*
X212798Y76299D01*
X215797D01*
X257799Y79298D02*
X255799D01*
X256799D01*
Y74300D01*
X255799Y73300D01*
X254800D01*
X253800Y74300D01*
X259798Y73300D02*
X261797D01*
X260798D01*
Y79298D01*
X259798Y78298D01*
X264796D02*
X265796Y79298D01*
X267795D01*
X268795Y78298D01*
Y74300D01*
X267795Y73300D01*
X265796D01*
X264796Y74300D01*
Y78298D01*
X257799Y415298D02*
X255799D01*
X256799D01*
Y410300D01*
X255799Y409300D01*
X254800D01*
X253800Y410300D01*
X259798Y409300D02*
X261797D01*
X260798D01*
Y415298D01*
X259798Y414298D01*
X268795Y409300D02*
X264796D01*
X268795Y413299D01*
Y414298D01*
X267795Y415298D01*
X265796D01*
X264796Y414298D01*
X209799Y415298D02*
X207799D01*
X208799D01*
Y410300D01*
X207799Y409300D01*
X206800D01*
X205800Y410300D01*
X211798Y409300D02*
X213797D01*
X212798D01*
Y415298D01*
X211798Y414298D01*
X216796Y409300D02*
X218796D01*
X217796D01*
Y415298D01*
X216796Y414298D01*
X733173Y70999D02*
Y67000D01*
X735172Y65001D01*
X737171Y67000D01*
Y70999D01*
X739171Y65001D02*
Y70999D01*
X742170D01*
X743169Y69999D01*
Y68000D01*
X742170Y67000D01*
X739171D01*
X741170D02*
X743169Y65001D01*
X745169D02*
X747168D01*
X746169D01*
Y70999D01*
X745169Y69999D01*
X754166Y65001D02*
X750167D01*
X754166Y69000D01*
Y69999D01*
X753166Y70999D01*
X751167D01*
X750167Y69999D01*
X681672Y70499D02*
Y66500D01*
X683672Y64501D01*
X685671Y66500D01*
Y70499D01*
X687670Y64501D02*
Y70499D01*
X690669D01*
X691669Y69499D01*
Y67500D01*
X690669Y66500D01*
X687670D01*
X689670D02*
X691669Y64501D01*
X693669D02*
X695668D01*
X694668D01*
Y70499D01*
X693669Y69499D01*
X698667Y64501D02*
X700666D01*
X699667D01*
Y70499D01*
X698667Y69499D01*
X624673Y70999D02*
Y67000D01*
X626672Y65001D01*
X628671Y67000D01*
Y70999D01*
X630671Y65001D02*
Y70999D01*
X633670D01*
X634669Y69999D01*
Y68000D01*
X633670Y67000D01*
X630671D01*
X632670D02*
X634669Y65001D01*
X636669D02*
X638668D01*
X637669D01*
Y70999D01*
X636669Y69999D01*
X641667D02*
X642667Y70999D01*
X644666D01*
X645666Y69999D01*
Y66001D01*
X644666Y65001D01*
X642667D01*
X641667Y66001D01*
Y69999D01*
X574672Y71499D02*
Y67500D01*
X576671Y65501D01*
X578671Y67500D01*
Y71499D01*
X580670Y65501D02*
Y71499D01*
X583669D01*
X584669Y70499D01*
Y68500D01*
X583669Y67500D01*
X580670D01*
X582669D02*
X584669Y65501D01*
X586668Y66501D02*
X587668Y65501D01*
X589667D01*
X590667Y66501D01*
Y70499D01*
X589667Y71499D01*
X587668D01*
X586668Y70499D01*
Y69500D01*
X587668Y68500D01*
X590667D01*
X737453Y128999D02*
Y125000D01*
X739452Y123001D01*
X741451Y125000D01*
Y128999D01*
X743451Y123001D02*
Y128999D01*
X746450D01*
X747449Y127999D01*
Y126000D01*
X746450Y125000D01*
X743451D01*
X745450D02*
X747449Y123001D01*
X749449Y127999D02*
X750448Y128999D01*
X752448D01*
X753447Y127999D01*
Y127000D01*
X752448Y126000D01*
X753447Y125000D01*
Y124001D01*
X752448Y123001D01*
X750448D01*
X749449Y124001D01*
Y125000D01*
X750448Y126000D01*
X749449Y127000D01*
Y127999D01*
X750448Y126000D02*
X752448D01*
X684953Y127999D02*
Y124000D01*
X686952Y122001D01*
X688951Y124000D01*
Y127999D01*
X690951Y122001D02*
Y127999D01*
X693950D01*
X694949Y126999D01*
Y125000D01*
X693950Y124000D01*
X690951D01*
X692950D02*
X694949Y122001D01*
X696949Y127999D02*
X700947D01*
Y126999D01*
X696949Y123001D01*
Y122001D01*
X629453Y129499D02*
Y125500D01*
X631452Y123501D01*
X633451Y125500D01*
Y129499D01*
X635451Y123501D02*
Y129499D01*
X638450D01*
X639449Y128499D01*
Y126500D01*
X638450Y125500D01*
X635451D01*
X637450D02*
X639449Y123501D01*
X645447Y129499D02*
X643448Y128499D01*
X641449Y126500D01*
Y124501D01*
X642448Y123501D01*
X644448D01*
X645447Y124501D01*
Y125500D01*
X644448Y126500D01*
X641449D01*
X574453Y128999D02*
Y125000D01*
X576452Y123001D01*
X578451Y125000D01*
Y128999D01*
X580451Y123001D02*
Y128999D01*
X583450D01*
X584449Y127999D01*
Y126000D01*
X583450Y125000D01*
X580451D01*
X582450D02*
X584449Y123001D01*
X590447Y128999D02*
X586449D01*
Y126000D01*
X588448Y127000D01*
X589448D01*
X590447Y126000D01*
Y124001D01*
X589448Y123001D01*
X587448D01*
X586449Y124001D01*
X833602Y114999D02*
Y109001D01*
Y112000D01*
X837601D01*
Y114999D01*
Y109001D01*
X839600D02*
X841600D01*
X840600D01*
Y114999D01*
X839600Y113999D01*
X844599Y114999D02*
X848598D01*
Y113999D01*
X844599Y110001D01*
Y109001D01*
X743951Y35499D02*
X742952Y36499D01*
X740952D01*
X739953Y35499D01*
Y31501D01*
X740952Y30501D01*
X742952D01*
X743951Y31501D01*
X748950Y30501D02*
Y36499D01*
X745951Y33500D01*
X749949D01*
X754948Y30501D02*
Y36499D01*
X751949Y33500D01*
X755947D01*
X688451Y34999D02*
X687452Y35999D01*
X685452D01*
X684453Y34999D01*
Y31001D01*
X685452Y30001D01*
X687452D01*
X688451Y31001D01*
X693450Y30001D02*
Y35999D01*
X690451Y33000D01*
X694449D01*
X696449Y34999D02*
X697448Y35999D01*
X699448D01*
X700447Y34999D01*
Y34000D01*
X699448Y33000D01*
X698448D01*
X699448D01*
X700447Y32000D01*
Y31001D01*
X699448Y30001D01*
X697448D01*
X696449Y31001D01*
X633451Y35499D02*
X632452Y36499D01*
X630452D01*
X629453Y35499D01*
Y31501D01*
X630452Y30501D01*
X632452D01*
X633451Y31501D01*
X638450Y30501D02*
Y36499D01*
X635451Y33500D01*
X639449D01*
X645447Y30501D02*
X641449D01*
X645447Y34500D01*
Y35499D01*
X644448Y36499D01*
X642448D01*
X641449Y35499D01*
X581451Y34999D02*
X580451Y35999D01*
X578452D01*
X577452Y34999D01*
Y31001D01*
X578452Y30001D01*
X580451D01*
X581451Y31001D01*
X586449Y30001D02*
Y35999D01*
X583450Y33000D01*
X587449D01*
X589448Y30001D02*
X591448D01*
X590448D01*
Y35999D01*
X589448Y34999D01*
X371901Y456999D02*
X369902D01*
X370901D01*
Y452001D01*
X369902Y451001D01*
X368902D01*
X367902Y452001D01*
X373901Y451001D02*
X375900D01*
X374900D01*
Y456999D01*
X373901Y455999D01*
X378899D02*
X379899Y456999D01*
X381898D01*
X382898Y455999D01*
Y455000D01*
X381898Y454000D01*
X382898Y453000D01*
Y452001D01*
X381898Y451001D01*
X379899D01*
X378899Y452001D01*
Y453000D01*
X379899Y454000D01*
X378899Y455000D01*
Y455999D01*
X379899Y454000D02*
X381898D01*
X370901Y511499D02*
X368902D01*
X369901D01*
Y506501D01*
X368902Y505501D01*
X367902D01*
X366902Y506501D01*
X372901Y505501D02*
X374900D01*
X373900D01*
Y511499D01*
X372901Y510499D01*
X377899Y511499D02*
X381898D01*
Y510499D01*
X377899Y506501D01*
Y505501D01*
X65799Y415298D02*
X63799D01*
X64799D01*
Y410300D01*
X63799Y409300D01*
X62800D01*
X61800Y410300D01*
X71797Y415298D02*
X67798D01*
Y412299D01*
X69797Y413299D01*
X70797D01*
X71797Y412299D01*
Y410300D01*
X70797Y409300D01*
X68798D01*
X67798Y410300D01*
X132400Y415599D02*
X130401D01*
X131401D01*
Y410601D01*
X130401Y409601D01*
X129401D01*
X128402Y410601D01*
X138398Y415599D02*
X136399Y414599D01*
X134400Y412600D01*
Y410601D01*
X135399Y409601D01*
X137399D01*
X138398Y410601D01*
Y411600D01*
X137399Y412600D01*
X134400D01*
X314947Y196892D02*
X313948Y197891D01*
X311948D01*
X310949Y196892D01*
Y192893D01*
X311948Y191893D01*
X313948D01*
X314947Y192893D01*
X316947Y196892D02*
X317946Y197891D01*
X319946D01*
X320945Y196892D01*
Y195892D01*
X319946Y194892D01*
X318946D01*
X319946D01*
X320945Y193893D01*
Y192893D01*
X319946Y191893D01*
X317946D01*
X316947Y192893D01*
X452447Y214142D02*
X451448Y215141D01*
X449448D01*
X448449Y214142D01*
Y210143D01*
X449448Y209143D01*
X451448D01*
X452447Y210143D01*
X454447Y215141D02*
X458445D01*
Y214142D01*
X454447Y210143D01*
Y209143D01*
X317452Y343499D02*
Y337501D01*
Y340500D01*
X321450D01*
Y343499D01*
Y337501D01*
X327448D02*
X323450D01*
X327448Y341500D01*
Y342499D01*
X326449Y343499D01*
X324449D01*
X323450Y342499D01*
X522449Y244891D02*
Y238893D01*
Y241892D01*
X526447D01*
Y244891D01*
Y238893D01*
X528447Y244891D02*
X532445D01*
Y243892D01*
X528447Y239893D01*
Y238893D01*
X448602Y219501D02*
Y225499D01*
X451601D01*
X452600Y224499D01*
Y222500D01*
X451601Y221500D01*
X448602D01*
X450601D02*
X452600Y219501D01*
X454600Y224499D02*
X455599Y225499D01*
X457599D01*
X458598Y224499D01*
Y223500D01*
X457599Y222500D01*
X456599D01*
X457599D01*
X458598Y221500D01*
Y220501D01*
X457599Y219501D01*
X455599D01*
X454600Y220501D01*
X350949Y255391D02*
Y250393D01*
X351948Y249393D01*
X353948D01*
X354947Y250393D01*
Y255391D01*
X356947Y254392D02*
X357946Y255391D01*
X359946D01*
X360945Y254392D01*
Y253392D01*
X359946Y252392D01*
X358946D01*
X359946D01*
X360945Y251393D01*
Y250393D01*
X359946Y249393D01*
X357946D01*
X356947Y250393D01*
X458950Y163891D02*
Y159892D01*
X460949Y157893D01*
X462948Y159892D01*
Y163891D01*
X464948Y157893D02*
Y163891D01*
X467947D01*
X468946Y162892D01*
Y160892D01*
X467947Y159892D01*
X464948D01*
X466947D02*
X468946Y157893D01*
X473945D02*
Y163891D01*
X470946Y160892D01*
X474944D01*
X458950Y335499D02*
Y331500D01*
X460949Y329501D01*
X462948Y331500D01*
Y335499D01*
X464948Y329501D02*
Y335499D01*
X467947D01*
X468946Y334499D01*
Y332500D01*
X467947Y331500D01*
X464948D01*
X466947D02*
X468946Y329501D01*
X474944D02*
X470946D01*
X474944Y333500D01*
Y334499D01*
X473945Y335499D01*
X471945D01*
X470946Y334499D01*
X350949Y172391D02*
Y167393D01*
X351948Y166393D01*
X353948D01*
X354947Y167393D01*
Y172391D01*
X359946Y166393D02*
Y172391D01*
X356947Y169392D01*
X360945D01*
X448602Y136501D02*
Y142499D01*
X451601D01*
X452600Y141499D01*
Y139500D01*
X451601Y138500D01*
X448602D01*
X450601D02*
X452600Y136501D01*
X457599D02*
Y142499D01*
X454600Y139500D01*
X458598D01*
X522449Y161891D02*
Y155893D01*
Y158892D01*
X526447D01*
Y161891D01*
Y155893D01*
X528447Y160892D02*
X529446Y161891D01*
X531446D01*
X532445Y160892D01*
Y159892D01*
X531446Y158892D01*
X532445Y157893D01*
Y156893D01*
X531446Y155893D01*
X529446D01*
X528447Y156893D01*
Y157893D01*
X529446Y158892D01*
X528447Y159892D01*
Y160892D01*
X529446Y158892D02*
X531446D01*
X317449Y254991D02*
Y248993D01*
Y251992D01*
X321447D01*
Y254991D01*
Y248993D01*
X323447Y253992D02*
X324446Y254991D01*
X326446D01*
X327445Y253992D01*
Y252992D01*
X326446Y251992D01*
X325446D01*
X326446D01*
X327445Y250992D01*
Y249993D01*
X326446Y248993D01*
X324446D01*
X323447Y249993D01*
X452447Y131142D02*
X451448Y132141D01*
X449448D01*
X448449Y131142D01*
Y127143D01*
X449448Y126143D01*
X451448D01*
X452447Y127143D01*
X454447Y131142D02*
X455446Y132141D01*
X457446D01*
X458445Y131142D01*
Y130142D01*
X457446Y129142D01*
X458445Y128143D01*
Y127143D01*
X457446Y126143D01*
X455446D01*
X454447Y127143D01*
Y128143D01*
X455446Y129142D01*
X454447Y130142D01*
Y131142D01*
X455446Y129142D02*
X457446D01*
X314947Y113892D02*
X313948Y114891D01*
X311948D01*
X310949Y113892D01*
Y109893D01*
X311948Y108893D01*
X313948D01*
X314947Y109893D01*
X319946Y108893D02*
Y114891D01*
X316947Y111892D01*
X320945D01*
X314950Y285499D02*
X313951Y286499D01*
X311951D01*
X310952Y285499D01*
Y281501D01*
X311951Y280501D01*
X313951D01*
X314950Y281501D01*
X320948Y280501D02*
X316950D01*
X320948Y284500D01*
Y285499D01*
X319949Y286499D01*
X317949D01*
X316950Y285499D01*
X452450Y302749D02*
X451451Y303749D01*
X449451D01*
X448452Y302749D01*
Y298751D01*
X449451Y297751D01*
X451451D01*
X452450Y298751D01*
X458448Y303749D02*
X456449Y302749D01*
X454450Y300750D01*
Y298751D01*
X455449Y297751D01*
X457449D01*
X458448Y298751D01*
Y299750D01*
X457449Y300750D01*
X454450D01*
X317449Y171891D02*
Y165893D01*
Y168892D01*
X321447D01*
Y171891D01*
Y165893D01*
X326446D02*
Y171891D01*
X323447Y168892D01*
X327445D01*
X522452Y333499D02*
Y327501D01*
Y330500D01*
X526450D01*
Y333499D01*
Y327501D01*
X532448Y333499D02*
X530449Y332499D01*
X528450Y330500D01*
Y328501D01*
X529449Y327501D01*
X531449D01*
X532448Y328501D01*
Y329500D01*
X531449Y330500D01*
X528450D01*
X448102Y308001D02*
Y313999D01*
X451101D01*
X452100Y312999D01*
Y311000D01*
X451101Y310000D01*
X448102D01*
X450101D02*
X452100Y308001D01*
X458098D02*
X454100D01*
X458098Y312000D01*
Y312999D01*
X457099Y313999D01*
X455099D01*
X454100Y312999D01*
X350952Y343999D02*
Y339001D01*
X351951Y338001D01*
X353951D01*
X354950Y339001D01*
Y343999D01*
X360948Y338001D02*
X356950D01*
X360948Y342000D01*
Y342999D01*
X359949Y343999D01*
X357949D01*
X356950Y342999D01*
X458950Y247499D02*
Y243500D01*
X460949Y241501D01*
X462948Y243500D01*
Y247499D01*
X464948Y241501D02*
Y247499D01*
X467947D01*
X468946Y246499D01*
Y244500D01*
X467947Y243500D01*
X464948D01*
X466947D02*
X468946Y241501D01*
X470946Y246499D02*
X471945Y247499D01*
X473945D01*
X474944Y246499D01*
Y245500D01*
X473945Y244500D01*
X472945D01*
X473945D01*
X474944Y243500D01*
Y242501D01*
X473945Y241501D01*
X471945D01*
X470946Y242501D01*
X459949Y418499D02*
Y414500D01*
X461949Y412501D01*
X463948Y414500D01*
Y418499D01*
X465947Y412501D02*
Y418499D01*
X468946D01*
X469946Y417499D01*
Y415500D01*
X468946Y414500D01*
X465947D01*
X467947D02*
X469946Y412501D01*
X471945D02*
X473945D01*
X472945D01*
Y418499D01*
X471945Y417499D01*
X351951Y426999D02*
Y422001D01*
X352951Y421001D01*
X354950D01*
X355950Y422001D01*
Y426999D01*
X357949Y421001D02*
X359949D01*
X358949D01*
Y426999D01*
X357949Y425999D01*
X448451Y391001D02*
Y396999D01*
X451450D01*
X452450Y395999D01*
Y394000D01*
X451450Y393000D01*
X448451D01*
X450451D02*
X452450Y391001D01*
X454449D02*
X456449D01*
X455449D01*
Y396999D01*
X454449Y395999D01*
X522452Y416499D02*
Y410501D01*
Y413500D01*
X526450D01*
Y416499D01*
Y410501D01*
X532448Y416499D02*
X528450D01*
Y413500D01*
X530449Y414500D01*
X531449D01*
X532448Y413500D01*
Y411501D01*
X531449Y410501D01*
X529449D01*
X528450Y411501D01*
X318451Y426499D02*
Y420501D01*
Y423500D01*
X322450D01*
Y426499D01*
Y420501D01*
X324449D02*
X326449D01*
X325449D01*
Y426499D01*
X324449Y425499D01*
X452450Y385749D02*
X451451Y386749D01*
X449451D01*
X448452Y385749D01*
Y381751D01*
X449451Y380751D01*
X451451D01*
X452450Y381751D01*
X458448Y386749D02*
X454450D01*
Y383750D01*
X456449Y384750D01*
X457449D01*
X458448Y383750D01*
Y381751D01*
X457449Y380751D01*
X455449D01*
X454450Y381751D01*
X315950Y368499D02*
X314950Y369499D01*
X312951D01*
X311951Y368499D01*
Y364501D01*
X312951Y363501D01*
X314950D01*
X315950Y364501D01*
X317949Y363501D02*
X319949D01*
X318949D01*
Y369499D01*
X317949Y368499D01*
X581451Y43499D02*
X580452Y44499D01*
X578452D01*
X577453Y43499D01*
Y39501D01*
X578452Y38501D01*
X580452D01*
X581451Y39501D01*
X583451Y43499D02*
X584450Y44499D01*
X586450D01*
X587449Y43499D01*
Y42500D01*
X586450Y41500D01*
X585450D01*
X586450D01*
X587449Y40500D01*
Y39501D01*
X586450Y38501D01*
X584450D01*
X583451Y39501D01*
X589449Y43499D02*
X590448Y44499D01*
X592448D01*
X593447Y43499D01*
Y42500D01*
X592448Y41500D01*
X591448D01*
X592448D01*
X593447Y40500D01*
Y39501D01*
X592448Y38501D01*
X590448D01*
X589449Y39501D01*
X577927Y105951D02*
Y111949D01*
X580927D01*
X581926Y110949D01*
Y108950D01*
X580927Y107950D01*
X577927D01*
X579927D02*
X581926Y105951D01*
X583925D02*
X585925D01*
X584925D01*
Y111949D01*
X583925Y110949D01*
X588924D02*
X589923Y111949D01*
X591923D01*
X592923Y110949D01*
Y109950D01*
X591923Y108950D01*
X590923D01*
X591923D01*
X592923Y107950D01*
Y106951D01*
X591923Y105951D01*
X589923D01*
X588924Y106951D01*
X629619Y105001D02*
Y110999D01*
X632618D01*
X633618Y109999D01*
Y108000D01*
X632618Y107000D01*
X629619D01*
X631618D02*
X633618Y105001D01*
X635617D02*
X637616D01*
X636617D01*
Y110999D01*
X635617Y109999D01*
X643615Y105001D02*
Y110999D01*
X640616Y108000D01*
X644614D01*
X633451Y43499D02*
X632452Y44499D01*
X630452D01*
X629453Y43499D01*
Y39501D01*
X630452Y38501D01*
X632452D01*
X633451Y39501D01*
X635451Y43499D02*
X636450Y44499D01*
X638450D01*
X639449Y43499D01*
Y42500D01*
X638450Y41500D01*
X637450D01*
X638450D01*
X639449Y40500D01*
Y39501D01*
X638450Y38501D01*
X636450D01*
X635451Y39501D01*
X644448Y38501D02*
Y44499D01*
X641449Y41500D01*
X645447D01*
X688451Y42999D02*
X687452Y43999D01*
X685452D01*
X684453Y42999D01*
Y39001D01*
X685452Y38001D01*
X687452D01*
X688451Y39001D01*
X690451Y42999D02*
X691450Y43999D01*
X693450D01*
X694449Y42999D01*
Y42000D01*
X693450Y41000D01*
X692450D01*
X693450D01*
X694449Y40000D01*
Y39001D01*
X693450Y38001D01*
X691450D01*
X690451Y39001D01*
X700447Y43999D02*
X696449D01*
Y41000D01*
X698448Y42000D01*
X699448D01*
X700447Y41000D01*
Y39001D01*
X699448Y38001D01*
X697448D01*
X696449Y39001D01*
X743451Y43499D02*
X742452Y44499D01*
X740452D01*
X739453Y43499D01*
Y39501D01*
X740452Y38501D01*
X742452D01*
X743451Y39501D01*
X745451Y43499D02*
X746450Y44499D01*
X748450D01*
X749449Y43499D01*
Y42500D01*
X748450Y41500D01*
X747450D01*
X748450D01*
X749449Y40500D01*
Y39501D01*
X748450Y38501D01*
X746450D01*
X745451Y39501D01*
X755447Y44499D02*
X753448Y43499D01*
X751449Y41500D01*
Y39501D01*
X752448Y38501D01*
X754448D01*
X755447Y39501D01*
Y40500D01*
X754448Y41500D01*
X751449D01*
X742951Y93999D02*
X741952Y94999D01*
X739952D01*
X738953Y93999D01*
Y90001D01*
X739952Y89001D01*
X741952D01*
X742951Y90001D01*
X747950Y89001D02*
Y94999D01*
X744951Y92000D01*
X748949D01*
X750949Y93999D02*
X751948Y94999D01*
X753948D01*
X754947Y93999D01*
Y90001D01*
X753948Y89001D01*
X751948D01*
X750949Y90001D01*
Y93999D01*
X742951Y101999D02*
X741952Y102999D01*
X739952D01*
X738953Y101999D01*
Y98001D01*
X739952Y97001D01*
X741952D01*
X742951Y98001D01*
X744951Y101999D02*
X745950Y102999D01*
X747950D01*
X748949Y101999D01*
Y101000D01*
X747950Y100000D01*
X746950D01*
X747950D01*
X748949Y99000D01*
Y98001D01*
X747950Y97001D01*
X745950D01*
X744951Y98001D01*
X754947Y97001D02*
X750949D01*
X754947Y101000D01*
Y101999D01*
X753948Y102999D01*
X751948D01*
X750949Y101999D01*
X689451Y102499D02*
X688451Y103499D01*
X686452D01*
X685452Y102499D01*
Y98501D01*
X686452Y97501D01*
X688451D01*
X689451Y98501D01*
X691450Y102499D02*
X692450Y103499D01*
X694449D01*
X695449Y102499D01*
Y101500D01*
X694449Y100500D01*
X693450D01*
X694449D01*
X695449Y99500D01*
Y98501D01*
X694449Y97501D01*
X692450D01*
X691450Y98501D01*
X697448Y97501D02*
X699448D01*
X698448D01*
Y103499D01*
X697448Y102499D01*
X689451Y94499D02*
X688452Y95499D01*
X686452D01*
X685453Y94499D01*
Y90501D01*
X686452Y89501D01*
X688452D01*
X689451Y90501D01*
X691451Y94499D02*
X692450Y95499D01*
X694450D01*
X695449Y94499D01*
Y93500D01*
X694450Y92500D01*
X693450D01*
X694450D01*
X695449Y91500D01*
Y90501D01*
X694450Y89501D01*
X692450D01*
X691451Y90501D01*
X697449D02*
X698448Y89501D01*
X700448D01*
X701447Y90501D01*
Y94499D01*
X700448Y95499D01*
X698448D01*
X697449Y94499D01*
Y93500D01*
X698448Y92500D01*
X701447D01*
X632951Y101999D02*
X631952Y102999D01*
X629952D01*
X628953Y101999D01*
Y98001D01*
X629952Y97001D01*
X631952D01*
X632951Y98001D01*
X634951Y101999D02*
X635950Y102999D01*
X637950D01*
X638949Y101999D01*
Y101000D01*
X637950Y100000D01*
X636950D01*
X637950D01*
X638949Y99000D01*
Y98001D01*
X637950Y97001D01*
X635950D01*
X634951Y98001D01*
X640949Y101999D02*
X641948Y102999D01*
X643948D01*
X644947Y101999D01*
Y98001D01*
X643948Y97001D01*
X641948D01*
X640949Y98001D01*
Y101999D01*
X632951Y93999D02*
X631952Y94999D01*
X629952D01*
X628953Y93999D01*
Y90001D01*
X629952Y89001D01*
X631952D01*
X632951Y90001D01*
X634951Y93999D02*
X635950Y94999D01*
X637950D01*
X638949Y93999D01*
Y93000D01*
X637950Y92000D01*
X636950D01*
X637950D01*
X638949Y91000D01*
Y90001D01*
X637950Y89001D01*
X635950D01*
X634951Y90001D01*
X640949Y93999D02*
X641948Y94999D01*
X643948D01*
X644947Y93999D01*
Y93000D01*
X643948Y92000D01*
X644947Y91000D01*
Y90001D01*
X643948Y89001D01*
X641948D01*
X640949Y90001D01*
Y91000D01*
X641948Y92000D01*
X640949Y93000D01*
Y93999D01*
X641948Y92000D02*
X643948D01*
X581376Y94099D02*
X580377Y95099D01*
X578377D01*
X577378Y94099D01*
Y90101D01*
X578377Y89101D01*
X580377D01*
X581376Y90101D01*
X583376Y94099D02*
X584375Y95099D01*
X586375D01*
X587374Y94099D01*
Y93100D01*
X586375Y92100D01*
X585375D01*
X586375D01*
X587374Y91100D01*
Y90101D01*
X586375Y89101D01*
X584375D01*
X583376Y90101D01*
X589374Y95099D02*
X593372D01*
Y94099D01*
X589374Y90101D01*
Y89101D01*
X581451Y102499D02*
X580452Y103499D01*
X578452D01*
X577453Y102499D01*
Y98501D01*
X578452Y97501D01*
X580452D01*
X581451Y98501D01*
X587449Y97501D02*
X583451D01*
X587449Y101500D01*
Y102499D01*
X586450Y103499D01*
X584450D01*
X583451Y102499D01*
X589449Y98501D02*
X590448Y97501D01*
X592448D01*
X593447Y98501D01*
Y102499D01*
X592448Y103499D01*
X590448D01*
X589449Y102499D01*
Y101500D01*
X590448Y100500D01*
X593447D01*
X577452Y47501D02*
Y53499D01*
X580451D01*
X581451Y52499D01*
Y50500D01*
X580451Y49500D01*
X577452D01*
X579452D02*
X581451Y47501D01*
X583451D02*
X585450D01*
X584450D01*
Y53499D01*
X583451Y52499D01*
X588449Y53499D02*
X592448D01*
Y52499D01*
X588449Y48501D01*
Y47501D01*
X629952D02*
Y53499D01*
X632951D01*
X633951Y52499D01*
Y50500D01*
X632951Y49500D01*
X629952D01*
X631952D02*
X633951Y47501D01*
X635951D02*
X637950D01*
X636950D01*
Y53499D01*
X635951Y52499D01*
X640949D02*
X641949Y53499D01*
X643948D01*
X644948Y52499D01*
Y51500D01*
X643948Y50500D01*
X644948Y49500D01*
Y48501D01*
X643948Y47501D01*
X641949D01*
X640949Y48501D01*
Y49500D01*
X641949Y50500D01*
X640949Y51500D01*
Y52499D01*
X641949Y50500D02*
X643948D01*
X685452Y105676D02*
Y111674D01*
X688451D01*
X689451Y110674D01*
Y108675D01*
X688451Y107675D01*
X685452D01*
X687452D02*
X689451Y105676D01*
X691451D02*
X693450D01*
X692450D01*
Y111674D01*
X691451Y110674D01*
X700448Y111674D02*
X696449D01*
Y108675D01*
X698448Y109675D01*
X699448D01*
X700448Y108675D01*
Y106676D01*
X699448Y105676D01*
X697448D01*
X696449Y106676D01*
X739452Y105001D02*
Y110999D01*
X742451D01*
X743451Y109999D01*
Y108000D01*
X742451Y107000D01*
X739452D01*
X741452D02*
X743451Y105001D01*
X745450D02*
X747450D01*
X746450D01*
Y110999D01*
X745450Y109999D01*
X754448Y110999D02*
X752448Y109999D01*
X750449Y108000D01*
Y106001D01*
X751448Y105001D01*
X753448D01*
X754448Y106001D01*
Y107000D01*
X753448Y108000D01*
X750449D01*
X684786Y47001D02*
Y52999D01*
X687785D01*
X688785Y51999D01*
Y50000D01*
X687785Y49000D01*
X684786D01*
X686785D02*
X688785Y47001D01*
X690784D02*
X692783D01*
X691784D01*
Y52999D01*
X690784Y51999D01*
X695782Y48001D02*
X696782Y47001D01*
X698781D01*
X699781Y48001D01*
Y51999D01*
X698781Y52999D01*
X696782D01*
X695782Y51999D01*
Y51000D01*
X696782Y50000D01*
X699781D01*
X739453Y46501D02*
Y52499D01*
X742452D01*
X743451Y51499D01*
Y49500D01*
X742452Y48500D01*
X739453D01*
X741452D02*
X743451Y46501D01*
X749449D02*
X745451D01*
X749449Y50500D01*
Y51499D01*
X748450Y52499D01*
X746450D01*
X745451Y51499D01*
X751449D02*
X752448Y52499D01*
X754448D01*
X755447Y51499D01*
Y47501D01*
X754448Y46501D01*
X752448D01*
X751449Y47501D01*
Y51499D01*
X738952Y178001D02*
Y183999D01*
X741952D01*
X742951Y182999D01*
Y181000D01*
X741952Y180000D01*
X738952D01*
X740952D02*
X742951Y178001D01*
X744950D02*
X746950D01*
X745950D01*
Y183999D01*
X744950Y182999D01*
X753948Y178001D02*
X749949D01*
X753948Y182000D01*
Y182999D01*
X752948Y183999D01*
X750948D01*
X749949Y182999D01*
X704452Y177501D02*
Y183499D01*
X707451D01*
X708451Y182499D01*
Y180500D01*
X707451Y179500D01*
X704452D01*
X706452D02*
X708451Y177501D01*
X710450D02*
X712450D01*
X711450D01*
Y183499D01*
X710450Y182499D01*
X715449Y177501D02*
X717448D01*
X716448D01*
Y183499D01*
X715449Y182499D01*
X737802Y228801D02*
Y234799D01*
X740801D01*
X741800Y233799D01*
Y231800D01*
X740801Y230800D01*
X737802D01*
X739801D02*
X741800Y228801D01*
X743800Y233799D02*
X744799Y234799D01*
X746799D01*
X747798Y233799D01*
Y232800D01*
X746799Y231800D01*
X747798Y230800D01*
Y229801D01*
X746799Y228801D01*
X744799D01*
X743800Y229801D01*
Y230800D01*
X744799Y231800D01*
X743800Y232800D01*
Y233799D01*
X744799Y231800D02*
X746799D01*
X703452Y228501D02*
Y234499D01*
X706451D01*
X707450Y233499D01*
Y231500D01*
X706451Y230500D01*
X703452D01*
X705451D02*
X707450Y228501D01*
X709450Y234499D02*
X713448D01*
Y233499D01*
X709450Y229501D01*
Y228501D01*
X667786Y178001D02*
Y183999D01*
X670785D01*
X671784Y182999D01*
Y181000D01*
X670785Y180000D01*
X667786D01*
X669785D02*
X671784Y178001D01*
X673784D02*
X675783D01*
X674784D01*
Y183999D01*
X673784Y182999D01*
X678782D02*
X679782Y183999D01*
X681781D01*
X682781Y182999D01*
Y179001D01*
X681781Y178001D01*
X679782D01*
X678782Y179001D01*
Y182999D01*
X634452Y178001D02*
Y183999D01*
X637451D01*
X638450Y182999D01*
Y181000D01*
X637451Y180000D01*
X634452D01*
X636451D02*
X638450Y178001D01*
X640450Y179001D02*
X641449Y178001D01*
X643449D01*
X644448Y179001D01*
Y182999D01*
X643449Y183999D01*
X641449D01*
X640450Y182999D01*
Y182000D01*
X641449Y181000D01*
X644448D01*
X637951Y174999D02*
X636951Y175999D01*
X634952D01*
X633952Y174999D01*
Y171001D01*
X634952Y170001D01*
X636951D01*
X637951Y171001D01*
X639951Y170001D02*
X641950D01*
X640950D01*
Y175999D01*
X639951Y174999D01*
X644949D02*
X645949Y175999D01*
X647948D01*
X648948Y174999D01*
Y174000D01*
X647948Y173000D01*
X646948D01*
X647948D01*
X648948Y172000D01*
Y171001D01*
X647948Y170001D01*
X645949D01*
X644949Y171001D01*
X637951Y166999D02*
X636951Y167999D01*
X634952D01*
X633952Y166999D01*
Y163001D01*
X634952Y162001D01*
X636951D01*
X637951Y163001D01*
X643949Y162001D02*
X639950D01*
X643949Y166000D01*
Y166999D01*
X642949Y167999D01*
X640950D01*
X639950Y166999D01*
X645948Y162001D02*
X647948D01*
X646948D01*
Y167999D01*
X645948Y166999D01*
X671285Y166499D02*
X670285Y167499D01*
X668286D01*
X667286Y166499D01*
Y162501D01*
X668286Y161501D01*
X670285D01*
X671285Y162501D01*
X677283Y161501D02*
X673284D01*
X677283Y165500D01*
Y166499D01*
X676283Y167499D01*
X674284D01*
X673284Y166499D01*
X683281Y161501D02*
X679282D01*
X683281Y165500D01*
Y166499D01*
X682281Y167499D01*
X680282D01*
X679282Y166499D01*
X671284Y174499D02*
X670285Y175499D01*
X668285D01*
X667286Y174499D01*
Y170501D01*
X668285Y169501D01*
X670285D01*
X671284Y170501D01*
X673284Y169501D02*
X675283D01*
X674284D01*
Y175499D01*
X673284Y174499D01*
X681281Y169501D02*
Y175499D01*
X678282Y172500D01*
X682281D01*
X708490Y165999D02*
X707490Y166999D01*
X705491D01*
X704491Y165999D01*
Y162001D01*
X705491Y161001D01*
X707490D01*
X708490Y162001D01*
X714488Y161001D02*
X710489D01*
X714488Y165000D01*
Y165999D01*
X713488Y166999D01*
X711489D01*
X710489Y165999D01*
X716487D02*
X717487Y166999D01*
X719486D01*
X720486Y165999D01*
Y165000D01*
X719486Y164000D01*
X718487D01*
X719486D01*
X720486Y163000D01*
Y162001D01*
X719486Y161001D01*
X717487D01*
X716487Y162001D01*
X708618Y174499D02*
X707618Y175499D01*
X705619D01*
X704619Y174499D01*
Y170501D01*
X705619Y169501D01*
X707618D01*
X708618Y170501D01*
X710617Y169501D02*
X712616D01*
X711617D01*
Y175499D01*
X710617Y174499D01*
X719614Y175499D02*
X715616D01*
Y172500D01*
X717615Y173500D01*
X718614D01*
X719614Y172500D01*
Y170501D01*
X718614Y169501D01*
X716615D01*
X715616Y170501D01*
X742951Y174499D02*
X741952Y175499D01*
X739952D01*
X738952Y174499D01*
Y170501D01*
X739952Y169501D01*
X741952D01*
X742951Y170501D01*
X744950Y169501D02*
X746950D01*
X745950D01*
Y175499D01*
X744950Y174499D01*
X753948Y175499D02*
X751948Y174499D01*
X749949Y172500D01*
Y170501D01*
X750948Y169501D01*
X752948D01*
X753948Y170501D01*
Y171500D01*
X752948Y172500D01*
X749949D01*
X742951Y165999D02*
X741952Y166999D01*
X739952D01*
X738953Y165999D01*
Y162001D01*
X739952Y161001D01*
X741952D01*
X742951Y162001D01*
X748949Y161001D02*
X744951D01*
X748949Y165000D01*
Y165999D01*
X747950Y166999D01*
X745950D01*
X744951Y165999D01*
X753948Y161001D02*
Y166999D01*
X750949Y164000D01*
X754947D01*
X742451Y216499D02*
X741452Y217499D01*
X739452D01*
X738453Y216499D01*
Y212501D01*
X739452Y211501D01*
X741452D01*
X742451Y212501D01*
X748449Y211501D02*
X744451D01*
X748449Y215500D01*
Y216499D01*
X747450Y217499D01*
X745450D01*
X744451Y216499D01*
X750449D02*
X751448Y217499D01*
X753448D01*
X754447Y216499D01*
Y212501D01*
X753448Y211501D01*
X751448D01*
X750449Y212501D01*
Y216499D01*
X741951Y224999D02*
X740951Y225999D01*
X738952D01*
X737952Y224999D01*
Y221001D01*
X738952Y220001D01*
X740951D01*
X741951Y221001D01*
X743951Y220001D02*
X745950D01*
X744950D01*
Y225999D01*
X743951Y224999D01*
X752948Y220001D02*
X748949D01*
X752948Y224000D01*
Y224999D01*
X751948Y225999D01*
X749949D01*
X748949Y224999D01*
X707118D02*
X706118Y225999D01*
X704118D01*
X703119Y224999D01*
Y221001D01*
X704118Y220001D01*
X706118D01*
X707118Y221001D01*
X709117Y220001D02*
X711116D01*
X710116D01*
Y225999D01*
X709117Y224999D01*
X714115Y220001D02*
X716115D01*
X715115D01*
Y225999D01*
X714115Y224999D01*
X707118Y216499D02*
X706118Y217499D01*
X704119D01*
X703119Y216499D01*
Y212501D01*
X704119Y211501D01*
X706118D01*
X707118Y212501D01*
X709117Y211501D02*
X711117D01*
X710117D01*
Y217499D01*
X709117Y216499D01*
X714115Y212501D02*
X715115Y211501D01*
X717114D01*
X718114Y212501D01*
Y216499D01*
X717114Y217499D01*
X715115D01*
X714115Y216499D01*
Y215500D01*
X715115Y214500D01*
X718114D01*
X670285Y224999D02*
X669285Y225999D01*
X667285D01*
X666286Y224999D01*
Y221001D01*
X667285Y220001D01*
X669285D01*
X670285Y221001D01*
X672284Y220001D02*
X674283D01*
X673283D01*
Y225999D01*
X672284Y224999D01*
X677282D02*
X678282Y225999D01*
X680281D01*
X681281Y224999D01*
Y221001D01*
X680281Y220001D01*
X678282D01*
X677282Y221001D01*
Y224999D01*
X670285Y216999D02*
X669285Y217999D01*
X667285D01*
X666286Y216999D01*
Y213001D01*
X667285Y212001D01*
X669285D01*
X670285Y213001D01*
X672284Y212001D02*
X674283D01*
X673283D01*
Y217999D01*
X672284Y216999D01*
X677282D02*
X678282Y217999D01*
X680281D01*
X681281Y216999D01*
Y216000D01*
X680281Y215000D01*
X681281Y214000D01*
Y213001D01*
X680281Y212001D01*
X678282D01*
X677282Y213001D01*
Y214000D01*
X678282Y215000D01*
X677282Y216000D01*
Y216999D01*
X678282Y215000D02*
X680281D01*
X666285Y228501D02*
Y234499D01*
X669284D01*
X670284Y233499D01*
Y231500D01*
X669284Y230500D01*
X666285D01*
X668284D02*
X670284Y228501D01*
X676282Y234499D02*
X674282Y233499D01*
X672283Y231500D01*
Y229501D01*
X673283Y228501D01*
X675282D01*
X676282Y229501D01*
Y230500D01*
X675282Y231500D01*
X672283D01*
X632952Y228501D02*
Y234499D01*
X635951D01*
X636950Y233499D01*
Y231500D01*
X635951Y230500D01*
X632952D01*
X634951D02*
X636950Y228501D01*
X642948Y234499D02*
X638950D01*
Y231500D01*
X640949Y232500D01*
X641949D01*
X642948Y231500D01*
Y229501D01*
X641949Y228501D01*
X639949D01*
X638950Y229501D01*
X636951Y216999D02*
X635952Y217999D01*
X633952D01*
X632952Y216999D01*
Y213001D01*
X633952Y212001D01*
X635952D01*
X636951Y213001D01*
X638950Y212001D02*
X640950D01*
X639950D01*
Y217999D01*
X638950Y216999D01*
X643949Y217999D02*
X647948D01*
Y216999D01*
X643949Y213001D01*
Y212001D01*
X636950Y224999D02*
X635951Y225999D01*
X633951D01*
X632952Y224999D01*
Y221001D01*
X633951Y220001D01*
X635951D01*
X636950Y221001D01*
X638950D02*
X639949Y220001D01*
X641949D01*
X642948Y221001D01*
Y224999D01*
X641949Y225999D01*
X639949D01*
X638950Y224999D01*
Y224000D01*
X639949Y223000D01*
X642948D01*
X612002Y180099D02*
Y174101D01*
Y177100D01*
X616000D01*
Y180099D01*
Y174101D01*
X618000Y175101D02*
X618999Y174101D01*
X620999D01*
X621998Y175101D01*
Y179099D01*
X620999Y180099D01*
X618999D01*
X618000Y179099D01*
Y178100D01*
X618999Y177100D01*
X621998D01*
X596199Y432898D02*
X595199Y433898D01*
X593200D01*
X592200Y432898D01*
Y428900D01*
X593200Y427900D01*
X595199D01*
X596199Y428900D01*
X602197Y427900D02*
X598198D01*
X602197Y431899D01*
Y432898D01*
X601197Y433898D01*
X599198D01*
X598198Y432898D01*
X608195Y433898D02*
X604196D01*
Y430899D01*
X606195Y431899D01*
X607195D01*
X608195Y430899D01*
Y428900D01*
X607195Y427900D01*
X605196D01*
X604196Y428900D01*
X799501Y431699D02*
X798502Y432699D01*
X796502D01*
X795503Y431699D01*
Y427701D01*
X796502Y426701D01*
X798502D01*
X799501Y427701D01*
X805499Y426701D02*
X801501D01*
X805499Y430700D01*
Y431699D01*
X804500Y432699D01*
X802500D01*
X801501Y431699D01*
X811497Y432699D02*
X809498Y431699D01*
X807499Y429700D01*
Y427701D01*
X808498Y426701D01*
X810498D01*
X811497Y427701D01*
Y428700D01*
X810498Y429700D01*
X807499D01*
X649802Y374999D02*
Y369001D01*
Y372000D01*
X653801D01*
Y374999D01*
Y369001D01*
X655800D02*
X657799D01*
X656800D01*
Y374999D01*
X655800Y373999D01*
X660799Y369001D02*
X662798D01*
X661798D01*
Y374999D01*
X660799Y373999D01*
X704002Y447899D02*
Y441901D01*
Y444900D01*
X708001D01*
Y447899D01*
Y441901D01*
X710001D02*
X712000D01*
X711000D01*
Y447899D01*
X710001Y446899D01*
X714999D02*
X715999Y447899D01*
X717998D01*
X718998Y446899D01*
Y445900D01*
X717998Y444900D01*
X716998D01*
X717998D01*
X718998Y443900D01*
Y442901D01*
X717998Y441901D01*
X715999D01*
X714999Y442901D01*
X692102Y382499D02*
Y377501D01*
X693101Y376501D01*
X695101D01*
X696100Y377501D01*
Y382499D01*
X702098D02*
X698100D01*
Y379500D01*
X700099Y380500D01*
X701099D01*
X702098Y379500D01*
Y377501D01*
X701099Y376501D01*
X699099D01*
X698100Y377501D01*
X794302Y372799D02*
Y366801D01*
Y369800D01*
X798301D01*
Y372799D01*
Y366801D01*
X800301D02*
X802300D01*
X801300D01*
Y372799D01*
X800301Y371799D01*
X809298Y372799D02*
X805299D01*
Y369800D01*
X807298Y370800D01*
X808298D01*
X809298Y369800D01*
Y367801D01*
X808298Y366801D01*
X806299D01*
X805299Y367801D01*
X794802Y272399D02*
Y266401D01*
Y269400D01*
X798801D01*
Y272399D01*
Y266401D01*
X800801D02*
X802800D01*
X801800D01*
Y272399D01*
X800801Y271399D01*
X809798Y272399D02*
X807798Y271399D01*
X805799Y269400D01*
Y267401D01*
X806798Y266401D01*
X808798D01*
X809798Y267401D01*
Y268400D01*
X808798Y269400D01*
X805799D01*
X693602Y281499D02*
Y276501D01*
X694601Y275501D01*
X696601D01*
X697600Y276501D01*
Y281499D01*
X703598D02*
X701599Y280499D01*
X699600Y278500D01*
Y276501D01*
X700599Y275501D01*
X702599D01*
X703598Y276501D01*
Y277500D01*
X702599Y278500D01*
X699600D01*
X458702Y13701D02*
Y19699D01*
X461701D01*
X462700Y18699D01*
Y16700D01*
X461701Y15700D01*
X458702D01*
X468698Y13701D02*
X464700D01*
X468698Y17700D01*
Y18699D01*
X467699Y19699D01*
X465699D01*
X464700Y18699D01*
X373601Y12401D02*
Y18399D01*
X376600D01*
X377600Y17399D01*
Y15400D01*
X376600Y14400D01*
X373601D01*
X379599Y12401D02*
X381599D01*
X380599D01*
Y18399D01*
X379599Y17399D01*
X111226Y455599D02*
X109227D01*
X110227D01*
Y450601D01*
X109227Y449601D01*
X108227D01*
X107227Y450601D01*
X113225Y449601D02*
X115225D01*
X114225D01*
Y455599D01*
X113225Y454599D01*
X122223Y455599D02*
X120223Y454599D01*
X118224Y452600D01*
Y450601D01*
X119224Y449601D01*
X121223D01*
X122223Y450601D01*
Y451600D01*
X121223Y452600D01*
X118224D01*
X111151Y507949D02*
X109152D01*
X110152D01*
Y502951D01*
X109152Y501951D01*
X108152D01*
X107152Y502951D01*
X113151Y501951D02*
X115150D01*
X114150D01*
Y507949D01*
X113151Y506949D01*
X122148Y507949D02*
X118149D01*
Y504950D01*
X120148Y505950D01*
X121148D01*
X122148Y504950D01*
Y502951D01*
X121148Y501951D01*
X119149D01*
X118149Y502951D01*
X133900Y78799D02*
X131901D01*
X132901D01*
Y73801D01*
X131901Y72801D01*
X130901D01*
X129902Y73801D01*
X138899Y72801D02*
Y78799D01*
X135900Y75800D01*
X139898D01*
X65799Y79298D02*
X63799D01*
X64799D01*
Y74300D01*
X63799Y73300D01*
X62800D01*
X61800Y74300D01*
X67798Y78298D02*
X68798Y79298D01*
X70797D01*
X71797Y78298D01*
Y77299D01*
X70797Y76299D01*
X69797D01*
X70797D01*
X71797Y75299D01*
Y74300D01*
X70797Y73300D01*
X68798D01*
X67798Y74300D01*
X835202Y231199D02*
Y225201D01*
Y228200D01*
X839201D01*
Y231199D01*
Y225201D01*
X841201D02*
X843200D01*
X842200D01*
Y231199D01*
X841201Y230199D01*
X846199D02*
X847199Y231199D01*
X849198D01*
X850198Y230199D01*
Y226201D01*
X849198Y225201D01*
X847199D01*
X846199Y226201D01*
Y230199D01*
X724102Y336499D02*
Y330501D01*
Y333500D01*
X728101D01*
Y336499D01*
Y330501D01*
X730100D02*
X732100D01*
X731100D01*
Y336499D01*
X730100Y335499D01*
X738098Y330501D02*
Y336499D01*
X735099Y333500D01*
X739098D01*
X650602Y273899D02*
Y267901D01*
Y270900D01*
X654601D01*
Y273899D01*
Y267901D01*
X656601D02*
X658600D01*
X657600D01*
Y273899D01*
X656601Y272899D01*
X665598Y267901D02*
X661599D01*
X665598Y271900D01*
Y272899D01*
X664598Y273899D01*
X662599D01*
X661599Y272899D01*
X800901Y330099D02*
X799902Y331099D01*
X797902D01*
X796903Y330099D01*
Y326101D01*
X797902Y325101D01*
X799902D01*
X800901Y326101D01*
X806899Y325101D02*
X802901D01*
X806899Y329100D01*
Y330099D01*
X805900Y331099D01*
X803900D01*
X802901Y330099D01*
X808899D02*
X809898Y331099D01*
X811898D01*
X812897Y330099D01*
Y329100D01*
X811898Y328100D01*
X812897Y327100D01*
Y326101D01*
X811898Y325101D01*
X809898D01*
X808899Y326101D01*
Y327100D01*
X809898Y328100D01*
X808899Y329100D01*
Y330099D01*
X809898Y328100D02*
X811898D01*
X597101Y330999D02*
X596102Y331999D01*
X594102D01*
X593103Y330999D01*
Y327001D01*
X594102Y326001D01*
X596102D01*
X597101Y327001D01*
X603099Y326001D02*
X599101D01*
X603099Y330000D01*
Y330999D01*
X602100Y331999D01*
X600100D01*
X599101Y330999D01*
X605099Y331999D02*
X609097D01*
Y330999D01*
X605099Y327001D01*
Y326001D01*
D13*
X807050Y587400D02*
X835650D01*
X807050Y540800D02*
Y587400D01*
Y540800D02*
X835650D01*
Y587400D01*
X476400Y540800D02*
Y587400D01*
X505000D01*
Y540800D02*
Y587400D01*
X476400Y540800D02*
X505000D01*
X396000Y585900D02*
X424600D01*
X396000Y539300D02*
Y585900D01*
Y539300D02*
X424600D01*
Y585900D01*
X61100Y70000D02*
X92100D01*
X61100Y39000D02*
Y70000D01*
X92100Y39000D02*
Y70000D01*
X61100Y39000D02*
X92100D01*
X109100Y70000D02*
X140100D01*
X109100Y39000D02*
Y70000D01*
X140100Y39000D02*
Y70000D01*
X109100Y39000D02*
X140100D01*
X109100Y406000D02*
X140100D01*
X109100Y375000D02*
Y406000D01*
X140100Y375000D02*
Y406000D01*
X109100Y375000D02*
X140100D01*
X61100Y406000D02*
X92100D01*
X61100Y375000D02*
Y406000D01*
X92100Y375000D02*
Y406000D01*
X61100Y375000D02*
X92100D01*
X205100Y406000D02*
X236100D01*
X205100Y375000D02*
Y406000D01*
X236100Y375000D02*
Y406000D01*
X205100Y375000D02*
X236100D01*
X253100Y406000D02*
X284100D01*
X253100Y375000D02*
Y406000D01*
X284100Y375000D02*
Y406000D01*
X253100Y375000D02*
X284100D01*
X253100Y70000D02*
X284100D01*
X253100Y39000D02*
Y70000D01*
X284100Y39000D02*
Y70000D01*
X253100Y39000D02*
X284100D01*
X205100Y70000D02*
X236100D01*
X205100Y39000D02*
Y70000D01*
X236100Y39000D02*
Y70000D01*
X205100Y39000D02*
X236100D01*
X44400Y375000D02*
Y406000D01*
X13400D02*
X44400D01*
X13400Y375000D02*
X44400D01*
X13400D02*
Y406000D01*
X44400Y39000D02*
Y70000D01*
X13400D02*
X44400D01*
X13400Y39000D02*
X44400D01*
X13400D02*
Y70000D01*
X191800Y375000D02*
Y406000D01*
X160800D02*
X191800D01*
X160800Y375000D02*
X191800D01*
X160800D02*
Y406000D01*
X191800Y39000D02*
Y70000D01*
X160800D02*
X191800D01*
X160800Y39000D02*
X191800D01*
X160800D02*
Y70000D01*
X57700Y527800D02*
X104300D01*
Y499200D02*
Y527800D01*
X57700Y499200D02*
X104300D01*
X57700D02*
Y527800D01*
X104300Y445200D02*
Y473800D01*
X57700D02*
X104300D01*
X57700Y445200D02*
Y473800D01*
Y445200D02*
X104300D01*
X387300Y527800D02*
X433900D01*
Y499200D02*
Y527800D01*
X387300Y499200D02*
X433900D01*
X387300D02*
Y527800D01*
X433900Y445200D02*
Y473800D01*
X387300D02*
X433900D01*
X387300Y445200D02*
Y473800D01*
Y445200D02*
X433900D01*
X795300D02*
X841900D01*
X795300D02*
Y473800D01*
X841900D01*
Y445200D02*
Y473800D01*
X795300Y499200D02*
Y527800D01*
Y499200D02*
X841900D01*
Y527800D01*
X795300D02*
X841900D01*
X465800Y445200D02*
X512400D01*
X465800D02*
Y473800D01*
X512400D01*
Y445200D02*
Y473800D01*
X465700Y499200D02*
Y527800D01*
Y499200D02*
X512300D01*
Y527800D01*
X465700D02*
X512300D01*
X65300Y539400D02*
Y586000D01*
X93900D01*
Y539400D02*
Y586000D01*
X65300Y539400D02*
X93900D01*
X689292Y284950D02*
X704908D01*
X689292Y306050D02*
X704908D01*
X687792Y385950D02*
X703407D01*
X687792Y407050D02*
X703407D01*
D14*
X482450Y377000D02*
Y417000D01*
X517450D01*
Y377000D02*
Y417000D01*
X482450Y377000D02*
X517450D01*
X482450Y294000D02*
Y334000D01*
X517450D01*
Y294000D02*
Y334000D01*
X482450Y294000D02*
X517450D01*
X482447Y122392D02*
Y162392D01*
X517447D01*
Y122392D02*
Y162392D01*
X482447Y122392D02*
X517447D01*
X482447Y205392D02*
Y245392D01*
X517447D01*
Y205392D02*
Y245392D01*
X482447Y205392D02*
X517447D01*
X686600Y318200D02*
Y338600D01*
X721600D01*
Y318200D02*
Y338600D01*
X686600Y318200D02*
X721600D01*
X685600Y419200D02*
Y439600D01*
X720600D01*
Y419200D02*
Y439600D01*
X685600Y419200D02*
X720600D01*
X317150Y417000D02*
X337550D01*
Y382000D02*
Y417000D01*
X317150Y382000D02*
X337550D01*
X317150D02*
Y417000D01*
X317147Y162392D02*
X337547D01*
Y127392D02*
Y162392D01*
X317147Y127392D02*
X337547D01*
X317147D02*
Y162392D01*
Y245492D02*
X337547D01*
Y210492D02*
Y245492D01*
X317147Y210492D02*
X337547D01*
X317147D02*
Y245492D01*
X317150Y334000D02*
X337550D01*
Y299000D02*
Y334000D01*
X317150Y299000D02*
X337550D01*
X317150D02*
Y334000D01*
X612100Y266500D02*
Y326500D01*
X647100D01*
Y266500D02*
Y326500D01*
X612100Y266500D02*
X647100D01*
X830950Y173000D02*
Y233000D01*
X795950Y173000D02*
X830950D01*
X795950D02*
Y233000D01*
X830950D01*
X757100Y264500D02*
Y324500D01*
X792100D01*
Y264500D02*
Y324500D01*
X757100Y264500D02*
X792100D01*
X755600Y365500D02*
Y425500D01*
X790600D01*
Y365500D02*
Y425500D01*
X755600Y365500D02*
X790600D01*
X610600Y367500D02*
Y427500D01*
X645600D01*
Y367500D02*
Y427500D01*
X610600Y367500D02*
X645600D01*
X608950Y173000D02*
Y233000D01*
X573950Y173000D02*
X608950D01*
X573950D02*
Y233000D01*
X608950D01*
X829950Y56000D02*
Y116000D01*
X794950Y56000D02*
X829950D01*
X794950D02*
Y116000D01*
X829950D01*
X384737Y377028D02*
X391627D01*
X384737Y417972D02*
X391627D01*
Y377028D02*
Y417972D01*
X384737Y294028D02*
X391627D01*
X384737Y334972D02*
X391627D01*
Y294028D02*
Y334972D01*
X384734Y122420D02*
X391624D01*
X384734Y163365D02*
X391624D01*
Y122420D02*
Y163365D01*
X384734Y205420D02*
X391624D01*
X384734Y246365D02*
X391624D01*
Y205420D02*
Y246365D01*
X762663Y180878D02*
X764237D01*
X762663Y178122D02*
X764237D01*
X762663Y50378D02*
X764237D01*
X762663Y47622D02*
X764237D01*
X761663Y232378D02*
X763237D01*
X761663Y229622D02*
X763237D01*
X762663Y109378D02*
X764237D01*
X762663Y106622D02*
X764237D01*
X440163Y391622D02*
X441737D01*
X440163Y394378D02*
X441737D01*
X440163Y308622D02*
X441737D01*
X440163Y311378D02*
X441737D01*
X440160Y220014D02*
X441734D01*
X440160Y222770D02*
X441734D01*
X440160Y137014D02*
X441734D01*
X440160Y139770D02*
X441734D01*
X690996Y180878D02*
X692571D01*
X690996Y178122D02*
X692571D01*
X654163Y232378D02*
X655737D01*
X654163Y229622D02*
X655737D01*
X689996Y232378D02*
X691571D01*
X689996Y229622D02*
X691571D01*
X655163Y180878D02*
X656737D01*
X655163Y178122D02*
X656737D01*
X653663Y109378D02*
X655237D01*
X653663Y106622D02*
X655237D01*
X599163Y109378D02*
X600737D01*
X599163Y106622D02*
X600737D01*
X653663Y50378D02*
X655237D01*
X653663Y47622D02*
X655237D01*
X599163Y50378D02*
X600737D01*
X599163Y47622D02*
X600737D01*
X708163Y109378D02*
X709737D01*
X708163Y106622D02*
X709737D01*
X725829Y232378D02*
X727404D01*
X725829Y229622D02*
X727404D01*
X726829Y180878D02*
X728404D01*
X726829Y178122D02*
X728404D01*
X708163Y50378D02*
X709737D01*
X708163Y47622D02*
X709737D01*
D15*
X475900Y93600D02*
X476100Y93800D01*
X476300Y93600D01*
X484300D02*
X484500Y93800D01*
X484700Y93600D01*
X479669Y104400D02*
X480869D01*
X479669Y104500D02*
X480869D01*
X479669Y104900D02*
X480869D01*
X479669Y104700D02*
X480869D01*
X479700Y104200D02*
X480900D01*
X479700Y104000D02*
X480900D01*
X479500Y103800D02*
X481100D01*
X479500Y103600D02*
X481100D01*
X479500Y103400D02*
X481100D01*
X479500Y103200D02*
X481100D01*
X479300Y103000D02*
X481100D01*
X479300Y102800D02*
X481300D01*
X479300Y102600D02*
X481300D01*
X479300Y102400D02*
X481300D01*
X479300Y102200D02*
X481300D01*
X479100Y102000D02*
X481300D01*
X479100Y101800D02*
X481500D01*
X479100Y101600D02*
X481500D01*
X479100Y101400D02*
X481500D01*
X479100Y101200D02*
X481500D01*
X479100Y101000D02*
X481500D01*
X478900Y100800D02*
X481700D01*
X478900Y100600D02*
X481700D01*
X478900Y100400D02*
X481700D01*
X478900Y100200D02*
X481700D01*
X478700Y100000D02*
X481700D01*
X478700Y99800D02*
X481900D01*
X478700Y99600D02*
X481900D01*
X478700Y99400D02*
X481900D01*
X478700Y99200D02*
X481900D01*
X478500Y99000D02*
X482100D01*
X478500Y98800D02*
X482100D01*
X478500Y98600D02*
X482100D01*
X478500Y98400D02*
X482100D01*
X478500Y98200D02*
X482100D01*
X478300Y98000D02*
X482100D01*
X478300Y97800D02*
X482300D01*
X478300Y97600D02*
X482300D01*
X478300Y97400D02*
X482300D01*
X478300Y97200D02*
X482300D01*
X478100Y97000D02*
X482500D01*
X478100Y96800D02*
X482500D01*
X478100Y96600D02*
X482500D01*
X478100Y96400D02*
X482500D01*
X478100Y96200D02*
X482500D01*
X477900Y96000D02*
X482700D01*
X477900Y95800D02*
X482700D01*
X477900Y95600D02*
X482700D01*
X477900Y95400D02*
X482700D01*
X477700Y95200D02*
X482700D01*
X477700Y95000D02*
X482700D01*
X477700Y94800D02*
X482900D01*
X477700Y94600D02*
X482900D01*
X477700Y94400D02*
X482900D01*
X477500Y94200D02*
X482900D01*
X477500Y94000D02*
X483100D01*
X477500Y93800D02*
X483100D01*
X475900Y93600D02*
X476300D01*
X477500D02*
X483100D01*
X484300D02*
X484700D01*
X475900Y93400D02*
X476500D01*
X477500D02*
X483100D01*
X484100D02*
X484700D01*
X475900Y93200D02*
X476700D01*
X477500D02*
X483100D01*
X483900D02*
X484700D01*
X475900Y93000D02*
X476900D01*
X477300D02*
X483300D01*
X483700D02*
X484700D01*
X475900Y92800D02*
X476900D01*
X477300D02*
X483300D01*
X483500D02*
X484700D01*
X475900Y92600D02*
X477100D01*
X477300D02*
X483300D01*
X483500D02*
X484700D01*
X475900Y92400D02*
X484700D01*
X475900Y92200D02*
X484700D01*
X475900Y92000D02*
X484700D01*
X475900Y91800D02*
X484700D01*
X475900Y91600D02*
X484700D01*
X475900Y91400D02*
X484700D01*
X475900Y91200D02*
X484700D01*
X525900D02*
X526900D01*
X475900Y91000D02*
X484700D01*
X524700D02*
X528100D01*
X475900Y90800D02*
X484700D01*
X489100D02*
X495300D01*
X498100D02*
X499700D01*
X503900D02*
X505500D01*
X509900D02*
X511500D01*
X512500D02*
X518300D01*
X524100D02*
X528500D01*
X475900Y90600D02*
X484700D01*
X489100D02*
X495900D01*
X498100D02*
X499700D01*
X503900D02*
X505700D01*
X509900D02*
X511500D01*
X512500D02*
X518700D01*
X523700D02*
X528900D01*
X475900Y90400D02*
X484700D01*
X489100D02*
X496100D01*
X498100D02*
X499700D01*
X503900D02*
X505700D01*
X509900D02*
X511500D01*
X512500D02*
X519100D01*
X523500D02*
X529300D01*
X475900Y90200D02*
X484700D01*
X489100D02*
X496500D01*
X498300D02*
X499900D01*
X503900D02*
X505700D01*
X509700D02*
X511300D01*
X512500D02*
X519300D01*
X523100D02*
X529500D01*
X475900Y90000D02*
X484700D01*
X489100D02*
X496700D01*
X498300D02*
X499900D01*
X503700D02*
X505900D01*
X509700D02*
X511300D01*
X512500D02*
X519500D01*
X522900D02*
X529700D01*
X475900Y89800D02*
X484700D01*
X489100D02*
X496900D01*
X498300D02*
X499900D01*
X503700D02*
X505900D01*
X509700D02*
X511300D01*
X512500D02*
X519700D01*
X522700D02*
X525300D01*
X527300D02*
X529900D01*
X475900Y89600D02*
X484700D01*
X489100D02*
X496900D01*
X498500D02*
X500100D01*
X503700D02*
X505900D01*
X509700D02*
X511100D01*
X512500D02*
X514100D01*
X517500D02*
X519900D01*
X522500D02*
X524900D01*
X527900D02*
X530100D01*
X475900Y89400D02*
X477700D01*
X478500D02*
X479900D01*
X480700D02*
X482100D01*
X482900D02*
X484700D01*
X489100D02*
X497100D01*
X498500D02*
X500100D01*
X503500D02*
X505900D01*
X509500D02*
X511100D01*
X512500D02*
X514100D01*
X518100D02*
X519900D01*
X522500D02*
X524500D01*
X528300D02*
X530300D01*
X475900Y89200D02*
X477700D01*
X478500D02*
X479900D01*
X480700D02*
X482100D01*
X482900D02*
X484700D01*
X489100D02*
X497100D01*
X498500D02*
X500100D01*
X503500D02*
X506100D01*
X509500D02*
X511100D01*
X512500D02*
X514100D01*
X518300D02*
X520100D01*
X522300D02*
X524300D01*
X528500D02*
X530300D01*
X475900Y89000D02*
X477700D01*
X478500D02*
X479900D01*
X480700D02*
X482100D01*
X482900D02*
X484700D01*
X489100D02*
X497100D01*
X498500D02*
X500100D01*
X503500D02*
X506100D01*
X509500D02*
X510900D01*
X512500D02*
X514100D01*
X518500D02*
X520100D01*
X522100D02*
X524100D01*
X528700D02*
X530500D01*
X475900Y88800D02*
X477700D01*
X478500D02*
X479900D01*
X480700D02*
X482100D01*
X482900D02*
X484700D01*
X489100D02*
X491700D01*
X494300D02*
X497300D01*
X498700D02*
X500300D01*
X503300D02*
X506100D01*
X509300D02*
X510900D01*
X512500D02*
X514100D01*
X518500D02*
X520100D01*
X522100D02*
X523900D01*
X528900D02*
X530500D01*
X475900Y88600D02*
X477700D01*
X478500D02*
X479900D01*
X480700D02*
X482100D01*
X482900D02*
X484700D01*
X489100D02*
X491700D01*
X494500D02*
X497300D01*
X498700D02*
X500300D01*
X503300D02*
X504700D01*
X504900D02*
X506300D01*
X509300D02*
X510900D01*
X512500D02*
X514100D01*
X518500D02*
X520100D01*
X521900D02*
X523700D01*
X528900D02*
X530700D01*
X475900Y88400D02*
X477700D01*
X478500D02*
X479900D01*
X480700D02*
X482100D01*
X482900D02*
X484700D01*
X489100D02*
X491700D01*
X494700D02*
X497300D01*
X498700D02*
X500300D01*
X503300D02*
X504700D01*
X504900D02*
X506300D01*
X509300D02*
X510900D01*
X512500D02*
X514100D01*
X518700D02*
X520100D01*
X521900D02*
X523500D01*
X529100D02*
X530700D01*
X475900Y88200D02*
X477700D01*
X478500D02*
X479900D01*
X480700D02*
X482100D01*
X482900D02*
X484700D01*
X489100D02*
X491700D01*
X494700D02*
X497300D01*
X498900D02*
X500500D01*
X503300D02*
X504700D01*
X504900D02*
X506300D01*
X509300D02*
X510700D01*
X512500D02*
X514100D01*
X518700D02*
X520100D01*
X521700D02*
X523500D01*
X529100D02*
X530900D01*
X475900Y88000D02*
X477700D01*
X478500D02*
X479900D01*
X480700D02*
X482100D01*
X482900D02*
X484700D01*
X489100D02*
X491700D01*
X494700D02*
X497300D01*
X498900D02*
X500500D01*
X503100D02*
X504500D01*
X505100D02*
X506500D01*
X509100D02*
X510700D01*
X512500D02*
X514100D01*
X518700D02*
X520100D01*
X521700D02*
X523500D01*
X529300D02*
X530500D01*
X475900Y87800D02*
X477700D01*
X478500D02*
X479900D01*
X480700D02*
X482100D01*
X482900D02*
X484700D01*
X489100D02*
X491700D01*
X494700D02*
X497100D01*
X498900D02*
X500500D01*
X503100D02*
X504500D01*
X505100D02*
X506500D01*
X509100D02*
X510700D01*
X512500D02*
X514100D01*
X518700D02*
X520100D01*
X521700D02*
X523300D01*
X529300D02*
X529500D01*
X475900Y87600D02*
X477700D01*
X478500D02*
X479900D01*
X480700D02*
X482100D01*
X482900D02*
X484700D01*
X489100D02*
X491700D01*
X494500D02*
X497100D01*
X499100D02*
X500500D01*
X503100D02*
X504500D01*
X505100D02*
X506500D01*
X509100D02*
X510500D01*
X512500D02*
X514100D01*
X518700D02*
X520100D01*
X521700D02*
X523300D01*
X475900Y87400D02*
X477700D01*
X478500D02*
X479900D01*
X480700D02*
X482100D01*
X482900D02*
X484700D01*
X489100D02*
X491700D01*
X494300D02*
X497100D01*
X499100D02*
X500700D01*
X502900D02*
X504300D01*
X505100D02*
X506700D01*
X509100D02*
X510500D01*
X512500D02*
X514100D01*
X518500D02*
X520100D01*
X521500D02*
X523300D01*
X475900Y87200D02*
X477700D01*
X478500D02*
X479900D01*
X480700D02*
X482100D01*
X482900D02*
X484700D01*
X489100D02*
X496900D01*
X499100D02*
X500700D01*
X502900D02*
X504300D01*
X505300D02*
X506700D01*
X508900D02*
X510500D01*
X512500D02*
X514100D01*
X518500D02*
X520100D01*
X521500D02*
X523100D01*
X475900Y87000D02*
X477700D01*
X478500D02*
X479900D01*
X480700D02*
X482100D01*
X482900D02*
X484700D01*
X489100D02*
X496700D01*
X499300D02*
X500700D01*
X502900D02*
X504300D01*
X505300D02*
X506700D01*
X508900D02*
X510300D01*
X512500D02*
X514100D01*
X518300D02*
X520100D01*
X521500D02*
X523100D01*
X475900Y86800D02*
X477700D01*
X478500D02*
X479900D01*
X480700D02*
X482100D01*
X482900D02*
X484700D01*
X489100D02*
X496700D01*
X499300D02*
X500900D01*
X502700D02*
X504100D01*
X505300D02*
X506900D01*
X508900D02*
X510300D01*
X512500D02*
X514100D01*
X517900D02*
X519900D01*
X521500D02*
X523100D01*
X475900Y86600D02*
X477700D01*
X478500D02*
X479900D01*
X480700D02*
X482100D01*
X482900D02*
X484700D01*
X489100D02*
X496300D01*
X499300D02*
X500900D01*
X502700D02*
X504100D01*
X505500D02*
X506900D01*
X508700D02*
X510300D01*
X512500D02*
X514100D01*
X517300D02*
X519900D01*
X521500D02*
X523100D01*
X475900Y86400D02*
X477700D01*
X478500D02*
X479900D01*
X480700D02*
X482100D01*
X482900D02*
X484700D01*
X489100D02*
X496100D01*
X499300D02*
X500900D01*
X502700D02*
X504100D01*
X505500D02*
X506900D01*
X508700D02*
X510100D01*
X512500D02*
X519700D01*
X521500D02*
X523100D01*
X475900Y86200D02*
X477700D01*
X478500D02*
X479900D01*
X480700D02*
X482100D01*
X482900D02*
X484700D01*
X489100D02*
X495700D01*
X499500D02*
X500900D01*
X502500D02*
X503900D01*
X505500D02*
X506900D01*
X508700D02*
X510100D01*
X512500D02*
X519500D01*
X521500D02*
X523100D01*
X475900Y86000D02*
X477700D01*
X478500D02*
X479900D01*
X480700D02*
X482100D01*
X482900D02*
X484700D01*
X489100D02*
X496300D01*
X499500D02*
X501100D01*
X502500D02*
X503900D01*
X505700D02*
X507100D01*
X508700D02*
X510100D01*
X512500D02*
X519300D01*
X521500D02*
X523100D01*
X475900Y85800D02*
X477700D01*
X478500D02*
X479900D01*
X480700D02*
X482100D01*
X482900D02*
X484700D01*
X489100D02*
X496700D01*
X499500D02*
X501100D01*
X502500D02*
X503900D01*
X505700D02*
X507100D01*
X508500D02*
X510100D01*
X512500D02*
X519100D01*
X521500D02*
X523100D01*
X475900Y85600D02*
X477700D01*
X478500D02*
X479900D01*
X480700D02*
X482100D01*
X482900D02*
X484700D01*
X489100D02*
X496900D01*
X499700D02*
X501100D01*
X502500D02*
X503900D01*
X505700D02*
X507300D01*
X508500D02*
X509900D01*
X512500D02*
X518700D01*
X521500D02*
X523100D01*
X475900Y85400D02*
X477700D01*
X478500D02*
X479900D01*
X480700D02*
X482100D01*
X482900D02*
X484700D01*
X489100D02*
X497100D01*
X499700D02*
X501100D01*
X502300D02*
X503700D01*
X505900D02*
X507300D01*
X508500D02*
X509900D01*
X512500D02*
X518100D01*
X521500D02*
X523100D01*
X475900Y85200D02*
X477700D01*
X478500D02*
X479900D01*
X480700D02*
X482100D01*
X482900D02*
X484700D01*
X489100D02*
X491700D01*
X494100D02*
X497300D01*
X499700D02*
X501300D01*
X502300D02*
X503700D01*
X505900D02*
X507300D01*
X508300D02*
X509900D01*
X512500D02*
X514100D01*
X516300D02*
X518100D01*
X521500D02*
X523100D01*
X475900Y85000D02*
X477700D01*
X478500D02*
X479900D01*
X480700D02*
X482100D01*
X482900D02*
X484700D01*
X489100D02*
X491700D01*
X494700D02*
X497300D01*
X499900D02*
X501300D01*
X502300D02*
X503700D01*
X505900D02*
X507300D01*
X508300D02*
X509700D01*
X512500D02*
X514100D01*
X516500D02*
X518300D01*
X521500D02*
X523300D01*
X529300D02*
X530300D01*
X475900Y84800D02*
X477700D01*
X478500D02*
X479900D01*
X480700D02*
X482100D01*
X482900D02*
X484700D01*
X489100D02*
X491700D01*
X494900D02*
X497500D01*
X499900D02*
X501300D01*
X502100D02*
X503500D01*
X506100D02*
X507500D01*
X508300D02*
X509700D01*
X512500D02*
X514100D01*
X516700D02*
X518300D01*
X521500D02*
X523300D01*
X529300D02*
X530900D01*
X475900Y84600D02*
X477700D01*
X478500D02*
X479900D01*
X480700D02*
X482100D01*
X482900D02*
X484700D01*
X489100D02*
X491700D01*
X494900D02*
X497500D01*
X499900D02*
X501500D01*
X502100D02*
X503500D01*
X506100D02*
X507500D01*
X508300D02*
X509700D01*
X512500D02*
X514100D01*
X516700D02*
X518500D01*
X521700D02*
X523300D01*
X529300D02*
X530900D01*
X475900Y84400D02*
X477700D01*
X478500D02*
X479900D01*
X480700D02*
X482100D01*
X482900D02*
X484700D01*
X489100D02*
X491700D01*
X494900D02*
X497500D01*
X500100D02*
X501500D01*
X502100D02*
X503500D01*
X506100D02*
X507500D01*
X508100D02*
X509500D01*
X512500D02*
X514100D01*
X516900D02*
X518700D01*
X521700D02*
X523300D01*
X529300D02*
X530900D01*
X475900Y84200D02*
X477700D01*
X478500D02*
X479900D01*
X480700D02*
X482100D01*
X482900D02*
X484700D01*
X489100D02*
X491700D01*
X494900D02*
X497700D01*
X500100D02*
X501500D01*
X501900D02*
X503300D01*
X506300D02*
X507700D01*
X508100D02*
X509500D01*
X512500D02*
X514100D01*
X516900D02*
X518700D01*
X521700D02*
X523500D01*
X529100D02*
X530900D01*
X475900Y84000D02*
X477700D01*
X478500D02*
X479900D01*
X480700D02*
X482099D01*
X482900D02*
X484700D01*
X489100D02*
X491700D01*
X494900D02*
X497700D01*
X500100D02*
X501700D01*
X501900D02*
X503300D01*
X506300D02*
X507700D01*
X508100D02*
X509500D01*
X512500D02*
X514100D01*
X517100D02*
X518900D01*
X521700D02*
X523500D01*
X529100D02*
X530700D01*
X475900Y83800D02*
X484700D01*
X489100D02*
X491700D01*
X494900D02*
X497700D01*
X500100D02*
X501700D01*
X501900D02*
X503300D01*
X506300D02*
X507700D01*
X507900D02*
X509500D01*
X512500D02*
X514100D01*
X517300D02*
X519100D01*
X521900D02*
X523700D01*
X529100D02*
X530700D01*
X475900Y83600D02*
X484700D01*
X489100D02*
X491700D01*
X494700D02*
X497500D01*
X500300D02*
X501700D01*
X501900D02*
X503100D01*
X506500D02*
X509300D01*
X512500D02*
X514100D01*
X517300D02*
X519100D01*
X521900D02*
X523700D01*
X528900D02*
X530500D01*
X475900Y83400D02*
X484700D01*
X489100D02*
X491700D01*
X494500D02*
X497500D01*
X500300D02*
X503100D01*
X506500D02*
X509300D01*
X512500D02*
X514100D01*
X517500D02*
X519300D01*
X522100D02*
X523900D01*
X528700D02*
X530500D01*
X475900Y83200D02*
X484700D01*
X489100D02*
X497500D01*
X500300D02*
X503100D01*
X506500D02*
X509300D01*
X512500D02*
X514100D01*
X517700D02*
X519500D01*
X522100D02*
X524100D01*
X528500D02*
X530300D01*
X475900Y83000D02*
X484700D01*
X489100D02*
X497500D01*
X500500D02*
X503100D01*
X506700D02*
X509100D01*
X512500D02*
X514100D01*
X517700D02*
X519500D01*
X522300D02*
X524300D01*
X528300D02*
X530300D01*
X475900Y82800D02*
X484700D01*
X489100D02*
X497300D01*
X500500D02*
X502900D01*
X506700D02*
X509100D01*
X512500D02*
X514100D01*
X517900D02*
X519700D01*
X522300D02*
X524500D01*
X528100D02*
X530100D01*
X475900Y82600D02*
X484700D01*
X489100D02*
X497100D01*
X500500D02*
X502900D01*
X506700D02*
X509100D01*
X512500D02*
X514100D01*
X518100D02*
X519900D01*
X522500D02*
X524900D01*
X527700D02*
X529900D01*
X475900Y82400D02*
X484700D01*
X489100D02*
X497100D01*
X500700D02*
X502900D01*
X506700D02*
X508900D01*
X512500D02*
X514100D01*
X518100D02*
X519900D01*
X522700D02*
X525500D01*
X527300D02*
X529700D01*
X475900Y82200D02*
X484700D01*
X489100D02*
X496900D01*
X500700D02*
X502700D01*
X506900D02*
X508900D01*
X512500D02*
X514100D01*
X518300D02*
X520100D01*
X522900D02*
X529500D01*
X475900Y82000D02*
X484700D01*
X489100D02*
X496700D01*
X500700D02*
X502700D01*
X506900D02*
X508900D01*
X512500D02*
X514100D01*
X518300D02*
X520100D01*
X523100D02*
X529300D01*
X475900Y81800D02*
X484700D01*
X489100D02*
X496300D01*
X500900D02*
X502700D01*
X506900D02*
X508900D01*
X512500D02*
X514100D01*
X518500D02*
X520300D01*
X523300D02*
X529100D01*
X475900Y81600D02*
X484700D01*
X489100D02*
X495900D01*
X500900D02*
X502500D01*
X507100D02*
X508700D01*
X512500D02*
X514100D01*
X518700D02*
X520500D01*
X523700D02*
X528700D01*
X475900Y81400D02*
X484700D01*
X489100D02*
X495500D01*
X500900D02*
X502500D01*
X507100D02*
X508700D01*
X512500D02*
X514100D01*
X518700D02*
X520500D01*
X524100D02*
X528300D01*
X475900Y81200D02*
X484700D01*
X520300D02*
X520500D01*
X524700D02*
X527700D01*
X475900Y81000D02*
X484700D01*
X525700D02*
X526700D01*
X475900Y80800D02*
X484700D01*
X475900Y80600D02*
X484700D01*
X475900Y80400D02*
X484700D01*
X475900Y80200D02*
X484700D01*
X475900Y80000D02*
X484700D01*
X475900Y79800D02*
X484700D01*
X475900Y79600D02*
X484700D01*
X475900Y79400D02*
X484700D01*
X475900Y79200D02*
X484700D01*
X475900Y79000D02*
X484700D01*
X475900Y78800D02*
X484700D01*
X479669Y105100D02*
X480869D01*
X479869Y105300D02*
X480669D01*
X479869Y105500D02*
X480669D01*
X479869Y105700D02*
X480669D01*
X479869Y105900D02*
X480669D01*
X480069Y106100D02*
X480469D01*
X480669Y105900D01*
X479869D02*
X480069Y106100D01*
X480269Y106300D01*
X480669Y105900D01*
D16*
X503950Y47500D02*
D03*
M02*
