G04*
G04 #@! TF.GenerationSoftware,Altium Limited,Altium Designer,21.1.1 (26)*
G04*
G04 Layer_Color=8388736*
%FSLAX25Y25*%
%MOIN*%
G70*
G04*
G04 #@! TF.SameCoordinates,B83F5570-EEF7-471F-9EF2-83D00333E22E*
G04*
G04*
G04 #@! TF.FilePolarity,Negative*
G04*
G01*
G75*
%ADD30C,0.06000*%
%ADD31R,0.26000X0.44000*%
%ADD32R,0.44000X0.26000*%
%ADD33C,0.02800*%
%ADD34C,0.03937*%
%ADD35C,0.09174*%
%ADD36R,0.08674X0.08674*%
%ADD37R,0.08674X0.08674*%
%ADD38R,0.50800X0.50800*%
%ADD39R,0.14800X0.06706*%
%ADD40R,0.06706X0.14800*%
%ADD41R,0.08300X0.05800*%
%ADD42R,0.06900X0.08700*%
%ADD43R,0.06650X0.01750*%
%ADD44R,0.13398X0.04540*%
%ADD45R,0.29934X0.23438*%
%ADD46R,0.03950X0.04343*%
%ADD47R,0.03556X0.04343*%
%ADD48C,0.09800*%
%ADD49C,0.13635*%
%ADD50C,0.02400*%
%ADD51C,0.05800*%
%ADD52C,0.03800*%
%ADD53C,0.08800*%
D30*
X404600Y487000D02*
X410600Y493000D01*
Y513500D01*
X81000Y459500D02*
Y480000D01*
X87000Y486000D02*
X404600D01*
X81000Y480000D02*
X87000Y486000D01*
Y487000D02*
X404600D01*
Y486000D02*
X410600Y480000D01*
Y459500D02*
Y480000D01*
X81000Y493000D02*
Y513500D01*
Y493000D02*
X87000Y487000D01*
X410600Y493000D02*
Y513500D01*
X404600Y487000D02*
X410600Y493000D01*
X812600Y487000D02*
X818600Y493000D01*
Y513500D01*
X489000Y459500D02*
Y480000D01*
X495000Y486000D02*
X812600D01*
X489000Y480000D02*
X495000Y486000D01*
Y487000D02*
X812600D01*
Y486000D02*
X818600Y480000D01*
Y459500D02*
Y480000D01*
X489000Y493000D02*
Y513500D01*
Y493000D02*
X495000Y487000D01*
X818600Y493000D02*
Y513500D01*
X812600Y487000D02*
X818600Y493000D01*
X94100Y54500D02*
X100100Y60500D01*
X76600Y54500D02*
X94100D01*
X101100Y60500D02*
X107100Y54500D01*
X124600D01*
X107100Y390500D02*
X124600D01*
X94100D02*
X100100Y384500D01*
X76600Y390500D02*
X94100D01*
X101100Y384500D02*
X107100Y390500D01*
X100100Y60500D02*
Y384500D01*
X101100Y60500D02*
Y384500D01*
X238100Y54500D02*
X244100Y60500D01*
X220600Y54500D02*
X238100D01*
X245100Y60500D02*
X251100Y54500D01*
X268600D01*
X251100Y390500D02*
X268600D01*
X238100D02*
X244100Y384500D01*
X220600Y390500D02*
X238100D01*
X245100Y384500D02*
X251100Y390500D01*
X244100Y60500D02*
Y384500D01*
X245100Y60500D02*
Y384500D01*
X490725Y564075D02*
X821375D01*
X79650Y562650D02*
X410300D01*
X28900Y390500D02*
X28900Y54500D01*
X176300Y390500D02*
X176300Y54500D01*
D31*
X821350Y564100D02*
D03*
X490700D02*
D03*
X410300Y562600D02*
D03*
X79600Y562700D02*
D03*
D32*
X81000Y513500D02*
D03*
Y459500D02*
D03*
X410600Y513500D02*
D03*
Y459500D02*
D03*
X818600D02*
D03*
Y513500D02*
D03*
X489100Y459500D02*
D03*
X489000Y513500D02*
D03*
D33*
X821350Y564100D02*
D03*
X490700D02*
D03*
X410300Y562600D02*
D03*
X81000Y513500D02*
D03*
Y459500D02*
D03*
X410600Y513500D02*
D03*
Y459500D02*
D03*
X818600D02*
D03*
Y513500D02*
D03*
X489100Y459500D02*
D03*
X489000Y513500D02*
D03*
X79600Y562700D02*
D03*
D34*
X820850Y559100D02*
D03*
X491200Y569100D02*
D03*
X409800Y557600D02*
D03*
X86000Y513000D02*
D03*
X76000Y460000D02*
D03*
X415600Y513000D02*
D03*
X405600Y460000D02*
D03*
X813600D02*
D03*
X823600Y513000D02*
D03*
X484100Y460000D02*
D03*
X494000Y513000D02*
D03*
X80100Y567700D02*
D03*
D35*
X76600Y54500D02*
D03*
X124600D02*
D03*
Y390500D02*
D03*
X76600D02*
D03*
X220600D02*
D03*
X268600D02*
D03*
Y54500D02*
D03*
X220600D02*
D03*
X28900Y390500D02*
D03*
Y54500D02*
D03*
X176300Y390500D02*
D03*
Y54500D02*
D03*
D36*
X85852Y45150D02*
D03*
X85950Y63850D02*
D03*
X67250D02*
D03*
Y45150D02*
D03*
X133852D02*
D03*
X133950Y63850D02*
D03*
X115250D02*
D03*
Y45150D02*
D03*
X133852Y381150D02*
D03*
X133950Y399850D02*
D03*
X115250D02*
D03*
Y381150D02*
D03*
X85852D02*
D03*
X85950Y399850D02*
D03*
X67250D02*
D03*
Y381150D02*
D03*
X229852D02*
D03*
X229950Y399850D02*
D03*
X211250D02*
D03*
Y381150D02*
D03*
X277852D02*
D03*
X277950Y399850D02*
D03*
X259250D02*
D03*
Y381150D02*
D03*
X277852Y45150D02*
D03*
X277950Y63850D02*
D03*
X259250D02*
D03*
Y45150D02*
D03*
X229852D02*
D03*
X229950Y63850D02*
D03*
X211250D02*
D03*
Y45150D02*
D03*
D37*
X19550Y381248D02*
D03*
X38250Y381150D02*
D03*
Y399850D02*
D03*
X19550D02*
D03*
Y45248D02*
D03*
X38250Y45150D02*
D03*
Y63850D02*
D03*
X19550D02*
D03*
X166950Y381248D02*
D03*
X185650Y381150D02*
D03*
Y399850D02*
D03*
X166950D02*
D03*
Y45248D02*
D03*
X185650Y45150D02*
D03*
Y63850D02*
D03*
X166950D02*
D03*
D38*
X344950Y36000D02*
D03*
X430450D02*
D03*
D39*
X508450Y412000D02*
D03*
X491450D02*
D03*
Y402000D02*
D03*
Y392000D02*
D03*
X508450D02*
D03*
X491450Y382000D02*
D03*
X508450D02*
D03*
Y402000D02*
D03*
Y329000D02*
D03*
X491450D02*
D03*
Y319000D02*
D03*
Y309000D02*
D03*
X508450D02*
D03*
X491450Y299000D02*
D03*
X508450D02*
D03*
Y319000D02*
D03*
X508447Y157392D02*
D03*
X491447D02*
D03*
Y147392D02*
D03*
Y137392D02*
D03*
X508447D02*
D03*
X491447Y127392D02*
D03*
X508447D02*
D03*
Y147392D02*
D03*
Y240392D02*
D03*
X491447D02*
D03*
Y230392D02*
D03*
Y220392D02*
D03*
X508447D02*
D03*
X491447Y210392D02*
D03*
X508447D02*
D03*
Y230392D02*
D03*
X695600Y333500D02*
D03*
Y323500D02*
D03*
X712600D02*
D03*
Y333500D02*
D03*
X694600Y434500D02*
D03*
Y424500D02*
D03*
X711600D02*
D03*
Y434500D02*
D03*
X638100Y271500D02*
D03*
X621100D02*
D03*
X638100Y281500D02*
D03*
X621100D02*
D03*
X638100Y291500D02*
D03*
X621100D02*
D03*
X638100Y301500D02*
D03*
X621100D02*
D03*
X638100Y311500D02*
D03*
X621100D02*
D03*
X638100Y321500D02*
D03*
X621100D02*
D03*
X804950Y228000D02*
D03*
X821950D02*
D03*
X804950Y218000D02*
D03*
X821950D02*
D03*
X804950Y208000D02*
D03*
X821950D02*
D03*
X804950Y198000D02*
D03*
X821950D02*
D03*
X804950Y188000D02*
D03*
X821950D02*
D03*
X804950Y178000D02*
D03*
X821950D02*
D03*
X783100Y269500D02*
D03*
X766100D02*
D03*
X783100Y279500D02*
D03*
X766100D02*
D03*
X783100Y289500D02*
D03*
X766100D02*
D03*
X783100Y299500D02*
D03*
X766100D02*
D03*
X783100Y309500D02*
D03*
X766100D02*
D03*
X783100Y319500D02*
D03*
X766100D02*
D03*
X781600Y370500D02*
D03*
X764600D02*
D03*
X781600Y380500D02*
D03*
X764600D02*
D03*
X781600Y390500D02*
D03*
X764600D02*
D03*
X781600Y400500D02*
D03*
X764600D02*
D03*
X781600Y410500D02*
D03*
X764600D02*
D03*
X781600Y420500D02*
D03*
X764600D02*
D03*
X636600Y372500D02*
D03*
X619600D02*
D03*
X636600Y382500D02*
D03*
X619600D02*
D03*
X636600Y392500D02*
D03*
X619600D02*
D03*
X636600Y402500D02*
D03*
X619600D02*
D03*
X636600Y412500D02*
D03*
X619600D02*
D03*
X636600Y422500D02*
D03*
X619600D02*
D03*
X582950Y228000D02*
D03*
X599950D02*
D03*
X582950Y218000D02*
D03*
X599950D02*
D03*
X582950Y208000D02*
D03*
X599950D02*
D03*
X582950Y198000D02*
D03*
X599950D02*
D03*
X582950Y188000D02*
D03*
X599950D02*
D03*
X582950Y178000D02*
D03*
X599950D02*
D03*
X803950Y111000D02*
D03*
X820950D02*
D03*
X803950Y101000D02*
D03*
X820950D02*
D03*
X803950Y91000D02*
D03*
X820950D02*
D03*
X803950Y81000D02*
D03*
X820950D02*
D03*
X803950Y71000D02*
D03*
X820950D02*
D03*
X803950Y61000D02*
D03*
X820950D02*
D03*
D40*
X332450Y408000D02*
D03*
X322450D02*
D03*
Y391000D02*
D03*
X332450D02*
D03*
X332447Y153392D02*
D03*
X322447D02*
D03*
Y136392D02*
D03*
X332447D02*
D03*
Y236492D02*
D03*
X322447D02*
D03*
Y219492D02*
D03*
X332447D02*
D03*
X332450Y325000D02*
D03*
X322450D02*
D03*
Y308000D02*
D03*
X332450D02*
D03*
D41*
X432947Y406500D02*
D03*
Y416500D02*
D03*
Y235500D02*
D03*
Y245500D02*
D03*
Y323500D02*
D03*
Y333500D02*
D03*
Y151892D02*
D03*
Y161892D02*
D03*
X616669Y131500D02*
D03*
Y121500D02*
D03*
X671169Y131500D02*
D03*
Y121500D02*
D03*
X725669Y131500D02*
D03*
Y121500D02*
D03*
X780169Y131500D02*
D03*
Y121500D02*
D03*
X616669Y73000D02*
D03*
Y63000D02*
D03*
X671169Y73000D02*
D03*
Y63000D02*
D03*
X725669Y72500D02*
D03*
Y62500D02*
D03*
X780169Y72500D02*
D03*
Y62500D02*
D03*
D42*
X452947Y411500D02*
D03*
Y240500D02*
D03*
Y328500D02*
D03*
Y156892D02*
D03*
X596669Y126500D02*
D03*
X651169D02*
D03*
X705669D02*
D03*
X760169D02*
D03*
X596669Y68000D02*
D03*
X651169D02*
D03*
X705669Y67500D02*
D03*
X760169D02*
D03*
D43*
X685125Y301898D02*
D03*
Y286543D02*
D03*
Y289102D02*
D03*
Y291661D02*
D03*
Y294220D02*
D03*
Y296779D02*
D03*
Y299339D02*
D03*
Y304457D02*
D03*
X709075D02*
D03*
Y301898D02*
D03*
Y299339D02*
D03*
Y296779D02*
D03*
Y294220D02*
D03*
Y291661D02*
D03*
Y289102D02*
D03*
Y286543D02*
D03*
X683625Y402898D02*
D03*
Y387543D02*
D03*
Y390102D02*
D03*
Y392661D02*
D03*
Y395220D02*
D03*
Y397779D02*
D03*
Y400339D02*
D03*
Y405457D02*
D03*
X707575D02*
D03*
Y402898D02*
D03*
Y400339D02*
D03*
Y397779D02*
D03*
Y395220D02*
D03*
Y392661D02*
D03*
Y390102D02*
D03*
Y387543D02*
D03*
D44*
X407572Y384114D02*
D03*
Y390807D02*
D03*
Y397500D02*
D03*
Y404193D02*
D03*
Y410886D02*
D03*
Y301114D02*
D03*
Y307807D02*
D03*
Y314500D02*
D03*
Y321193D02*
D03*
Y327886D02*
D03*
X407569Y129506D02*
D03*
Y136199D02*
D03*
Y142892D02*
D03*
Y149585D02*
D03*
Y156278D02*
D03*
Y212506D02*
D03*
Y219199D02*
D03*
Y225892D02*
D03*
Y232585D02*
D03*
Y239278D02*
D03*
D45*
X368596Y397500D02*
D03*
Y314500D02*
D03*
X368593Y142892D02*
D03*
Y225892D02*
D03*
D46*
X799844Y319500D02*
D03*
X805356D02*
D03*
X766206Y172500D02*
D03*
X760694D02*
D03*
X766206Y165000D02*
D03*
X760694D02*
D03*
X760694Y33500D02*
D03*
X766206D02*
D03*
Y41500D02*
D03*
X760694D02*
D03*
X765206Y215500D02*
D03*
X759694D02*
D03*
X765206Y223000D02*
D03*
X759694D02*
D03*
X766206Y100500D02*
D03*
X760694D02*
D03*
X766206Y92500D02*
D03*
X760694D02*
D03*
X330206Y283000D02*
D03*
X324694D02*
D03*
X443706Y383750D02*
D03*
X438194D02*
D03*
X330206Y366000D02*
D03*
X324694D02*
D03*
X443706Y300750D02*
D03*
X438194D02*
D03*
X443703Y212142D02*
D03*
X438191D02*
D03*
X330203Y194392D02*
D03*
X324691D02*
D03*
X443703Y129142D02*
D03*
X438191D02*
D03*
X598856Y422500D02*
D03*
X593344D02*
D03*
X798344Y420500D02*
D03*
X803856D02*
D03*
X694539Y165000D02*
D03*
X689027D02*
D03*
X694539Y172500D02*
D03*
X689027D02*
D03*
X600356Y321500D02*
D03*
X594844D02*
D03*
X657706Y215500D02*
D03*
X652194D02*
D03*
X657706Y223000D02*
D03*
X652194D02*
D03*
X693539Y215500D02*
D03*
X688027D02*
D03*
X693539Y223000D02*
D03*
X688027D02*
D03*
X658706Y165000D02*
D03*
X653194D02*
D03*
X658706Y172500D02*
D03*
X653194D02*
D03*
X330203Y111392D02*
D03*
X324691D02*
D03*
X657206Y92500D02*
D03*
X651694D02*
D03*
X657206Y100500D02*
D03*
X651694D02*
D03*
X602706Y92500D02*
D03*
X597194D02*
D03*
X602706Y100500D02*
D03*
X597194D02*
D03*
X657206Y41500D02*
D03*
X651694D02*
D03*
Y33500D02*
D03*
X657206D02*
D03*
X597194D02*
D03*
X602706D02*
D03*
Y41500D02*
D03*
X597194D02*
D03*
X711706Y100500D02*
D03*
X706194D02*
D03*
X729373Y215500D02*
D03*
X723861D02*
D03*
X729373Y223000D02*
D03*
X723861D02*
D03*
X711706Y92500D02*
D03*
X706194D02*
D03*
X730373Y165000D02*
D03*
X724861D02*
D03*
X730373Y172500D02*
D03*
X724861D02*
D03*
X711706Y41500D02*
D03*
X706194D02*
D03*
Y33500D02*
D03*
X711706D02*
D03*
D47*
X760497Y179500D02*
D03*
X766403D02*
D03*
X760497Y49000D02*
D03*
X766403D02*
D03*
X759497Y231000D02*
D03*
X765403D02*
D03*
X760497Y108000D02*
D03*
X766403D02*
D03*
X443903Y393000D02*
D03*
X437997D02*
D03*
X443903Y310000D02*
D03*
X437997D02*
D03*
X443900Y221392D02*
D03*
X437994D02*
D03*
X443900Y138392D02*
D03*
X437994D02*
D03*
X688831Y179500D02*
D03*
X694736D02*
D03*
X651997Y231000D02*
D03*
X657903D02*
D03*
X687831D02*
D03*
X693736D02*
D03*
X652997Y179500D02*
D03*
X658903D02*
D03*
X651497Y108000D02*
D03*
X657403D02*
D03*
X596997D02*
D03*
X602903D02*
D03*
X651497Y49000D02*
D03*
X657403D02*
D03*
X596997D02*
D03*
X602903D02*
D03*
X705997Y108000D02*
D03*
X711903D02*
D03*
X723664Y231000D02*
D03*
X729569D02*
D03*
X724664Y179500D02*
D03*
X730569D02*
D03*
X705997Y49000D02*
D03*
X711903D02*
D03*
D48*
X821350Y550100D02*
D03*
Y578100D02*
D03*
X490700Y550100D02*
D03*
Y578100D02*
D03*
X410300Y548600D02*
D03*
Y576600D02*
D03*
X67000Y513500D02*
D03*
X95000D02*
D03*
X67000Y459500D02*
D03*
X95000D02*
D03*
X396600Y513500D02*
D03*
X424600D02*
D03*
X396600Y459500D02*
D03*
X424600D02*
D03*
X832600D02*
D03*
X804600D02*
D03*
X832600Y513500D02*
D03*
X804600D02*
D03*
X503100Y459500D02*
D03*
X475100D02*
D03*
X503000Y513500D02*
D03*
X475000D02*
D03*
X79600Y548700D02*
D03*
Y576700D02*
D03*
D49*
X454500Y577000D02*
D03*
X21000D02*
D03*
Y429000D02*
D03*
Y22000D02*
D03*
X874100Y577000D02*
D03*
Y429000D02*
D03*
Y23000D02*
D03*
X556600Y22000D02*
D03*
Y429000D02*
D03*
D50*
X226700Y392300D02*
D03*
Y388700D02*
D03*
X262500D02*
D03*
X178025Y379000D02*
D03*
X814325Y562375D02*
D03*
Y565825D02*
D03*
X811825D02*
D03*
Y562375D02*
D03*
X809325Y565825D02*
D03*
Y562375D02*
D03*
X806825Y565825D02*
D03*
Y562375D02*
D03*
X804325Y565825D02*
D03*
Y562375D02*
D03*
X801825Y565825D02*
D03*
Y562375D02*
D03*
X799325Y565825D02*
D03*
Y562375D02*
D03*
X796825Y565825D02*
D03*
Y562375D02*
D03*
X794325Y565825D02*
D03*
Y562375D02*
D03*
X791825Y565825D02*
D03*
Y562375D02*
D03*
X789325Y565825D02*
D03*
Y562375D02*
D03*
X786825Y565825D02*
D03*
Y562375D02*
D03*
X784325Y565825D02*
D03*
Y562375D02*
D03*
X781825Y565825D02*
D03*
Y562375D02*
D03*
X779325Y565825D02*
D03*
Y562375D02*
D03*
X776825Y565825D02*
D03*
Y562375D02*
D03*
X774325Y565825D02*
D03*
Y562375D02*
D03*
X771825Y565825D02*
D03*
Y562375D02*
D03*
X769325Y565825D02*
D03*
Y562375D02*
D03*
X766825Y565825D02*
D03*
Y562375D02*
D03*
X764325Y565825D02*
D03*
Y562375D02*
D03*
X761825Y565825D02*
D03*
Y562375D02*
D03*
X759325Y565825D02*
D03*
Y562375D02*
D03*
X756825Y565825D02*
D03*
Y562375D02*
D03*
X754325Y565825D02*
D03*
Y562375D02*
D03*
X751825Y565825D02*
D03*
Y562375D02*
D03*
X749325Y565825D02*
D03*
Y562375D02*
D03*
X746825Y565825D02*
D03*
Y562375D02*
D03*
X744325Y565825D02*
D03*
Y562375D02*
D03*
X741825Y565825D02*
D03*
Y562375D02*
D03*
X739325Y565825D02*
D03*
Y562375D02*
D03*
X736825Y565825D02*
D03*
Y562375D02*
D03*
X734325Y565825D02*
D03*
Y562375D02*
D03*
X731825Y565825D02*
D03*
Y562375D02*
D03*
X729325Y565825D02*
D03*
Y562375D02*
D03*
X726825Y565825D02*
D03*
Y562375D02*
D03*
X724325Y565825D02*
D03*
Y562375D02*
D03*
X721825Y565825D02*
D03*
Y562375D02*
D03*
X719325Y565825D02*
D03*
Y562375D02*
D03*
X716825Y565825D02*
D03*
Y562375D02*
D03*
X714325Y565825D02*
D03*
Y562375D02*
D03*
X711825Y565825D02*
D03*
Y562375D02*
D03*
X709325Y565825D02*
D03*
Y562375D02*
D03*
X706825Y565825D02*
D03*
Y562375D02*
D03*
X704325Y565825D02*
D03*
Y562375D02*
D03*
X701825Y565825D02*
D03*
Y562375D02*
D03*
X699325Y565825D02*
D03*
Y562375D02*
D03*
X696825Y565825D02*
D03*
Y562375D02*
D03*
X694325Y565825D02*
D03*
Y562375D02*
D03*
X691825Y565825D02*
D03*
Y562375D02*
D03*
X689325Y565825D02*
D03*
Y562375D02*
D03*
X686825Y565825D02*
D03*
Y562375D02*
D03*
X684325Y565825D02*
D03*
Y562375D02*
D03*
X681825Y565825D02*
D03*
Y562375D02*
D03*
X679325Y565825D02*
D03*
Y562375D02*
D03*
X676825Y565825D02*
D03*
Y562375D02*
D03*
X674325Y565825D02*
D03*
Y562375D02*
D03*
X671825Y565825D02*
D03*
Y562375D02*
D03*
X669325Y565825D02*
D03*
Y562375D02*
D03*
X666825Y565825D02*
D03*
Y562375D02*
D03*
X664325Y565825D02*
D03*
Y562375D02*
D03*
X661825Y565825D02*
D03*
Y562375D02*
D03*
X659325Y565825D02*
D03*
Y562375D02*
D03*
X656825Y565825D02*
D03*
Y562375D02*
D03*
X654325Y565825D02*
D03*
Y562375D02*
D03*
X651825Y565825D02*
D03*
Y562375D02*
D03*
X649325Y565825D02*
D03*
Y562375D02*
D03*
X646825Y565825D02*
D03*
Y562375D02*
D03*
X644325Y565825D02*
D03*
Y562375D02*
D03*
X641825Y565825D02*
D03*
Y562375D02*
D03*
X639325Y565825D02*
D03*
Y562375D02*
D03*
X636825Y565825D02*
D03*
Y562375D02*
D03*
X634325Y565825D02*
D03*
Y562375D02*
D03*
X631825Y565825D02*
D03*
Y562375D02*
D03*
X629325Y565825D02*
D03*
Y562375D02*
D03*
X626825Y565825D02*
D03*
Y562375D02*
D03*
X624325Y565825D02*
D03*
Y562375D02*
D03*
X621825Y565825D02*
D03*
Y562375D02*
D03*
X619325Y565825D02*
D03*
Y562375D02*
D03*
X616825Y565825D02*
D03*
Y562375D02*
D03*
X614325Y565825D02*
D03*
Y562375D02*
D03*
X611825Y565825D02*
D03*
Y562375D02*
D03*
X609325Y565825D02*
D03*
Y562375D02*
D03*
X606825Y565825D02*
D03*
Y562375D02*
D03*
X604325Y565825D02*
D03*
Y562375D02*
D03*
X601825Y565825D02*
D03*
Y562375D02*
D03*
X599325Y565825D02*
D03*
Y562375D02*
D03*
X596825Y565825D02*
D03*
Y562375D02*
D03*
X594325Y565825D02*
D03*
Y562375D02*
D03*
X591825Y565825D02*
D03*
Y562375D02*
D03*
X589325Y565825D02*
D03*
Y562375D02*
D03*
X586825Y565825D02*
D03*
Y562375D02*
D03*
X584325Y565825D02*
D03*
Y562375D02*
D03*
X581825Y565825D02*
D03*
Y562375D02*
D03*
X579325Y565825D02*
D03*
Y562375D02*
D03*
X576825Y565825D02*
D03*
Y562375D02*
D03*
X574325Y565825D02*
D03*
Y562375D02*
D03*
X571825Y565825D02*
D03*
Y562375D02*
D03*
X569325Y565825D02*
D03*
Y562375D02*
D03*
X566825Y565825D02*
D03*
Y562375D02*
D03*
X564325Y565825D02*
D03*
Y562375D02*
D03*
X561825Y565825D02*
D03*
Y562375D02*
D03*
X559325Y565825D02*
D03*
Y562375D02*
D03*
X556825Y565825D02*
D03*
Y562375D02*
D03*
X554325Y565825D02*
D03*
Y562375D02*
D03*
X551825Y565825D02*
D03*
Y562375D02*
D03*
X549325Y565825D02*
D03*
Y562375D02*
D03*
X546825Y565825D02*
D03*
Y562375D02*
D03*
X544325Y565825D02*
D03*
Y562375D02*
D03*
X541825Y565825D02*
D03*
Y562375D02*
D03*
X539325Y565825D02*
D03*
Y562375D02*
D03*
X536825Y565825D02*
D03*
Y562375D02*
D03*
X534325Y565825D02*
D03*
Y562375D02*
D03*
X531825Y565825D02*
D03*
Y562375D02*
D03*
X529325Y565825D02*
D03*
Y562375D02*
D03*
X526825Y565825D02*
D03*
Y562375D02*
D03*
X524325Y565825D02*
D03*
Y562375D02*
D03*
X521825Y565825D02*
D03*
Y562375D02*
D03*
X519325Y565825D02*
D03*
Y562375D02*
D03*
X516825Y565825D02*
D03*
Y562375D02*
D03*
X514325Y565825D02*
D03*
Y562375D02*
D03*
X511825Y565825D02*
D03*
Y562375D02*
D03*
X509325Y565825D02*
D03*
Y562375D02*
D03*
X506825Y565825D02*
D03*
Y562375D02*
D03*
X504325Y565825D02*
D03*
Y562375D02*
D03*
X501825Y565825D02*
D03*
Y562375D02*
D03*
X499325Y565825D02*
D03*
Y562375D02*
D03*
X496825D02*
D03*
Y565825D02*
D03*
X178025Y61500D02*
D03*
Y64000D02*
D03*
Y66500D02*
D03*
Y69000D02*
D03*
Y71500D02*
D03*
Y74000D02*
D03*
Y76500D02*
D03*
Y79000D02*
D03*
Y81500D02*
D03*
Y84000D02*
D03*
Y86500D02*
D03*
Y89000D02*
D03*
Y91500D02*
D03*
Y94000D02*
D03*
Y96500D02*
D03*
Y99000D02*
D03*
Y101500D02*
D03*
Y104000D02*
D03*
Y106500D02*
D03*
Y109000D02*
D03*
Y111500D02*
D03*
Y114000D02*
D03*
Y116500D02*
D03*
Y119000D02*
D03*
Y121500D02*
D03*
Y124000D02*
D03*
Y126500D02*
D03*
Y129000D02*
D03*
Y131500D02*
D03*
Y134000D02*
D03*
Y136500D02*
D03*
Y139000D02*
D03*
Y141500D02*
D03*
Y144000D02*
D03*
Y146500D02*
D03*
Y149000D02*
D03*
Y151500D02*
D03*
Y154000D02*
D03*
Y156500D02*
D03*
Y159000D02*
D03*
Y161500D02*
D03*
Y164000D02*
D03*
Y166500D02*
D03*
Y169000D02*
D03*
Y171500D02*
D03*
Y174000D02*
D03*
Y176500D02*
D03*
Y179000D02*
D03*
Y181500D02*
D03*
Y184000D02*
D03*
Y186500D02*
D03*
Y189000D02*
D03*
Y191500D02*
D03*
Y194000D02*
D03*
Y196500D02*
D03*
Y199000D02*
D03*
Y201500D02*
D03*
Y204000D02*
D03*
Y206500D02*
D03*
Y209000D02*
D03*
Y211500D02*
D03*
Y214000D02*
D03*
Y216500D02*
D03*
Y219000D02*
D03*
Y221500D02*
D03*
Y224000D02*
D03*
Y226500D02*
D03*
Y229000D02*
D03*
Y231500D02*
D03*
Y234000D02*
D03*
Y236500D02*
D03*
Y239000D02*
D03*
Y241500D02*
D03*
Y244000D02*
D03*
Y246500D02*
D03*
Y249000D02*
D03*
Y251500D02*
D03*
Y254000D02*
D03*
Y256500D02*
D03*
Y259000D02*
D03*
Y261500D02*
D03*
Y264000D02*
D03*
Y266500D02*
D03*
Y269000D02*
D03*
Y271500D02*
D03*
Y274000D02*
D03*
Y276500D02*
D03*
Y279000D02*
D03*
Y281500D02*
D03*
Y284000D02*
D03*
Y286500D02*
D03*
Y289000D02*
D03*
Y291500D02*
D03*
Y294000D02*
D03*
Y296500D02*
D03*
Y299000D02*
D03*
Y301500D02*
D03*
Y304000D02*
D03*
Y306500D02*
D03*
Y309000D02*
D03*
Y311500D02*
D03*
Y314000D02*
D03*
Y316500D02*
D03*
Y319000D02*
D03*
Y321500D02*
D03*
Y324000D02*
D03*
Y326500D02*
D03*
Y329000D02*
D03*
Y331500D02*
D03*
Y334000D02*
D03*
Y336500D02*
D03*
Y339000D02*
D03*
Y341500D02*
D03*
Y344000D02*
D03*
Y346500D02*
D03*
Y349000D02*
D03*
Y351500D02*
D03*
Y354000D02*
D03*
Y356500D02*
D03*
Y359000D02*
D03*
Y361500D02*
D03*
Y364000D02*
D03*
Y366500D02*
D03*
Y369000D02*
D03*
Y371500D02*
D03*
Y374000D02*
D03*
Y376500D02*
D03*
Y381500D02*
D03*
Y384000D02*
D03*
X174575Y129000D02*
D03*
Y126500D02*
D03*
Y124000D02*
D03*
Y121500D02*
D03*
Y119000D02*
D03*
Y116500D02*
D03*
Y114000D02*
D03*
Y111500D02*
D03*
Y109000D02*
D03*
Y106500D02*
D03*
Y104000D02*
D03*
Y101500D02*
D03*
Y99000D02*
D03*
Y96500D02*
D03*
Y94000D02*
D03*
Y91500D02*
D03*
Y89000D02*
D03*
Y86500D02*
D03*
Y84000D02*
D03*
Y81500D02*
D03*
Y79000D02*
D03*
Y76500D02*
D03*
Y74000D02*
D03*
Y71500D02*
D03*
Y69000D02*
D03*
Y66500D02*
D03*
Y64000D02*
D03*
Y61500D02*
D03*
Y131500D02*
D03*
Y134000D02*
D03*
Y136500D02*
D03*
Y139000D02*
D03*
Y141500D02*
D03*
Y144000D02*
D03*
Y146500D02*
D03*
Y149000D02*
D03*
Y151500D02*
D03*
Y154000D02*
D03*
Y156500D02*
D03*
Y159000D02*
D03*
Y161500D02*
D03*
Y164000D02*
D03*
Y166500D02*
D03*
Y169000D02*
D03*
Y171500D02*
D03*
Y174000D02*
D03*
Y176500D02*
D03*
Y179000D02*
D03*
Y181500D02*
D03*
Y184000D02*
D03*
Y186500D02*
D03*
Y189000D02*
D03*
Y191500D02*
D03*
Y194000D02*
D03*
Y196500D02*
D03*
Y199000D02*
D03*
Y201500D02*
D03*
Y204000D02*
D03*
Y206500D02*
D03*
Y209000D02*
D03*
Y211500D02*
D03*
Y214000D02*
D03*
Y216500D02*
D03*
Y219000D02*
D03*
Y221500D02*
D03*
Y224000D02*
D03*
Y226500D02*
D03*
Y229000D02*
D03*
Y231500D02*
D03*
Y234000D02*
D03*
Y236500D02*
D03*
Y239000D02*
D03*
Y241500D02*
D03*
Y244000D02*
D03*
Y246500D02*
D03*
Y249000D02*
D03*
Y251500D02*
D03*
Y254000D02*
D03*
Y256500D02*
D03*
Y259000D02*
D03*
Y261500D02*
D03*
Y264000D02*
D03*
Y266500D02*
D03*
Y269000D02*
D03*
Y271500D02*
D03*
Y274000D02*
D03*
Y276500D02*
D03*
Y279000D02*
D03*
Y281500D02*
D03*
Y284000D02*
D03*
Y286500D02*
D03*
Y289000D02*
D03*
Y291500D02*
D03*
Y294000D02*
D03*
Y296500D02*
D03*
Y299000D02*
D03*
Y301500D02*
D03*
Y304000D02*
D03*
Y306500D02*
D03*
Y309000D02*
D03*
Y311500D02*
D03*
Y314000D02*
D03*
Y316500D02*
D03*
Y319000D02*
D03*
Y321500D02*
D03*
Y324000D02*
D03*
Y326500D02*
D03*
Y329000D02*
D03*
Y331500D02*
D03*
Y334000D02*
D03*
Y336500D02*
D03*
Y339000D02*
D03*
Y341500D02*
D03*
Y344000D02*
D03*
Y346500D02*
D03*
Y349000D02*
D03*
Y351500D02*
D03*
Y354000D02*
D03*
Y356500D02*
D03*
Y359000D02*
D03*
Y361500D02*
D03*
Y364000D02*
D03*
Y366500D02*
D03*
Y369000D02*
D03*
Y371500D02*
D03*
Y374000D02*
D03*
Y376500D02*
D03*
Y384000D02*
D03*
Y379000D02*
D03*
Y381500D02*
D03*
X231100Y56300D02*
D03*
X236100D02*
D03*
X233600D02*
D03*
X228600D02*
D03*
X816800Y466100D02*
D03*
X820400D02*
D03*
Y506900D02*
D03*
X816800D02*
D03*
X490800Y466100D02*
D03*
X487200D02*
D03*
Y506900D02*
D03*
X490800D02*
D03*
X494200Y490400D02*
D03*
X492400Y492200D02*
D03*
X490800Y499400D02*
D03*
Y494400D02*
D03*
Y504400D02*
D03*
Y496900D02*
D03*
Y501900D02*
D03*
X487200Y496900D02*
D03*
Y494400D02*
D03*
Y504400D02*
D03*
Y499400D02*
D03*
Y501900D02*
D03*
X492900Y486500D02*
D03*
X489300Y490100D02*
D03*
X491100Y488300D02*
D03*
X487200Y491900D02*
D03*
Y481100D02*
D03*
X491100Y484700D02*
D03*
X489300Y482900D02*
D03*
X487200Y471100D02*
D03*
Y473600D02*
D03*
Y468600D02*
D03*
Y478600D02*
D03*
Y476100D02*
D03*
X490800Y471100D02*
D03*
Y476100D02*
D03*
Y468600D02*
D03*
Y478600D02*
D03*
Y473600D02*
D03*
X492400Y480800D02*
D03*
X494200Y482600D02*
D03*
X634000Y488700D02*
D03*
X636500D02*
D03*
X639000D02*
D03*
X641500D02*
D03*
X644000D02*
D03*
X646500D02*
D03*
X649000D02*
D03*
X651500D02*
D03*
X654000D02*
D03*
X656500D02*
D03*
X659000D02*
D03*
X661500D02*
D03*
X664000D02*
D03*
X666500D02*
D03*
X669000D02*
D03*
X671500D02*
D03*
X674000D02*
D03*
X676500D02*
D03*
X681500D02*
D03*
X679000D02*
D03*
X684000D02*
D03*
X686500D02*
D03*
X614000D02*
D03*
X616500D02*
D03*
X619000D02*
D03*
X621500D02*
D03*
X624000D02*
D03*
X626500D02*
D03*
X629000D02*
D03*
X631500D02*
D03*
X689000D02*
D03*
X691500D02*
D03*
X744000D02*
D03*
X694000D02*
D03*
X696500D02*
D03*
X699000D02*
D03*
X701500D02*
D03*
X704000D02*
D03*
X706500D02*
D03*
X709000D02*
D03*
X761500D02*
D03*
X711500D02*
D03*
X714000D02*
D03*
X716500D02*
D03*
X771500D02*
D03*
X719000D02*
D03*
X721500D02*
D03*
X724000D02*
D03*
X726500D02*
D03*
X729000D02*
D03*
X731500D02*
D03*
X734000D02*
D03*
X736500D02*
D03*
X739000D02*
D03*
X741500D02*
D03*
X781500D02*
D03*
X811600D02*
D03*
X804000D02*
D03*
X806500D02*
D03*
X809000D02*
D03*
X754000D02*
D03*
X756500D02*
D03*
X759000D02*
D03*
X801500D02*
D03*
X799000D02*
D03*
X794000D02*
D03*
X774000D02*
D03*
X776500D02*
D03*
X779000D02*
D03*
X796500D02*
D03*
X784000D02*
D03*
X786500D02*
D03*
X789000D02*
D03*
X764000D02*
D03*
X766500D02*
D03*
X769000D02*
D03*
X496500D02*
D03*
X499000D02*
D03*
X501500D02*
D03*
X506500D02*
D03*
X504000D02*
D03*
X581500D02*
D03*
X584000D02*
D03*
X586500D02*
D03*
X589000D02*
D03*
X591500D02*
D03*
X594000D02*
D03*
X596500D02*
D03*
X599000D02*
D03*
X601500D02*
D03*
X604000D02*
D03*
X606500D02*
D03*
X609000D02*
D03*
X611500D02*
D03*
X509000D02*
D03*
X511500D02*
D03*
X514000D02*
D03*
X516500D02*
D03*
X519000D02*
D03*
X521500D02*
D03*
X524000D02*
D03*
X526500D02*
D03*
X529000D02*
D03*
X531500D02*
D03*
X534000D02*
D03*
X536500D02*
D03*
X549000D02*
D03*
X551500D02*
D03*
X554000D02*
D03*
X556500D02*
D03*
X559000D02*
D03*
X561500D02*
D03*
X564000D02*
D03*
X566500D02*
D03*
X569000D02*
D03*
X571500D02*
D03*
X574000D02*
D03*
X576500D02*
D03*
X579000D02*
D03*
X791500D02*
D03*
X746500D02*
D03*
X749000D02*
D03*
X751500D02*
D03*
X546500D02*
D03*
X541500D02*
D03*
X544000D02*
D03*
X539000D02*
D03*
X813400Y490400D02*
D03*
X815200Y492200D02*
D03*
X816800Y499400D02*
D03*
Y494400D02*
D03*
Y504400D02*
D03*
Y496900D02*
D03*
Y501900D02*
D03*
X820400Y496900D02*
D03*
Y494400D02*
D03*
Y504400D02*
D03*
Y499400D02*
D03*
Y501900D02*
D03*
X818300Y490100D02*
D03*
X816500Y488300D02*
D03*
X820400Y491900D02*
D03*
Y481100D02*
D03*
X816500Y484700D02*
D03*
X818300Y482900D02*
D03*
X814700Y486500D02*
D03*
X820400Y471100D02*
D03*
Y473600D02*
D03*
Y468600D02*
D03*
Y478600D02*
D03*
Y476100D02*
D03*
X816800Y471100D02*
D03*
Y476100D02*
D03*
Y468600D02*
D03*
Y478600D02*
D03*
Y473600D02*
D03*
X815200Y480800D02*
D03*
X813400Y482600D02*
D03*
X539000Y484300D02*
D03*
X544000D02*
D03*
X541500D02*
D03*
X546500D02*
D03*
X751500D02*
D03*
X749000D02*
D03*
X746500D02*
D03*
X791500D02*
D03*
X579000D02*
D03*
X576500D02*
D03*
X574000D02*
D03*
X571500D02*
D03*
X569000D02*
D03*
X566500D02*
D03*
X564000D02*
D03*
X561500D02*
D03*
X559000D02*
D03*
X556500D02*
D03*
X554000D02*
D03*
X551500D02*
D03*
X549000D02*
D03*
X536500D02*
D03*
X534000D02*
D03*
X531500D02*
D03*
X529000D02*
D03*
X526500D02*
D03*
X524000D02*
D03*
X521500D02*
D03*
X519000D02*
D03*
X516500D02*
D03*
X514000D02*
D03*
X511500D02*
D03*
X509000D02*
D03*
X611500D02*
D03*
X609000D02*
D03*
X606500D02*
D03*
X604000D02*
D03*
X601500D02*
D03*
X599000D02*
D03*
X596500D02*
D03*
X594000D02*
D03*
X591500D02*
D03*
X589000D02*
D03*
X586500D02*
D03*
X584000D02*
D03*
X581500D02*
D03*
X504000D02*
D03*
X506500D02*
D03*
X501500D02*
D03*
X499000D02*
D03*
X496500D02*
D03*
X769000D02*
D03*
X766500D02*
D03*
X764000D02*
D03*
X789000D02*
D03*
X786500D02*
D03*
X784000D02*
D03*
X796500D02*
D03*
X779000D02*
D03*
X776500D02*
D03*
X774000D02*
D03*
X794000D02*
D03*
X799000D02*
D03*
X801500D02*
D03*
X759000D02*
D03*
X756500D02*
D03*
X754000D02*
D03*
X809000D02*
D03*
X806500D02*
D03*
X804000D02*
D03*
X811600D02*
D03*
X781500D02*
D03*
X741500D02*
D03*
X739000D02*
D03*
X736500D02*
D03*
X734000D02*
D03*
X731500D02*
D03*
X729000D02*
D03*
X726500D02*
D03*
X724000D02*
D03*
X721500D02*
D03*
X719000D02*
D03*
X771500D02*
D03*
X716500D02*
D03*
X714000D02*
D03*
X711500D02*
D03*
X761500D02*
D03*
X709000D02*
D03*
X706500D02*
D03*
X704000D02*
D03*
X701500D02*
D03*
X699000D02*
D03*
X696500D02*
D03*
X694000D02*
D03*
X744000D02*
D03*
X691500D02*
D03*
X689000D02*
D03*
X631500D02*
D03*
X629000D02*
D03*
X626500D02*
D03*
X624000D02*
D03*
X621500D02*
D03*
X619000D02*
D03*
X616500D02*
D03*
X614000D02*
D03*
X686500D02*
D03*
X684000D02*
D03*
X679000D02*
D03*
X681500D02*
D03*
X676500D02*
D03*
X674000D02*
D03*
X671500D02*
D03*
X669000D02*
D03*
X666500D02*
D03*
X664000D02*
D03*
X661500D02*
D03*
X659000D02*
D03*
X656500D02*
D03*
X654000D02*
D03*
X651500D02*
D03*
X649000D02*
D03*
X646500D02*
D03*
X644000D02*
D03*
X641500D02*
D03*
X639000D02*
D03*
X636500D02*
D03*
X634000D02*
D03*
X246800Y205900D02*
D03*
Y208400D02*
D03*
Y210900D02*
D03*
Y213400D02*
D03*
Y215900D02*
D03*
Y218400D02*
D03*
Y220900D02*
D03*
Y223400D02*
D03*
Y225900D02*
D03*
Y228400D02*
D03*
Y230900D02*
D03*
Y233400D02*
D03*
Y235900D02*
D03*
Y238400D02*
D03*
Y240900D02*
D03*
Y243400D02*
D03*
Y245900D02*
D03*
Y248400D02*
D03*
Y253400D02*
D03*
Y250900D02*
D03*
Y255900D02*
D03*
Y258400D02*
D03*
Y185900D02*
D03*
Y188400D02*
D03*
Y190900D02*
D03*
Y193400D02*
D03*
Y195900D02*
D03*
Y198400D02*
D03*
Y200900D02*
D03*
Y203400D02*
D03*
Y260900D02*
D03*
Y263400D02*
D03*
Y315900D02*
D03*
Y265900D02*
D03*
Y268400D02*
D03*
Y270900D02*
D03*
Y273400D02*
D03*
Y275900D02*
D03*
Y278400D02*
D03*
Y280900D02*
D03*
Y333400D02*
D03*
Y283400D02*
D03*
Y285900D02*
D03*
Y288400D02*
D03*
Y343400D02*
D03*
Y290900D02*
D03*
Y293400D02*
D03*
Y295900D02*
D03*
Y298400D02*
D03*
Y300900D02*
D03*
Y303400D02*
D03*
Y305900D02*
D03*
Y308400D02*
D03*
Y310900D02*
D03*
Y313400D02*
D03*
Y353400D02*
D03*
Y383400D02*
D03*
Y375900D02*
D03*
Y378400D02*
D03*
Y380900D02*
D03*
Y325900D02*
D03*
Y328400D02*
D03*
Y330900D02*
D03*
Y373400D02*
D03*
Y370900D02*
D03*
Y365900D02*
D03*
Y345900D02*
D03*
Y348400D02*
D03*
Y350900D02*
D03*
Y368400D02*
D03*
Y355900D02*
D03*
Y358400D02*
D03*
Y360900D02*
D03*
Y335900D02*
D03*
Y338400D02*
D03*
Y340900D02*
D03*
Y63400D02*
D03*
X260600Y52700D02*
D03*
X258100D02*
D03*
X250600D02*
D03*
X253100D02*
D03*
X255600D02*
D03*
X246800Y68400D02*
D03*
Y70900D02*
D03*
Y73400D02*
D03*
Y78400D02*
D03*
Y75900D02*
D03*
Y65900D02*
D03*
Y153400D02*
D03*
Y155900D02*
D03*
Y158400D02*
D03*
Y160900D02*
D03*
Y163400D02*
D03*
Y165900D02*
D03*
Y168400D02*
D03*
Y170900D02*
D03*
Y173400D02*
D03*
Y175900D02*
D03*
Y178400D02*
D03*
Y180900D02*
D03*
Y183400D02*
D03*
Y80900D02*
D03*
Y83400D02*
D03*
Y85900D02*
D03*
Y88400D02*
D03*
Y90900D02*
D03*
Y93400D02*
D03*
Y95900D02*
D03*
Y98400D02*
D03*
Y100900D02*
D03*
Y103400D02*
D03*
Y105900D02*
D03*
Y108400D02*
D03*
Y120900D02*
D03*
Y123400D02*
D03*
Y125900D02*
D03*
Y128400D02*
D03*
Y130900D02*
D03*
Y133400D02*
D03*
Y135900D02*
D03*
Y138400D02*
D03*
Y140900D02*
D03*
Y143400D02*
D03*
Y145900D02*
D03*
Y148400D02*
D03*
Y150900D02*
D03*
Y363400D02*
D03*
Y318400D02*
D03*
Y320900D02*
D03*
Y323400D02*
D03*
Y118400D02*
D03*
Y113400D02*
D03*
Y115900D02*
D03*
Y110900D02*
D03*
X260600Y56300D02*
D03*
X255600D02*
D03*
X253100D02*
D03*
X258100D02*
D03*
X250900Y57400D02*
D03*
X249100Y59200D02*
D03*
X247300Y61000D02*
D03*
X246400Y56700D02*
D03*
X248200Y54900D02*
D03*
X248500Y385300D02*
D03*
X250300Y387100D02*
D03*
X257500Y388700D02*
D03*
X252500D02*
D03*
X255000D02*
D03*
X260000D02*
D03*
X255000Y392300D02*
D03*
X252500D02*
D03*
X262500D02*
D03*
X257500D02*
D03*
X260000D02*
D03*
X244600Y386600D02*
D03*
X248200Y390200D02*
D03*
X246400Y388400D02*
D03*
X250000Y392300D02*
D03*
X239200D02*
D03*
X242800Y388400D02*
D03*
X241000Y390200D02*
D03*
X229200Y392300D02*
D03*
X231700D02*
D03*
X236700D02*
D03*
X234200D02*
D03*
X229200Y388700D02*
D03*
X234200D02*
D03*
X236700D02*
D03*
X231700D02*
D03*
X238900Y387100D02*
D03*
X240700Y385300D02*
D03*
X241000Y54900D02*
D03*
X242800Y56700D02*
D03*
X241900Y60900D02*
D03*
X240100Y59100D02*
D03*
X238300Y57300D02*
D03*
X244600Y58500D02*
D03*
X242400Y110900D02*
D03*
Y115900D02*
D03*
Y113400D02*
D03*
Y118400D02*
D03*
Y323400D02*
D03*
Y320900D02*
D03*
Y318400D02*
D03*
Y363400D02*
D03*
Y150900D02*
D03*
Y148400D02*
D03*
Y145900D02*
D03*
Y143400D02*
D03*
Y140900D02*
D03*
Y138400D02*
D03*
Y135900D02*
D03*
Y133400D02*
D03*
Y130900D02*
D03*
Y128400D02*
D03*
Y125900D02*
D03*
Y123400D02*
D03*
Y120900D02*
D03*
Y108400D02*
D03*
Y105900D02*
D03*
Y103400D02*
D03*
Y100900D02*
D03*
Y98400D02*
D03*
Y95900D02*
D03*
Y93400D02*
D03*
Y90900D02*
D03*
Y88400D02*
D03*
Y85900D02*
D03*
Y83400D02*
D03*
Y80900D02*
D03*
Y183400D02*
D03*
Y180900D02*
D03*
Y178400D02*
D03*
Y175900D02*
D03*
Y173400D02*
D03*
Y170900D02*
D03*
Y168400D02*
D03*
Y165900D02*
D03*
Y163400D02*
D03*
Y160900D02*
D03*
Y158400D02*
D03*
Y155900D02*
D03*
Y153400D02*
D03*
Y65900D02*
D03*
Y75900D02*
D03*
Y78400D02*
D03*
Y73400D02*
D03*
Y70900D02*
D03*
Y68400D02*
D03*
X233600Y52700D02*
D03*
X236100D02*
D03*
X238600D02*
D03*
X231100D02*
D03*
X228600D02*
D03*
X242400Y63400D02*
D03*
Y340900D02*
D03*
Y338400D02*
D03*
Y335900D02*
D03*
Y360900D02*
D03*
Y358400D02*
D03*
Y355900D02*
D03*
Y368400D02*
D03*
Y350900D02*
D03*
Y348400D02*
D03*
Y345900D02*
D03*
Y365900D02*
D03*
Y370900D02*
D03*
Y373400D02*
D03*
Y330900D02*
D03*
Y328400D02*
D03*
Y325900D02*
D03*
Y380900D02*
D03*
Y378400D02*
D03*
Y375900D02*
D03*
Y383400D02*
D03*
Y353400D02*
D03*
Y313400D02*
D03*
Y310900D02*
D03*
Y308400D02*
D03*
Y305900D02*
D03*
Y303400D02*
D03*
Y300900D02*
D03*
Y298400D02*
D03*
Y295900D02*
D03*
Y293400D02*
D03*
Y290900D02*
D03*
Y343400D02*
D03*
Y288400D02*
D03*
Y285900D02*
D03*
Y283400D02*
D03*
Y333400D02*
D03*
Y280900D02*
D03*
Y278400D02*
D03*
Y275900D02*
D03*
Y273400D02*
D03*
Y270900D02*
D03*
Y268400D02*
D03*
Y265900D02*
D03*
Y315900D02*
D03*
Y263400D02*
D03*
Y260900D02*
D03*
Y203400D02*
D03*
Y200900D02*
D03*
Y198400D02*
D03*
Y195900D02*
D03*
Y193400D02*
D03*
Y190900D02*
D03*
Y188400D02*
D03*
Y185900D02*
D03*
Y258400D02*
D03*
Y255900D02*
D03*
Y250900D02*
D03*
Y253400D02*
D03*
Y248400D02*
D03*
Y245900D02*
D03*
Y243400D02*
D03*
Y240900D02*
D03*
Y238400D02*
D03*
Y235900D02*
D03*
Y233400D02*
D03*
Y230900D02*
D03*
Y228400D02*
D03*
Y225900D02*
D03*
Y223400D02*
D03*
Y220900D02*
D03*
Y218400D02*
D03*
Y215900D02*
D03*
Y213400D02*
D03*
Y210900D02*
D03*
Y208400D02*
D03*
Y205900D02*
D03*
D51*
X9550Y45075D02*
D03*
X9475Y63700D02*
D03*
X48250Y63925D02*
D03*
X48325Y45300D02*
D03*
Y381300D02*
D03*
X48250Y399925D02*
D03*
X9475Y399700D02*
D03*
X9550Y381075D02*
D03*
X452848Y174294D02*
D03*
Y257902D02*
D03*
Y345901D02*
D03*
X452750Y429000D02*
D03*
X57175Y63700D02*
D03*
X57250Y45075D02*
D03*
X85875Y73850D02*
D03*
X85927Y35150D02*
D03*
X115273Y73850D02*
D03*
X115325Y35150D02*
D03*
X143950Y63925D02*
D03*
X144025Y45300D02*
D03*
Y381300D02*
D03*
X143950Y399925D02*
D03*
X115325Y371150D02*
D03*
X115273Y409850D02*
D03*
X85927Y371150D02*
D03*
X85875Y409850D02*
D03*
X57250Y381075D02*
D03*
X57175Y399700D02*
D03*
X407569Y121014D02*
D03*
X308447Y147392D02*
D03*
X407569Y204014D02*
D03*
X308447Y230392D02*
D03*
X407572Y292622D02*
D03*
X308450Y319000D02*
D03*
X407572Y375622D02*
D03*
X308450Y402000D02*
D03*
X670100Y422000D02*
D03*
X649100Y403500D02*
D03*
X670350Y404250D02*
D03*
X670100Y413500D02*
D03*
X694600Y415500D02*
D03*
X730600Y400500D02*
D03*
X785450Y111000D02*
D03*
X784450Y228000D02*
D03*
Y208000D02*
D03*
Y218000D02*
D03*
X760367Y186500D02*
D03*
X724450Y192000D02*
D03*
X657950Y204000D02*
D03*
X729450Y205000D02*
D03*
X693736Y204286D02*
D03*
X688850Y196500D02*
D03*
X617950Y198000D02*
D03*
Y218500D02*
D03*
Y208000D02*
D03*
X785450Y91000D02*
D03*
Y101000D02*
D03*
X602450Y85000D02*
D03*
X598600Y382000D02*
D03*
X605100Y372500D02*
D03*
X732100Y299500D02*
D03*
X671600Y321000D02*
D03*
X606600Y271500D02*
D03*
X656950Y85000D02*
D03*
X671600Y312500D02*
D03*
X711450Y85000D02*
D03*
X650600Y302500D02*
D03*
X695600Y314500D02*
D03*
X671850Y303250D02*
D03*
X600100Y281000D02*
D03*
D52*
X410450Y46000D02*
D03*
X450450Y36000D02*
D03*
Y26000D02*
D03*
Y56000D02*
D03*
Y16000D02*
D03*
X440450Y36000D02*
D03*
X410450Y56000D02*
D03*
X440450Y26000D02*
D03*
X450450Y46000D02*
D03*
X440450Y16000D02*
D03*
X430450Y36000D02*
D03*
X440450Y56000D02*
D03*
X410450Y26000D02*
D03*
X430450Y46000D02*
D03*
X420450Y16000D02*
D03*
Y36000D02*
D03*
Y56000D02*
D03*
X430450Y26000D02*
D03*
X420450Y46000D02*
D03*
X410450Y16000D02*
D03*
Y36000D02*
D03*
X430450Y56000D02*
D03*
X420450Y26000D02*
D03*
X440450Y46000D02*
D03*
X430450Y16000D02*
D03*
X324950Y46000D02*
D03*
X364950Y36000D02*
D03*
Y26000D02*
D03*
Y56000D02*
D03*
Y16000D02*
D03*
X354950Y36000D02*
D03*
X324950Y56000D02*
D03*
X354950Y26000D02*
D03*
X364950Y46000D02*
D03*
X354950Y16000D02*
D03*
X344950Y36000D02*
D03*
X354950Y56000D02*
D03*
X324950Y26000D02*
D03*
X344950Y46000D02*
D03*
X334950Y16000D02*
D03*
Y36000D02*
D03*
Y56000D02*
D03*
X344950Y26000D02*
D03*
X334950Y46000D02*
D03*
X324950Y16000D02*
D03*
Y36000D02*
D03*
X344950Y56000D02*
D03*
X334950Y26000D02*
D03*
X354950Y46000D02*
D03*
X344950Y16000D02*
D03*
D53*
X368752Y112588D02*
D03*
X344759Y112080D02*
D03*
X356130Y112209D02*
D03*
X381373Y112966D02*
D03*
X381571Y284379D02*
D03*
Y367379D02*
D03*
X381568Y195771D02*
D03*
X356329Y283621D02*
D03*
X356326Y195013D02*
D03*
X344958Y283492D02*
D03*
X356329Y366621D02*
D03*
X344958Y366492D02*
D03*
X344955Y194885D02*
D03*
X368947Y195392D02*
D03*
X368950Y367000D02*
D03*
Y284000D02*
D03*
M02*
