G04*
G04 #@! TF.GenerationSoftware,Altium Limited,Altium Designer,21.1.1 (26)*
G04*
G04 Layer_Color=255*
%FSLAX25Y25*%
%MOIN*%
G70*
G04*
G04 #@! TF.SameCoordinates,B83F5570-EEF7-471F-9EF2-83D00333E22E*
G04*
G04*
G04 #@! TF.FilePolarity,Positive*
G04*
G01*
G75*
%ADD17C,0.08374*%
%ADD18R,0.07874X0.07874*%
%ADD19R,0.07874X0.07874*%
%ADD20R,0.50000X0.50000*%
%ADD21R,0.14000X0.05906*%
%ADD22R,0.05906X0.14000*%
%ADD23R,0.07500X0.05000*%
%ADD24R,0.06100X0.07900*%
%ADD25R,0.06250X0.01350*%
%ADD26R,0.12598X0.03740*%
%ADD27R,0.29134X0.22638*%
%ADD28R,0.03150X0.03543*%
%ADD29R,0.02756X0.03543*%
%ADD54C,0.02000*%
%ADD55C,0.01968*%
%ADD66C,0.09000*%
%ADD67C,0.12835*%
D17*
X76600Y54500D02*
D03*
X124600D02*
D03*
Y390500D02*
D03*
X76600D02*
D03*
X220600D02*
D03*
X268600D02*
D03*
Y54500D02*
D03*
X220600D02*
D03*
X28900Y390500D02*
D03*
Y54500D02*
D03*
X176300Y390500D02*
D03*
Y54500D02*
D03*
D18*
X85852Y45150D02*
D03*
X85950Y63850D02*
D03*
X67250D02*
D03*
Y45150D02*
D03*
X133852D02*
D03*
X133950Y63850D02*
D03*
X115250D02*
D03*
Y45150D02*
D03*
X133852Y381150D02*
D03*
X133950Y399850D02*
D03*
X115250D02*
D03*
Y381150D02*
D03*
X85852D02*
D03*
X85950Y399850D02*
D03*
X67250D02*
D03*
Y381150D02*
D03*
X229852D02*
D03*
X229950Y399850D02*
D03*
X211250D02*
D03*
Y381150D02*
D03*
X277852D02*
D03*
X277950Y399850D02*
D03*
X259250D02*
D03*
Y381150D02*
D03*
X277852Y45150D02*
D03*
X277950Y63850D02*
D03*
X259250D02*
D03*
Y45150D02*
D03*
X229852D02*
D03*
X229950Y63850D02*
D03*
X211250D02*
D03*
Y45150D02*
D03*
D19*
X19550Y381248D02*
D03*
X38250Y381150D02*
D03*
Y399850D02*
D03*
X19550D02*
D03*
Y45248D02*
D03*
X38250Y45150D02*
D03*
Y63850D02*
D03*
X19550D02*
D03*
X166950Y381248D02*
D03*
X185650Y381150D02*
D03*
Y399850D02*
D03*
X166950D02*
D03*
Y45248D02*
D03*
X185650Y45150D02*
D03*
Y63850D02*
D03*
X166950D02*
D03*
D20*
X344950Y36000D02*
D03*
X430450D02*
D03*
D21*
X508450Y412000D02*
D03*
X491450D02*
D03*
Y402000D02*
D03*
Y392000D02*
D03*
X508450D02*
D03*
X491450Y382000D02*
D03*
X508450D02*
D03*
Y402000D02*
D03*
Y329000D02*
D03*
X491450D02*
D03*
Y319000D02*
D03*
Y309000D02*
D03*
X508450D02*
D03*
X491450Y299000D02*
D03*
X508450D02*
D03*
Y319000D02*
D03*
X508447Y157392D02*
D03*
X491447D02*
D03*
Y147392D02*
D03*
Y137392D02*
D03*
X508447D02*
D03*
X491447Y127392D02*
D03*
X508447D02*
D03*
Y147392D02*
D03*
Y240392D02*
D03*
X491447D02*
D03*
Y230392D02*
D03*
Y220392D02*
D03*
X508447D02*
D03*
X491447Y210392D02*
D03*
X508447D02*
D03*
Y230392D02*
D03*
X695600Y333500D02*
D03*
Y323500D02*
D03*
X712600D02*
D03*
Y333500D02*
D03*
X694600Y434500D02*
D03*
Y424500D02*
D03*
X711600D02*
D03*
Y434500D02*
D03*
X638100Y271500D02*
D03*
X621100D02*
D03*
X638100Y281500D02*
D03*
X621100D02*
D03*
X638100Y291500D02*
D03*
X621100D02*
D03*
X638100Y301500D02*
D03*
X621100D02*
D03*
X638100Y311500D02*
D03*
X621100D02*
D03*
X638100Y321500D02*
D03*
X621100D02*
D03*
X804950Y228000D02*
D03*
X821950D02*
D03*
X804950Y218000D02*
D03*
X821950D02*
D03*
X804950Y208000D02*
D03*
X821950D02*
D03*
X804950Y198000D02*
D03*
X821950D02*
D03*
X804950Y188000D02*
D03*
X821950D02*
D03*
X804950Y178000D02*
D03*
X821950D02*
D03*
X783100Y269500D02*
D03*
X766100D02*
D03*
X783100Y279500D02*
D03*
X766100D02*
D03*
X783100Y289500D02*
D03*
X766100D02*
D03*
X783100Y299500D02*
D03*
X766100D02*
D03*
X783100Y309500D02*
D03*
X766100D02*
D03*
X783100Y319500D02*
D03*
X766100D02*
D03*
X781600Y370500D02*
D03*
X764600D02*
D03*
X781600Y380500D02*
D03*
X764600D02*
D03*
X781600Y390500D02*
D03*
X764600D02*
D03*
X781600Y400500D02*
D03*
X764600D02*
D03*
X781600Y410500D02*
D03*
X764600D02*
D03*
X781600Y420500D02*
D03*
X764600D02*
D03*
X636600Y372500D02*
D03*
X619600D02*
D03*
X636600Y382500D02*
D03*
X619600D02*
D03*
X636600Y392500D02*
D03*
X619600D02*
D03*
X636600Y402500D02*
D03*
X619600D02*
D03*
X636600Y412500D02*
D03*
X619600D02*
D03*
X636600Y422500D02*
D03*
X619600D02*
D03*
X582950Y228000D02*
D03*
X599950D02*
D03*
X582950Y218000D02*
D03*
X599950D02*
D03*
X582950Y208000D02*
D03*
X599950D02*
D03*
X582950Y198000D02*
D03*
X599950D02*
D03*
X582950Y188000D02*
D03*
X599950D02*
D03*
X582950Y178000D02*
D03*
X599950D02*
D03*
X803950Y111000D02*
D03*
X820950D02*
D03*
X803950Y101000D02*
D03*
X820950D02*
D03*
X803950Y91000D02*
D03*
X820950D02*
D03*
X803950Y81000D02*
D03*
X820950D02*
D03*
X803950Y71000D02*
D03*
X820950D02*
D03*
X803950Y61000D02*
D03*
X820950D02*
D03*
D22*
X332450Y408000D02*
D03*
X322450D02*
D03*
Y391000D02*
D03*
X332450D02*
D03*
X332447Y153392D02*
D03*
X322447D02*
D03*
Y136392D02*
D03*
X332447D02*
D03*
Y236492D02*
D03*
X322447D02*
D03*
Y219492D02*
D03*
X332447D02*
D03*
X332450Y325000D02*
D03*
X322450D02*
D03*
Y308000D02*
D03*
X332450D02*
D03*
D23*
X432947Y406500D02*
D03*
Y416500D02*
D03*
Y235500D02*
D03*
Y245500D02*
D03*
Y323500D02*
D03*
Y333500D02*
D03*
Y151892D02*
D03*
Y161892D02*
D03*
X616669Y131500D02*
D03*
Y121500D02*
D03*
X671169Y131500D02*
D03*
Y121500D02*
D03*
X725669Y131500D02*
D03*
Y121500D02*
D03*
X780169Y131500D02*
D03*
Y121500D02*
D03*
X616669Y73000D02*
D03*
Y63000D02*
D03*
X671169Y73000D02*
D03*
Y63000D02*
D03*
X725669Y72500D02*
D03*
Y62500D02*
D03*
X780169Y72500D02*
D03*
Y62500D02*
D03*
D24*
X452947Y411500D02*
D03*
Y240500D02*
D03*
Y328500D02*
D03*
Y156892D02*
D03*
X596669Y126500D02*
D03*
X651169D02*
D03*
X705669D02*
D03*
X760169D02*
D03*
X596669Y68000D02*
D03*
X651169D02*
D03*
X705669Y67500D02*
D03*
X760169D02*
D03*
D25*
X685125Y301898D02*
D03*
Y286543D02*
D03*
Y289102D02*
D03*
Y291661D02*
D03*
Y294220D02*
D03*
Y296779D02*
D03*
Y299339D02*
D03*
Y304457D02*
D03*
X709075D02*
D03*
Y301898D02*
D03*
Y299339D02*
D03*
Y296779D02*
D03*
Y294220D02*
D03*
Y291661D02*
D03*
Y289102D02*
D03*
Y286543D02*
D03*
X683625Y402898D02*
D03*
Y387543D02*
D03*
Y390102D02*
D03*
Y392661D02*
D03*
Y395220D02*
D03*
Y397779D02*
D03*
Y400339D02*
D03*
Y405457D02*
D03*
X707575D02*
D03*
Y402898D02*
D03*
Y400339D02*
D03*
Y397779D02*
D03*
Y395220D02*
D03*
Y392661D02*
D03*
Y390102D02*
D03*
Y387543D02*
D03*
D26*
X407572Y384114D02*
D03*
Y390807D02*
D03*
Y397500D02*
D03*
Y404193D02*
D03*
Y410886D02*
D03*
Y301114D02*
D03*
Y307807D02*
D03*
Y314500D02*
D03*
Y321193D02*
D03*
Y327886D02*
D03*
X407569Y129506D02*
D03*
Y136199D02*
D03*
Y142892D02*
D03*
Y149585D02*
D03*
Y156278D02*
D03*
Y212506D02*
D03*
Y219199D02*
D03*
Y225892D02*
D03*
Y232585D02*
D03*
Y239278D02*
D03*
D27*
X368596Y397500D02*
D03*
Y314500D02*
D03*
X368593Y142892D02*
D03*
Y225892D02*
D03*
D28*
X799844Y319500D02*
D03*
X805356D02*
D03*
X766206Y172500D02*
D03*
X760694D02*
D03*
X766206Y165000D02*
D03*
X760694D02*
D03*
X760694Y33500D02*
D03*
X766206D02*
D03*
Y41500D02*
D03*
X760694D02*
D03*
X765206Y215500D02*
D03*
X759694D02*
D03*
X765206Y223000D02*
D03*
X759694D02*
D03*
X766206Y100500D02*
D03*
X760694D02*
D03*
X766206Y92500D02*
D03*
X760694D02*
D03*
X330206Y283000D02*
D03*
X324694D02*
D03*
X443706Y383750D02*
D03*
X438194D02*
D03*
X330206Y366000D02*
D03*
X324694D02*
D03*
X443706Y300750D02*
D03*
X438194D02*
D03*
X443703Y212142D02*
D03*
X438191D02*
D03*
X330203Y194392D02*
D03*
X324691D02*
D03*
X443703Y129142D02*
D03*
X438191D02*
D03*
X598856Y422500D02*
D03*
X593344D02*
D03*
X798344Y420500D02*
D03*
X803856D02*
D03*
X694539Y165000D02*
D03*
X689027D02*
D03*
X694539Y172500D02*
D03*
X689027D02*
D03*
X600356Y321500D02*
D03*
X594844D02*
D03*
X657706Y215500D02*
D03*
X652194D02*
D03*
X657706Y223000D02*
D03*
X652194D02*
D03*
X693539Y215500D02*
D03*
X688027D02*
D03*
X693539Y223000D02*
D03*
X688027D02*
D03*
X658706Y165000D02*
D03*
X653194D02*
D03*
X658706Y172500D02*
D03*
X653194D02*
D03*
X330203Y111392D02*
D03*
X324691D02*
D03*
X657206Y92500D02*
D03*
X651694D02*
D03*
X657206Y100500D02*
D03*
X651694D02*
D03*
X602706Y92500D02*
D03*
X597194D02*
D03*
X602706Y100500D02*
D03*
X597194D02*
D03*
X657206Y41500D02*
D03*
X651694D02*
D03*
Y33500D02*
D03*
X657206D02*
D03*
X597194D02*
D03*
X602706D02*
D03*
Y41500D02*
D03*
X597194D02*
D03*
X711706Y100500D02*
D03*
X706194D02*
D03*
X729373Y215500D02*
D03*
X723861D02*
D03*
X729373Y223000D02*
D03*
X723861D02*
D03*
X711706Y92500D02*
D03*
X706194D02*
D03*
X730373Y165000D02*
D03*
X724861D02*
D03*
X730373Y172500D02*
D03*
X724861D02*
D03*
X711706Y41500D02*
D03*
X706194D02*
D03*
Y33500D02*
D03*
X711706D02*
D03*
D29*
X760497Y179500D02*
D03*
X766403D02*
D03*
X760497Y49000D02*
D03*
X766403D02*
D03*
X759497Y231000D02*
D03*
X765403D02*
D03*
X760497Y108000D02*
D03*
X766403D02*
D03*
X443903Y393000D02*
D03*
X437997D02*
D03*
X443903Y310000D02*
D03*
X437997D02*
D03*
X443900Y221392D02*
D03*
X437994D02*
D03*
X443900Y138392D02*
D03*
X437994D02*
D03*
X688831Y179500D02*
D03*
X694736D02*
D03*
X651997Y231000D02*
D03*
X657903D02*
D03*
X687831D02*
D03*
X693736D02*
D03*
X652997Y179500D02*
D03*
X658903D02*
D03*
X651497Y108000D02*
D03*
X657403D02*
D03*
X596997D02*
D03*
X602903D02*
D03*
X651497Y49000D02*
D03*
X657403D02*
D03*
X596997D02*
D03*
X602903D02*
D03*
X705997Y108000D02*
D03*
X711903D02*
D03*
X723664Y231000D02*
D03*
X729569D02*
D03*
X724664Y179500D02*
D03*
X730569D02*
D03*
X705997Y49000D02*
D03*
X711903D02*
D03*
D54*
X821350Y564100D02*
D03*
X490700D02*
D03*
X410300Y562600D02*
D03*
X81000Y513500D02*
D03*
Y459500D02*
D03*
X410600Y513500D02*
D03*
Y459500D02*
D03*
X818600D02*
D03*
Y513500D02*
D03*
X489100Y459500D02*
D03*
X489000Y513500D02*
D03*
X79600Y562700D02*
D03*
D55*
X820850Y559100D02*
D03*
X491200Y569100D02*
D03*
X409800Y557600D02*
D03*
X86000Y513000D02*
D03*
X76000Y460000D02*
D03*
X415600Y513000D02*
D03*
X405600Y460000D02*
D03*
X813600D02*
D03*
X823600Y513000D02*
D03*
X484100Y460000D02*
D03*
X494000Y513000D02*
D03*
X80100Y567700D02*
D03*
D66*
X821350Y550100D02*
D03*
Y578100D02*
D03*
X490700Y550100D02*
D03*
Y578100D02*
D03*
X410300Y548600D02*
D03*
Y576600D02*
D03*
X67000Y513500D02*
D03*
X95000D02*
D03*
X67000Y459500D02*
D03*
X95000D02*
D03*
X396600Y513500D02*
D03*
X424600D02*
D03*
X396600Y459500D02*
D03*
X424600D02*
D03*
X832600D02*
D03*
X804600D02*
D03*
X832600Y513500D02*
D03*
X804600D02*
D03*
X503100Y459500D02*
D03*
X475100D02*
D03*
X503000Y513500D02*
D03*
X475000D02*
D03*
X79600Y548700D02*
D03*
Y576700D02*
D03*
D67*
X454500Y577000D02*
D03*
X21000D02*
D03*
Y429000D02*
D03*
Y22000D02*
D03*
X874100Y577000D02*
D03*
Y429000D02*
D03*
Y23000D02*
D03*
X556600Y22000D02*
D03*
Y429000D02*
D03*
M02*
